<?xml version="1.0" encoding="utf-8"?>
<!-- Generator: Adobe Illustrator 21.1.0, SVG Export Plug-In . SVG Version: 6.00 Build 0)  -->
<svg version="1.1" id="Layer_1" xmlns="http://www.w3.org/2000/svg" xmlns:xlink="http://www.w3.org/1999/xlink" x="0px" y="0px"
	 viewBox="0 0 184.6 57.3" style="enable-background:new 0 0 184.6 57.3;" xml:space="preserve">
<style type="text/css">
	.st0{fill:none;}
</style>
<g id="Layer_1_1_">
</g>
<g id="Isolation_Mode">
	<g>
		<g>
			<g>
				<path d="M32.9,11.4c0.3-0.2,0.3-0.3,0.2-0.9l-0.7-3.2c-0.1-0.5-0.2-0.7-0.5-0.7V6.5H32l0.6-0.1c0.1,0,0.4-0.1,0.8-0.2
					c0.2,0,0.3-0.1,0.5-0.1C34.2,6,34.4,6,34.7,6c0.9-0.1,1.5,0.2,1.7,0.8c0.1,0.6-0.2,1.1-1.1,1.5h0.1c0.5-0.1,0.8,0,1.1,0.1
					c0.4,0.1,0.6,0.4,0.7,0.8c0.1,0.2,0,0.5-0.1,0.7c-0.2,0.6-0.8,0.9-1.8,1.1c-0.2,0-0.4,0.1-0.6,0.1c-0.6,0.1-0.8,0.1-1,0.2
					C33.4,11.4,33.2,11.4,32.9,11.4L32.9,11.4L32.9,11.4z M34.1,8.4c0.9-0.2,1.3-0.6,1.1-1.2c-0.1-0.5-0.6-0.7-1.4-0.5
					c-0.2,0-0.4,0.1-0.7,0.2l0.4,1.6C33.8,8.4,33.9,8.4,34.1,8.4z M34.9,10.6c0.9-0.2,1.3-0.7,1.2-1.3C36,9,35.8,8.8,35.5,8.7
					s-0.7-0.1-1.2,0c-0.2,0-0.3,0.1-0.6,0.2l0.4,1.8C34.4,10.7,34.6,10.7,34.9,10.6z"/>
				<path d="M40.3,7.4c-0.3-1.5,0.6-2.8,2.1-3.1c1.5-0.3,2.9,0.6,3.1,2.1c0.3,1.5-0.6,2.7-2.1,3C41.8,9.6,40.6,8.9,40.3,7.4z
					 M44.5,6.5c-0.3-1.4-1-2-2-1.8S41,5.8,41.3,7.2c0.2,1.3,1,2,2,1.8C44.3,8.7,44.8,7.9,44.5,6.5z"/>
				<path d="M49.3,8.2c0.3-0.1,0.3-0.3,0.2-0.9L49,4.1c0-0.3-0.1-0.4-0.2-0.5c-0.1-0.1-0.2-0.2-0.3-0.2V3.3h0.1l0.7-0.1L50.4,3
					c1-0.2,1.7,0,2.2,0.3c0.5,0.4,0.8,0.9,0.9,1.7c0.1,0.7,0,1.4-0.4,1.9c-0.4,0.6-1,0.9-2,1l-1,0.1L49.3,8.2L49.3,8.2L49.3,8.2z
					 M51.1,7.5c1.2-0.2,1.8-1,1.6-2.3s-0.9-1.9-2.1-1.7c-0.1,0-0.3,0-0.5,0.1H50l0.6,3.9C50.8,7.6,50.9,7.6,51.1,7.5z"/>
				<path d="M57.4,7c0.3-0.1,0.3-0.3,0.3-0.9l-0.4-3.2c-0.1-0.6-0.2-0.7-0.5-0.8V2l3-0.3c0.2,0,0.4,0,0.5-0.1c0.1,0,0.1,0,0.2-0.1
					c0,0.2,0,0.2,0,0.4c0,0.1,0,0.2,0,0.3v0.1h-0.1c-0.1-0.2-0.3-0.2-0.8-0.2L58,2.3L58.2,4l1.5-0.2c0.5-0.1,0.6-0.1,0.6-0.3h0.1
					c0,0.2,0,0.2,0,0.4c0,0.2,0,0.3,0.1,0.4h-0.1l-0.1-0.1c-0.1,0-0.2,0-0.5,0l-1.5,0.2l0.2,1.9l1.7-0.2C60.8,6,60.9,6,60.9,5.7H61
					l0,0c0,0.1,0,0.2,0,0.3c0,0.1,0,0.2,0.1,0.4v0.1c-0.2,0-0.3,0-0.9,0L57.4,7L57.4,7z"/>
				<path d="M69.2,5.7c-0.1,0-0.4,0.1-0.7,0.2c-0.4,0.2-0.8,0.3-1.3,0.3c-1.6,0.1-2.7-0.8-2.8-2.3s0.9-2.7,2.5-2.8
					c0.3,0,0.6,0,0.9,0.1c0.3,0.1,0.3,0.1,0.4,0.1c0.1,0,0.2,0,0.3-0.2v0.1c0,0.1,0,0.5,0.1,0.7c0,0.3,0,0.4,0.1,0.6h-0.1
					c-0.3-0.6-0.8-0.9-1.5-0.9c-1.1,0.1-1.7,0.9-1.5,2.3c0.1,0.6,0.2,1,0.4,1.4c0.3,0.4,0.8,0.6,1.4,0.5c0.4,0,0.5-0.1,0.9-0.3
					l-0.1-0.9c0-0.5-0.1-0.6-0.2-0.7c-0.1,0-0.1,0-0.2-0.1V3.7h0.1c0.1,0,0.3,0,0.7-0.1c0.4,0,0.6-0.1,0.7-0.1l0,0v0.1
					c-0.2,0.1-0.3,0.2-0.2,0.7L69.2,5c0,0.3,0.1,0.5,0.2,0.6v0.1C69.3,5.7,69.2,5.7,69.2,5.7z"/>
				<path d="M72.6,5.6c0.1,0,0.2-0.1,0.2-0.2c0.1-0.2,0.2-0.5,0.4-1l1-2.9c0.1-0.3,0.1-0.5,0.1-0.6c0-0.2-0.1-0.3-0.3-0.3V0.5h0.1
					c0.2,0,0.3,0,0.5,0s0.4,0,0.6,0h0.1v0.1c0,0.1,0.1,0.3,0.2,0.4l1.8,3.6c0.2,0.4,0.4,0.6,0.6,0.7v0.1h-0.1c-0.1,0-0.4,0-0.8,0
					c-0.4,0-0.6,0-0.8,0h-0.1V5.3c0.2,0,0.2-0.1,0.2-0.3c0-0.1,0-0.2-0.1-0.4l-0.5-0.9l-1.8,0.1l-0.2,0.7c-0.1,0.3-0.1,0.5-0.1,0.6
					c0,0.2,0.1,0.3,0.3,0.3v0.1l0,0c-0.1,0-0.3,0-0.5,0C73,5.7,72.7,5.7,72.6,5.6L72.6,5.6z M75.7,3.4l-0.9-1.8l-0.6,1.9L75.7,3.4z"
					/>
				<path d="M81.3,5.1c0-0.2,0-0.4,0-0.6c0-0.3,0-0.5,0-0.6V3.8h0.1c0.2,0.6,0.8,1,1.5,1S84,4.4,84,3.9c0-0.2-0.1-0.4-0.2-0.5
					c-0.1-0.1-0.5-0.3-1.1-0.4c-0.4-0.1-0.7-0.2-0.8-0.3c-0.4-0.2-0.6-0.5-0.6-1c0-0.8,0.8-1.5,1.8-1.5c0.3,0,0.5,0,0.8,0.1
					c0.2,0,0.3,0.1,0.4,0.1c0.1,0,0.2,0,0.3-0.1v0.1v0.5v0.3c0,0.2,0,0.3,0,0.4l0,0h-0.1c-0.3-0.6-0.8-0.9-1.4-0.9
					c-0.6,0-1,0.4-1,0.9c0,0.4,0.3,0.6,1,0.8c0.8,0.2,1.2,0.4,1.4,0.6c0.3,0.2,0.4,0.5,0.4,0.8c0,0.9-0.8,1.6-2.1,1.7
					c-0.2,0-0.5,0-0.7-0.1l-0.4-0.1c-0.1,0-0.2,0-0.3,0C81.4,5.1,81.4,5.1,81.3,5.1L81.3,5.1L81.3,5.1z"/>
				<path d="M94.6,5C94.9,4.9,95,4.8,95,4.2V3.1l-1.4-2.4c-0.2-0.3-0.3-0.4-0.6-0.6V0h0.1c0.2,0,0.4,0,0.7,0s0.6,0,0.8,0h0.1v0.1
					c-0.1,0-0.2,0.1-0.2,0.2s0,0.1,0.1,0.2l1.1,1.9l1-1.8c0.1-0.1,0.1-0.2,0.1-0.3c0-0.1-0.1-0.2-0.2-0.2V0h0.1c0.2,0,0.4,0,0.6,0
					c0.2,0,0.4,0,0.6,0H98v0.1c-0.3,0.1-0.4,0.2-0.6,0.5L96,3v1.1c0,0.6,0.1,0.7,0.4,0.8V5h-0.1c-0.1,0-0.4,0-0.8,0
					C95.1,5,94.8,5,94.6,5L94.6,5L94.6,5z"/>
				<path d="M105.8,0.3L105.8,0.3c0.2,0,0.4,0,0.8,0c0.3,0,0.7,0,0.8,0h0.1v0.1c-0.2,0-0.2,0.1-0.3,0.3c0,0.1,0,0.2,0.1,0.4l1.1,3.2
					l1.2-3c0.1-0.3,0.1-0.3,0.1-0.5s0-0.3-0.2-0.3V0.4h0.1c0.2,0,0.3,0,0.6,0c0.2,0,0.4,0,0.6,0h0.1v0.1c-0.1,0-0.2,0.1-0.2,0.1
					c-0.1,0.2-0.2,0.4-0.4,0.8l-1.5,3.4c0,0.1,0,0.2-0.1,0.2c0,0.1,0,0.1,0.1,0.2l-1.1-0.1V5c0.1,0,0.1-0.1,0.1-0.1s0-0.2-0.1-0.4
					l-1.3-3.6C106.1,0.6,106,0.5,105.8,0.3L105.8,0.3z"/>
				<path d="M113.9,5.6c0.3-0.1,0.4-0.2,0.4-0.8l0.2-3.2c0-0.5,0-0.7-0.3-0.8V0.7h0.1c0.1,0,0.4,0,0.8,0.1c0.4,0,0.6,0,0.7,0h0.1
					v0.1c-0.3,0.1-0.4,0.2-0.4,0.8l-0.2,3.2c0,0.6,0,0.7,0.3,0.8v0.1h-0.1c-0.1,0-0.4,0-0.7-0.1C114.4,5.7,114.2,5.7,113.9,5.6
					L113.9,5.6L113.9,5.6z"/>
				<path d="M119.4,5l0.3-2.8c0-0.5,0-0.6,0-0.8c0-0.1-0.1-0.2-0.3-0.3V1c0.2,0,0.2,0,0.6,0.1c0.3,0,0.5,0,0.6,0h0.1
					c0,0.1,0,0.1,0,0.2s0.1,0.1,0.2,0.4l2.2,3.2l0.2-2.3c0.1-0.8,0-1-0.3-1.1V1.4h0.1c0.1,0,0.3,0,0.5,0.1c0.2,0,0.5,0,0.6,0h0.1
					v0.1c-0.1,0-0.1,0-0.2,0.1C124,1.8,124,2,123.9,2.6l-0.3,2.8v0.5c0,0.1,0,0.2,0,0.3c0,0.1,0,0.2,0.1,0.2l-1-0.1
					c0.1-0.1,0.1-0.2,0.1-0.2c0-0.1,0-0.2-0.1-0.3l-0.2-0.2l-2.3-3.3L120,5c0,0.4,0,0.7,0,0.8c0,0.1,0.1,0.2,0.3,0.3v0.1h-0.1
					c-0.2,0-0.4,0-0.6-0.1c-0.2,0-0.4,0-0.6,0h-0.1V6C119.3,5.9,119.3,5.8,119.4,5z M121.1,0.3c0.2-0.3,0.4-0.3,0.7-0.3
					c0.1,0,0.3,0,0.4,0.1l0.3,0.1c0.1,0,0.3,0.1,0.4,0.1c0.2,0,0.3,0,0.5-0.1h0.1l-0.3,0.4c-0.1,0.2-0.3,0.2-0.5,0.2
					c-0.1,0-0.4-0.1-0.6-0.2c-0.2-0.1-0.4-0.1-0.6-0.1c-0.2,0-0.4,0-0.6,0.2h-0.1L121.1,0.3z"/>
				<path d="M127.3,6.8c0.3,0,0.4-0.2,0.5-0.8l0.4-3.2c0.1-0.5,0-0.7-0.3-0.8V1.9l3,0.4c0.2,0,0.4,0,0.5,0s0.1,0,0.2,0
					c0,0.2,0,0.2-0.1,0.4c0,0.1,0,0.2,0,0.3v0.1h-0.1c-0.1-0.2-0.2-0.3-0.8-0.4L129,2.5l-0.2,1.7l1.5,0.2c0.5,0,0.6,0,0.7-0.1h0.1
					c0,0.2,0,0.2-0.1,0.4c0,0.2,0,0.3,0,0.4h-0.1c0-0.1,0-0.1-0.1-0.1c-0.1-0.1-0.1-0.1-0.5-0.1l-1.5-0.2l-0.2,1.9l1.7,0.2
					c0.6,0.1,0.7,0,0.8-0.2h0.1l0,0c0,0.1,0,0.2-0.1,0.3c0,0.1,0,0.2,0,0.4v0.1c-0.2-0.1-0.2-0.1-0.9-0.2L127.3,6.8L127.3,6.8z"/>
				<path d="M134.5,7.7c0.3,0,0.4-0.2,0.5-0.8l0.5-3.2c0.1-0.3,0.1-0.4,0-0.6c0-0.1-0.1-0.2-0.3-0.3V2.7h0.1l0.7,0.1l1.1,0.1
					c1,0.2,1.6,0.5,2,1s0.5,1.1,0.4,1.8c-0.1,0.7-0.4,1.3-0.9,1.7c-0.6,0.4-1.2,0.6-2.2,0.4l-1-0.2L134.5,7.7L134.5,7.7L134.5,7.7z
					 M136.4,7.6c1.2,0.2,2-0.4,2.2-1.8c0.2-1.3-0.3-2.1-1.5-2.3c-0.1,0-0.3,0-0.5-0.1h-0.1l-0.6,3.9C136.1,7.6,136.2,7.6,136.4,7.6z
					"/>
				<path d="M143.1,6.8c0.3-1.5,1.6-2.4,3.1-2.1s2.4,1.6,2.2,3.1c-0.3,1.5-1.6,2.3-3.1,2C143.7,9.4,142.8,8.2,143.1,6.8z M147.4,7.5
					c0.3-1.4-0.2-2.2-1.2-2.5c-1-0.2-1.7,0.4-2,1.9c-0.3,1.3,0.2,2.2,1.2,2.4C146.4,9.5,147.1,8.9,147.4,7.5z"/>
				<path d="M151.3,10.8c0-0.2,0.1-0.3,0.2-0.6c0.1-0.3,0.1-0.5,0.1-0.6V9.5h0.1c0,0.7,0.5,1.2,1.2,1.4c0.7,0.2,1.2-0.1,1.3-0.6
					c0-0.2,0-0.4-0.1-0.5s-0.4-0.4-0.9-0.7c-0.3-0.2-0.6-0.4-0.7-0.5c-0.3-0.3-0.4-0.7-0.3-1.1c0.2-0.8,1.1-1.3,2.2-1
					c0.2,0.1,0.5,0.2,0.7,0.3c0.1,0.1,0.3,0.2,0.4,0.2c0.1,0,0.2,0,0.3,0v0.1l-0.1,0.5l-0.1,0.2c0,0.2-0.1,0.3-0.1,0.4l0,0h-0.1
					c-0.1-0.6-0.5-1.1-1.1-1.2s-1.1,0.1-1.2,0.6c-0.1,0.4,0.1,0.7,0.8,1.1s1,0.7,1.2,1c0.2,0.2,0.2,0.5,0.2,0.9
					c-0.2,0.9-1.2,1.3-2.4,1c-0.2-0.1-0.4-0.1-0.6-0.2l-0.3-0.2c-0.1,0-0.2-0.1-0.3-0.1C151.5,10.8,151.4,10.8,151.3,10.8
					L151.3,10.8L151.3,10.8z"/>
			</g>
		</g>
		<g>
			<g>
				<path d="M62.3,57.1c0.3-0.1,0.4-0.2,0.4-0.8v-3.2c0-0.3,0-0.4-0.1-0.6c-0.1-0.1-0.2-0.2-0.3-0.2v-0.1h0.1h0.7h1.1
					c1,0,1.7,0.2,2.2,0.7c0.4,0.4,0.7,1,0.7,1.8c0,0.7-0.2,1.3-0.7,1.8s-1.1,0.7-2.1,0.7h-1.1L62.3,57.1L62.3,57.1L62.3,57.1z
					 M64.2,56.8c1.2,0,1.9-0.7,1.9-2.1c0-1.3-0.6-2-1.9-2c-0.1,0-0.3,0-0.5,0h-0.1v4C63.8,56.8,63.9,56.8,64.2,56.8z"/>
				<path d="M69.3,57.1c0.3-0.1,0.4-0.2,0.4-0.8v-3.2c0-0.5-0.1-0.7-0.4-0.8v-0.1h3c0.2,0,0.4,0,0.5,0s0.1,0,0.2,0
					c0,0.2,0,0.2,0,0.4c0,0.1,0,0.2,0,0.3V53h-0.1c-0.1-0.2-0.3-0.3-0.8-0.3h-1.6v1.7H72c0.5,0,0.6,0,0.6-0.2h0.1c0,0.2,0,0.2,0,0.4
					c0,0.2,0,0.3,0,0.4h-0.1c0-0.1,0-0.1-0.1-0.1s-0.2-0.1-0.5-0.1h-1.5v1.9h1.7c0.6,0,0.7-0.1,0.8-0.3h0.1v0.1c0,0.1,0,0.2,0,0.3
					c0,0.1,0,0.2,0,0.4v0.1c-0.2,0-0.2-0.1-0.9-0.1L69.3,57.1L69.3,57.1z"/>
				<path d="M75.4,57.1c0-0.2,0-0.4,0-0.6c0-0.3,0-0.5,0-0.7v-0.1h0.1c0.2,0.6,0.8,1.1,1.5,1.1s1.1-0.4,1.1-0.9
					c0-0.2-0.1-0.4-0.2-0.5c-0.1-0.1-0.5-0.3-1.1-0.5c-0.4-0.1-0.6-0.2-0.8-0.3c-0.4-0.2-0.6-0.6-0.6-1c0-0.9,0.8-1.5,1.9-1.5
					c0.3,0,0.5,0,0.8,0.1c0.2,0.1,0.3,0.1,0.4,0.1c0.1,0,0.2,0,0.3-0.1v0.1v0.5v0.3c0,0.2,0,0.3,0,0.4l0,0h-0.1
					c-0.2-0.6-0.8-0.9-1.4-0.9c-0.6,0-1,0.3-1,0.8c0,0.4,0.2,0.6,1,0.9s1.1,0.4,1.4,0.6c0.2,0.2,0.4,0.5,0.4,0.8
					c0,0.9-0.9,1.6-2.1,1.6c-0.2,0-0.5,0-0.7-0.1l-0.4-0.1c-0.1,0-0.2,0-0.3,0C75.5,57.1,75.4,57.1,75.4,57.1L75.4,57.1L75.4,57.1z"
					/>
				<path d="M81.2,57.1c0.3-0.1,0.4-0.2,0.4-0.8v-3.2c0-0.3,0-0.4-0.1-0.6c-0.1-0.1-0.1-0.2-0.3-0.2v-0.1h0.1H82h1.1
					c1,0,1.7,0.2,2.2,0.7c0.4,0.4,0.7,1,0.7,1.8c0,0.7-0.2,1.3-0.7,1.8s-1.1,0.7-2.1,0.7h-1.1L81.2,57.1L81.2,57.1L81.2,57.1z
					 M83.1,56.8c1.2,0,1.9-0.7,1.9-2.1c0-1.3-0.6-2-1.9-2c-0.1,0-0.3,0-0.5,0h-0.1v4C82.8,56.8,82.8,56.8,83.1,56.8z"/>
				<path d="M88.2,57.1c0.3-0.1,0.4-0.2,0.4-0.8v-3.2c0-0.5-0.1-0.7-0.4-0.8v-0.1h3c0.2,0,0.4,0,0.5,0s0.1,0,0.2,0
					c0,0.2,0,0.2,0,0.4c0,0.1,0,0.2,0,0.3V53h-0.1c-0.1-0.2-0.3-0.3-0.8-0.3h-1.6v1.7h1.5c0.5,0,0.6,0,0.6-0.2h0.1
					c0,0.2,0,0.2,0,0.4c0,0.2,0,0.3,0,0.4l0,0c0-0.1,0-0.1-0.1-0.1s-0.1-0.1-0.5-0.1h-1.5v1.9h1.7c0.6,0,0.7-0.1,0.8-0.3h0.1v0.1
					c0,0.1,0,0.2,0,0.3c0,0.1,0,0.2,0,0.4v0.1c-0.2,0-0.2-0.1-0.9-0.1L88.2,57.1L88.2,57.1z"/>
				<path d="M99.7,57.1c0.1,0,0.1,0,0.2-0.1c0.1-0.1,0.2-0.2,0.2-0.7v-2.7v-0.4c0-0.3,0-0.4-0.2-0.5c-0.1-0.1-0.2-0.1-0.4-0.1v-0.1
					c0.7-0.1,1-0.2,1.5-0.5l0,0c0,0.1,0,0.1,0,0.2s0,0.4,0,0.8v3.3c0,0.3,0,0.4,0.1,0.6c0.1,0.1,0.2,0.2,0.3,0.2v0.1L99.7,57.1
					L99.7,57.1z"/>
				<path d="M105.3,52.2h0.3h2c0.5,0,0.6,0,0.7-0.1h0.1v0.1c0,0.2,0,0.4,0,0.5s0,0.2,0,0.5v0.1h-0.1c0-0.1-0.1-0.1-0.1-0.2l-0.1-0.1
					c-0.1,0-0.2-0.1-0.5-0.1h-2.1v1.3c0.5-0.2,0.7-0.2,1.3-0.2c1.2,0,2,0.6,2,1.5c0,1-0.9,1.7-2.1,1.7c-0.4,0-0.8-0.1-1.2-0.2
					c-0.1,0-0.2-0.1-0.3-0.1s-0.2,0-0.2,0.2h-0.1V57c0-0.2,0-0.4,0-0.6s0-0.4,0-0.6v-0.1h0.1c0.2,0.3,0.2,0.4,0.4,0.6s0.7,0.4,1,0.4
					c0.8,0,1.3-0.5,1.3-1.2s-0.5-1.1-1.3-1.1c-0.5,0-0.9,0.2-1.1,0.5l-0.4-0.2v-2.5C105,52.2,105,52.2,105.3,52.2z"/>
				<path d="M112.1,52.2h0.3h2c0.5,0,0.6,0,0.7-0.1h0.1v0.1c0,0.2,0,0.4,0,0.5s0,0.2,0,0.5v0.1h-0.1c0-0.1-0.1-0.1-0.1-0.2l-0.1-0.1
					c-0.1,0-0.2-0.1-0.5-0.1h-2.1v1.3c0.5-0.2,0.7-0.2,1.3-0.2c1.2,0,2,0.6,2,1.5c0,1-0.9,1.7-2.1,1.7c-0.4,0-0.8-0.1-1.2-0.2
					c-0.1,0-0.2-0.1-0.3-0.1s-0.2,0-0.2,0.2h-0.1V57c0-0.2,0-0.4,0-0.6s0-0.4,0-0.6v-0.1h0.1c0.2,0.3,0.2,0.4,0.4,0.6s0.7,0.4,1,0.4
					c0.8,0,1.3-0.5,1.3-1.2s-0.5-1.1-1.3-1.1c-0.5,0-0.9,0.2-1.1,0.5l-0.4-0.2v-2.5C111.8,52.2,111.8,52.2,112.1,52.2z"/>
				<path d="M118.9,57.1c0.1,0,0.1,0,0.2-0.1c0.1-0.1,0.2-0.2,0.2-0.7v-2.7v-0.4c0-0.3,0-0.4-0.2-0.5c-0.1-0.1-0.2-0.1-0.4-0.1v-0.1
					c0.7-0.1,1-0.2,1.5-0.5l0,0c0,0.1,0,0.1,0,0.2s0,0.4,0,0.8v3.3c0,0.3,0,0.4,0.1,0.6c0.1,0.1,0.2,0.2,0.3,0.2v0.1L118.9,57.1
					L118.9,57.1z"/>
			</g>
		</g>
		<g>
			<g>
				<g>
					<path d="M102,29.5c0.1,0,0.3,0,0.3-0.1v-5.7c0,0-0.1,0-0.3-0.1V29.5z"/>
					<path d="M102.3,36.6v-2.3l-0.3-0.8v2.8c0,1.2,0.6,2.1,1.8,2.9c-0.5,0-5.2,0-6.6,0l-0.3,0.2h8.1
						C103.8,39.2,102.3,37.7,102.3,36.6z"/>
				</g>
				<path d="M181.8,32.3c-0.3-0.2-0.6-0.4-0.9-0.6c-1.3-0.8-1.8-1.2-1.8-2.1c0-0.7,0.4-1.2,1-1.2c0.7,0,1.9,0.2,2.6,2.4v0.1l0.2-0.1
					l-0.2-2.7l-0.1-0.1c-0.7-0.5-1.6-0.8-2.7-0.8c-2.3,0-3.7,1.2-3.7,3.3c0,2,1.3,2.8,2.5,3.6c1,0.7,1.9,1.3,1.9,2.5
					c0,0.5-0.1,1.3-1.1,1.3c-1.9,0-2.7-1.7-2.9-2.7V35l-0.5,0.3c0,0,0.2,2.4,0.3,2.9v0.1h0.1c0.5,0.3,1.5,0.7,2.9,0.7
					c2.4,0,3.8-1.3,3.8-3.5C183.6,34.3,182.9,33.1,181.8,32.3z"/>
				<path d="M117.3,38.1c0,0-0.5-0.1-0.7-0.4c-0.1-0.1,0-0.4,0.1-0.8l0.2-0.8h0.3l-0.3,0.9c-0.1,0.2-0.2,0.5-0.1,0.6
					C116.9,37.8,117.3,38,117.3,38.1L117.3,38.1z"/>
				<path d="M116.8,38.6L116.8,38.6c0,0-0.5-0.2-0.8-0.4c-0.3-0.3-0.3-0.7-0.3-0.7c0-0.1,0.1-0.4,0.2-0.8l0.4-1.4h2l0.4,1.6
					c0,0.1,0.1,0.5,0.1,0.7c0,0.1,0,0.4-0.2,0.7c-0.2,0.2-0.8,0.4-0.8,0.4l0,0h5.3c-0.1-0.1-1-0.6-1.4-2.1l-2.8-8.9h-1.8l-2.5,7.8
					c-0.6,1.8-1,2.3-1.2,2.6c-0.1,0-0.5,0.5-0.5,0.5l0,0L116.8,38.6L116.8,38.6z M117.4,31.6l0.7,2.5h-1.4L117.4,31.6z"/>
				<g>
					<path d="M138,34.4h-0.2V37c0.1,0,0.2,0,0.2,0c0.9,0,1.5-0.4,1.9-1c-0.3,0.4-1.1,0.7-1.8,0.7v-2.3H138z"/>
				</g>
				<g>
					<rect x="137.7" y="29.4" width="0.2" height="2.2"/>
				</g>
				<path d="M140.7,38.6l0.4-3.5l-0.3-0.1v0.2c0,0.2-0.1,0.3-0.1,0.5c-0.2,1-1.4,2-2.8,2c-0.3,0-1,0-1,0v-4.1h0.3c0.1,0,0.2,0,0.3,0
					l0,0h0.5h0.6l0,0c0.3,0,0.4,0.1,0.6,0.2c0.1,0.1,0.2,0.2,0.3,0.3v-2.3c-0.2,0.3-0.6,0.5-1,0.5h-1.7v-3.8h1.5
					c1.3,0,1.4,0.2,1.9,2.1v0.2l0.2-0.1l-0.2-3.1h-7.1l0.2,0.1c0.3,0.3,0.5,0.7,0.5,1.1v8.9c0,0.3-0.3,0.8-0.3,0.8L140.7,38.6
					L140.7,38.6z"/>
				<path d="M162.1,27.7h-1.9h-4.4h-1.9l-0.2,3.1l0.2,0.1v-0.2c0.5-1.9,0.6-2.1,1.9-2.1h0.6c0,0.1,0,0.2,0,0.3v3.2v0.3v1.2v4.1l0,0
					v0.2c0,0.3-0.3,0.8-0.3,0.8h1.8h1.8c0,0-0.3-0.4-0.3-0.8v-0.2l0,0v-4.1v-1.2v-0.3v-3.2c0-0.1,0-0.2,0-0.3h0.6
					c1.3,0,1.4,0.2,1.9,2.1v0.2l0.2-0.1L162.1,27.7z"/>
				<path d="M132.2,27.7h-3.9l0,0c0,0,0.5,0.2,0.8,0.4c0.3,0.3,0.3,0.7,0.3,0.7c0,0.1,0,0.4-0.2,0.8l-1.4,5.3l-1.1-4.1l0,0l-0.9-3.2
					h-3.9c0.1,0.1,1,0.6,1.4,2.1l2.9,8.9h1.9l2.5-7.8c0.6-1.8,1-2.3,1.2-2.6C131.8,28.2,132.2,27.7,132.2,27.7L132.2,27.7z"/>
				<path d="M168.7,27.2c-2.8,0-5,2.7-5,6s2.3,6,5,6c2.8,0,5-2.7,5-6S171.5,27.2,168.7,27.2 M168.7,37.9c-1.3,0-2.3-2.1-2.3-4.7
					s1-4.6,2.3-4.6s2.3,2.1,2.3,4.6C171,35.8,170,37.9,168.7,37.9"/>
				<path d="M168,26.5c0.4,0,0.8,0,1.2-0.1c0.9-0.3,1.8-0.9,2.1-1.7h-2.1C168.9,25.4,168.5,26,168,26.5"/>
				<path d="M171.9,25.1c-0.5,0.6-1.2,1.2-2,1.4l0,0c0.9-0.1,1.9-0.7,2.3-1.5h-0.3V25.1z"/>
				<path d="M168.6,29.1c-0.1,0-0.2,0-0.3,0.1c-1.7,2.3-1.6,5.8,0.1,8.1c0.1,0,0.2,0.1,0.3,0.1l0,0l-0.6-1c-1-1.9-1-4.7,0.1-6.6
					C168.3,29.5,168.5,29.3,168.6,29.1"/>
				<path d="M173.4,29.5c0.7,1,1.1,2.4,1.1,3.8c0,3.4-2.3,6.2-5.2,6.2c-0.3,0-0.6,0-0.9-0.1c0.4,0.1,0.7,0.2,1.1,0.2
					c2.9,0,5.2-2.7,5.2-6C174.7,32,174.2,30.6,173.4,29.5"/>
				<g>
					<path d="M102,29.5c0.1,0,0.3,0,0.3-0.1v-5.7c0,0-0.1,0-0.3-0.1V29.5z"/>
					<path d="M102.3,36.6v-2.3l-0.3-0.8v2.8c0,1.2,0.6,2.1,1.8,2.9c-0.5,0-5.2,0-6.6,0l-0.3,0.2h8.1
						C103.8,39.2,102.3,37.7,102.3,36.6z"/>
				</g>
				<g>
					<path d="M111.3,42.7h-0.7c-0.8,0-1.6-0.1-2.3-0.2c1.2,0.3,2.5,0.5,3.9,0.3c1.3-0.1,2.4-0.2,3.5-0.6l-0.3-0.1
						C114.2,42.5,112.7,42.7,111.3,42.7z"/>
					<path d="M116,42.2L116,42.2C116,42.1,115.9,42.1,116,42.2c-1.9-0.9-3.5-2.2-4.5-3.8l-4.1-6.3c1.8-1.3,3.2-2.6,3.3-5.1
						c0-1.1-0.5-2.4-0.7-2.7l0,0c0,0,0,0,0,0.1c0.3,0.4,0.4,1.3,0.5,2.2c0.1,2.7-1.4,4.1-3.4,5.5l0.1,0.2c0,0,4,6.3,4.4,6.7
						c1,1.5,2.4,2.7,4.1,3.5l0,0C115.8,42.3,115.9,42.2,116,42.2L116,42.2z"/>
				</g>
				<g>
					<path d="M101.9,31.9c0.2,0,0.3,0.1,0.4,0.2l5,7.8l0.1,0.2c0.9,1.5,2.1,1.8,3.8,1.8h0.5c0.9,0,1.4-0.1,1.7-0.1
						c-0.1-0.1-0.2-0.2-0.3-0.3c-0.7-0.6-1.4-1.2-1.9-1.9l-0.7-1l-4.6-7l0.2-0.1c1.1-0.5,2-1.2,2.6-1.9c0.9-1.2,1.8-3.1,0.6-5.1
						c-1-1.9-3.9-3.2-5.8-3.3c-2.1,0-4.9,0-6.6,0c0.1,0.1,0.1,0.1,0.1,0.2c0.4,0.4,0.8,0.9,0.8,1.5v13.7c0,0.8-0.4,1.5-0.8,2.1h5.1
						l0,0c-0.4-0.4-0.8-0.7-0.8-1.4V32L101.9,31.9C101.8,31.9,101.8,31.9,101.9,31.9z M102.2,30.4L102.2,30.4h-0.9v-7.9h0.6
						c1.5,0.1,2.7,0.6,3.5,1.7c0.9,1.1,0.8,3.5-0.1,4.5C104.5,29.9,103.5,30.4,102.2,30.4z"/>
				</g>
				<path d="M150.1,28.7v5.7l0,0l-4.4-6.6h-2.9c0,0,0.1,0.1,0.2,0.1c0.3,0.3,0.5,0.7,0.5,1.1v8.9c0,0.3-0.3,0.8-0.3,0.8h2.5
					c-0.3-0.2-0.5-0.5-0.5-0.9v-5.3h0.1l2.8,4.2l1.4,2h2.2v-9.5v-0.6l0,0c0-0.2,0.1-0.4,0.2-0.6c0.1-0.1,0.2-0.2,0.3-0.3h-2.6
					C149.9,27.9,150.1,28.3,150.1,28.7"/>
				<path d="M149.6,32l-2.5-3.7c0,0-0.1,0-0.2,0c-0.1,0-0.1,0-0.1,0.1l2.8,4.1V32z"/>
				<path d="M146.9,39.1h-3.1l-0.2,0.2h4.2l-0.3-0.1c-0.7-0.3-1.4-1-1.4-1.5v-2.9l-0.2-0.4v3.2C145.9,38.4,146.4,38.8,146.9,39.1"/>
				<path d="M161.2,39.1h-4l-0.2,0.2h5.1l-0.3-0.1c-0.7-0.3-1.4-1-1.4-1.5v-8.5l-0.3-0.1v8.4C160.2,38.4,160.7,38.8,161.2,39.1"/>
				<path d="M152.6,28.3c-0.1,0.1-0.2,0.2-0.2,0.4v10.5h-2.1l0.2,0.2h2.2V28.7c0-0.1,0.1-0.3,0.2-0.4l0,0H152.6z"/>
				<polygon points="114.2,39.4 118,39.4 117.8,39.1 113.9,39.1 				"/>
				<path d="M119.1,39.4h6.8l-0.3-0.1c-0.7-0.2-1.7-0.9-2.2-1.4c-0.2-0.2-0.4-0.6-0.4-0.6l-2.8-8.9l-0.3-0.1l2.7,8.8
					c0,0,0.1,0.4,0.3,0.7c0.4,0.6,1.2,1.1,1.8,1.4h-5.9L119.1,39.4z"/>
				<path d="M132.5,28.3c-0.2,0.1-0.3,0.2-0.4,0.3v0.1l0,0l-3.4,10.4H127l0.2,0.2h1.7l3.5-10.6l0,0c0,0,0.2-0.3,0.3-0.4l0,0H132.5z"
					/>
				<line class="st0" x1="128.1" y1="33.9" x2="129.1" y2="30.1"/>
				<polygon points="128,31.9 127,28.4 126.7,28.3 127.9,32.4 				"/>
				<polygon points="141.9,35.9 141.5,39.1 134.3,39.1 134.1,39.4 141.7,39.4 141.7,39.3 142.1,35.9 				"/>
				<polygon points="140.6,34 140.6,32 140.4,31.8 140.4,34.2 				"/>
				<g>
					<polygon points="141.2,28.3 141.4,30.5 141.6,30.4 141.5,28.3 					"/>
				</g>
				<g>
					<polygon points="162.9,28.3 163.1,30.5 163.3,30.4 163.2,28.3 					"/>
				</g>
				<g>
					<polygon points="183.7,28.4 183.8,30.5 184,30.4 183.9,28.4 					"/>
				</g>
				<path d="M154.8,30.5l0.3-0.1c0.2-0.6,0.3-0.9,0.6-0.9C155.2,29.4,155.1,29.5,154.8,30.5z"/>
				<g>
					<path d="M179.8,36.9c-1,0-1.7-0.9-2-1.5c0.2,0.6,0.8,1.7,2,1.7l0,0c0.1,0,0.3,0,0.3-0.2C180,36.9,179.8,36.9,179.8,36.9z"/>
				</g>
				<g>
					<path d="M183,32c-0.7-0.6-1.5-1.1-1.5-1.1c-1.3-0.8-1.4-1.1-1.4-1.4c0-0.1,0-0.2,0-0.2l0,0l0.1-0.1c-0.3,0-0.3,0.3-0.3,0.4
						c0,0.5,0.1,0.6,1.5,1.5c0.3,0.2,0.5,0.4,0.8,0.6l0.4,0.3c1.2,0.9,1.8,2.3,1.8,3.6c0,2.7-1.8,4.3-4.6,4.3
						c-0.9,0-1.7-0.2-2.3-0.4c0.6,0.3,1.4,0.5,2.3,0.5c3,0,4.8-1.6,4.8-4.4C184.6,34.2,184,32.9,183,32z"/>
				</g>
			</g>
			<g>
				<g>
					<path d="M60.5,41.9c0.8,0,1.1-0.1,1.1-0.1c-0.5-0.4-1-0.8-1.4-1.3l-4-6.4h0.1c0.6-0.3,1.1-0.7,1.6-1.1c0.7-1,1-2.3,0.4-3.3
						c-0.6-1.1-2.3-1.9-3.5-1.9c-5.4,0-5.4,0-5.3,0c0.3,0.3,0.6,0.6,0.6,1v8.7c0,0.5-0.2,0.8-0.6,1.3c0.6,0,3.6,0,4,0
						c-0.2-0.2-0.5-0.4-0.5-0.9v-3.5c0,0,0.3,0,0.4,0c0.1,0,0.2,0,0.3,0.1l3.8,6.4c0.5,0.9,1.6,1.1,2.7,1.1h0.3V41.9z M55.5,32.2
						c-0.5,0.6-1.2,0.9-2.1,0.9l0,0H53c0,0,0-3.5,0-4.1h0.3c0.9,0,1.8,0.4,2.2,1C56,30.6,56,31.6,55.5,32.2"/>
					<path d="M11.9,39.3c0.1,0,0.3-0.2,0.4-0.2c0.3-0.2,0.7-0.5,1-0.8l-1.7-2.5c-1.1,0.7-2.3,1.3-3.8,1.2c-1.3-0.1-2.6-1-3.1-2.2
						l-0.2-0.4c-0.2-0.5-0.4-1-0.5-1.3c-0.8-3.4,0-7,2-9.6c0.9-1,2-1.9,3.4-1.8c0.1,0,0.2,0,0.4,0c0.6,0.1,1.1,0.5,1.4,1
						c-0.5,0.4-1,0.9-1.2,1.5s-0.1,1.2,0.3,1.7c0.3,0.3,0.9,0.4,1.4,0.4c0.5-0.1,0.9-0.4,1.1-0.8c0.2-0.5,0.1-1.1-0.2-1.5l-0.3-0.4
						c0.7-0.9,1.5-1.5,2.2-2.2c-0.1,0-0.3,0-0.4,0h-0.7c-0.2,0-0.4,0-0.6-0.1c-0.6-0.5-1.3-1-2.1-1.3c-0.6-0.2-1.2-0.3-1.8-0.3
						c-2.2,0-4.1,1.3-5.7,2.9C1.1,25,0.1,28,0,31.2l0,0c0,0-0.2,7.7,5.5,9.1C8.1,40.9,10.5,40.1,11.9,39.3"/>
					<path d="M19.2,27.2c-2.8,0-5,2.7-5,6s2.2,6,5,6s5-2.7,5-6S21.9,27.2,19.2,27.2 M19.2,37.9c-1.3,0-2.3-2.1-2.3-4.7
						s1-4.6,2.3-4.6s2.3,2.1,2.3,4.6C21.5,35.8,20.5,37.9,19.2,37.9"/>
					<path d="M42.7,27.2c-2.8,0-5,2.7-5,6s2.2,6,5,6s5-2.7,5-6S45.5,27.2,42.7,27.2 M42.7,37.9c-1.3,0-2.3-2.1-2.3-4.7
						s1-4.6,2.3-4.6s2.3,2.1,2.3,4.6C45,35.8,44,37.9,42.7,37.9"/>
					<path d="M77,38.6c-0.3-0.3-0.5-0.6-0.6-1c0-0.1,0-0.2,0-0.2v-8.1c-0.1-0.6,0.1-1.1,0.4-1.6h-3.9c0.2,0.4,0.5,0.7,0.6,1.2v4.8
						l0,0v3.8c0,0.5-0.3,0.8-0.5,1.2C73,38.6,77,38.6,77,38.6"/>
					<path d="M68.3,28.7v5.7l0,0l-4.4-6.6H61c0,0,0.1,0.1,0.2,0.1c0.3,0.3,0.5,0.7,0.5,1.1v8.9c0,0.3-0.3,0.8-0.3,0.8h2.5
						c-0.3-0.2-0.5-0.5-0.5-0.9v-5.3l0,0l2.8,4.2l1.4,2h2.2v-9.5v-0.6l0,0c0-0.2,0.1-0.4,0.2-0.6c0.1-0.1,0.1-0.2,0.3-0.3h-2.6
						C68.1,27.9,68.3,28.3,68.3,28.7"/>
					<path d="M33.7,29c-1.3-1.2-3.1-1.3-5-1.3h-0.4l0,0c-2.4,0-2.4,0-2.3,0c0.2,0.3,0.6,0.6,0.6,1v8.7c0,0.5-0.2,0.8-0.5,1.3
						c0.2,0,0.8,0,1.4,0l0,0h3.8l0,0c1.9-0.2,3.4-1.7,4-3.1C36,33.4,35.6,30.6,33.7,29 M32.1,36c-0.4,0.7-1.2,1.2-2.1,1.3h-0.6v-8.1
						h0.3c0.9,0,1.9,0.3,2.3,1.1C33,31.9,33,34.3,32.1,36 M74,27c0.4,0,0.8,0,1.2-0.1c0.9-0.2,1.8-0.9,2.1-1.6h-2.1
						C74.9,25.8,74.5,26.5,74,27 M88.5,35.9v-7.1c0-0.4,0.2-0.7,0.4-1h-2.2c0.3,0.3,0.4,0.7,0.5,1.1V36c0,0.4-0.4,0.8-0.8,1
						c-0.7,0.4-1.5,0.6-2.3,0.3C83.5,37,83,36.5,83,35.9v-7.4c0.1-0.3,0.2-0.6,0.4-0.8h-3.9c0.2,0.3,0.6,0.6,0.6,1v7.1
						c0,0.5-0.1,0.9-0.4,1.3c1.2,0.6,2,1.8,3.4,2c1.5,0.4,2.9-0.1,3.9-1c0.6-0.5,1.3-0.8,2.1-1.2C88.8,36.7,88.6,36.3,88.5,35.9"/>
				</g>
				<g>
					<g>
						<path d="M12.6,23.5c0.4,0.3,0.6,0.7,0.6,1.2s-0.2,1-0.7,1.3c-0.2,0.2-0.6,0.3-0.7,0.4c0.2,0,0.4,0,0.7-0.1c0.7-0.3,1-1,1-1.7
							c-0.1-0.5-0.3-0.8-0.5-1.1c0.5-0.6,1.2-1.1,1.9-1.7h-0.1c-0.1,0-0.1,0-0.2,0C13.8,22.3,13.1,22.8,12.6,23.5"/>
						<path d="M8.9,22.4c0.3-0.1,0.6-0.1,0.9-0.1c0.2,0,0.4,0,0.6,0.1c-0.1-0.1-0.3-0.1-0.4-0.1c-0.1,0-0.2,0-0.3,0
							c-1.3,0-2.2,0.8-3,1.7c-1.9,2.3-2.7,5.5-2.1,8.5c0,0.3,0.2,0.9,0.2,0.9l0,0c0.1,0.4,0.3,0.8,0.5,1.2c0.5,1,1.2,2,2.5,2.1
							c0.1,0,0.2,0,0.3,0c0.1,0,0.3,0,0.4-0.1c-0.2,0-0.4,0-0.6,0c-0.3,0-0.5-0.1-0.8-0.3l0,0C6,35.5,5.3,34.3,5,33
							c0,0-0.1-0.4-0.1-0.5c-0.3-1.9-0.1-4,0.5-5.7C6,24.9,7,23.2,8.9,22.4"/>
						<path d="M12.6,36c0.5,0.8,1,1.6,1.5,2.4c-1.8,1.4-3.8,2.4-6.2,2.5H7.3V41c1.5,0.1,3-0.1,4.2-0.7c1-0.5,2-1,2.9-1.8L12.8,36
							H12.6z"/>
						<path d="M77.9,25.6c-0.5,0.6-1.2,1.2-2,1.4l0,0c0.9-0.1,1.9-0.7,2.3-1.5h-0.3V25.6z"/>
						<path d="M67.8,32l-2.5-3.7c0,0-0.1,0-0.2,0c-0.1,0-0.1,0-0.1,0.1l2.8,4.1V32z"/>
						<path d="M53.7,32.6c0.1,0,0.2,0,0.3,0v-2.9c-0.1,0-0.2,0-0.3-0.1V32.6z"/>
						<path d="M42.7,29.1c-0.1,0-0.2,0-0.3,0.1c-1.7,2.3-1.6,5.8,0.1,8.1c0.1,0,0.2,0.1,0.3,0.1l0,0l-0.6-1c-1-1.9-1-4.7,0.1-6.6
							C42.4,29.5,42.5,29.3,42.7,29.1"/>
						<path d="M30.1,36.7c0.1,0,0.2,0,0.2,0v-6.9c-0.1,0-0.2,0-0.2,0V36.7z"/>
						<path d="M47.4,29.5c0.7,1,1.1,2.4,1.1,3.8c0,3.4-2.3,6.2-5.2,6.2c-0.3,0-0.6,0-0.9-0.1c0.4,0.1,0.8,0.2,1.1,0.2
							c2.9,0,5.2-2.7,5.2-6C48.8,32,48.2,30.6,47.4,29.5"/>
						<path d="M19.1,29.1c-0.1,0-0.2,0-0.3,0.1c-1.7,2.3-1.6,5.8,0.1,8.1c0.1,0,0.2,0.1,0.3,0.1l0,0l-0.6-1c-1-1.9-1-4.7,0.1-6.6
							C18.8,29.5,19,29.3,19.1,29.1"/>
						<path d="M23.9,29.5c0.7,1,1.1,2.4,1.1,3.8c0,3.4-2.3,6.2-5.2,6.2c-0.3,0-0.6,0-0.9-0.1c0.4,0.1,0.8,0.2,1.1,0.2
							c2.9,0,5.2-2.7,5.2-6C25.2,32,24.7,30.6,23.9,29.5"/>
						<path d="M65.1,39.1H62l-0.2,0.2H66l-0.3-0.1c-0.7-0.3-1.4-1-1.4-1.5v-2.9L64,34.4v3.2C64.1,38.4,64.6,38.8,65.1,39.1"/>
						<path d="M53.9,37.8V36l-0.2-0.4v1.9c0,0.7,0.1,1.2,0.8,1.7c-0.3,0-3.5,0-4.4,0l-0.2,0.2h5.4C54.6,39.1,53.9,38.4,53.9,37.8
							 M61.1,40.2c-0.7-1-3.5-5.8-3.5-5.9l0,0c1.1-0.7,1.9-1.8,2-3.2c0-0.7-0.4-1.4-0.5-1.6l0,0l0,0c0.2,0.2,0.3,0.8,0.3,1.3
							c0.1,1.6-0.8,2.7-2,3.5l0,0l0,0l0,0l3.2,5.3c0.5,1,1.4,1.8,2.5,2.4h0.1c-0.7,0.2-1.6,0.3-2.4,0.4h-0.5c-0.5,0-1-0.1-1.4-0.1
							c0.7,0.2,1.5,0.3,2.3,0.3c0.9-0.1,1.8-0.2,2.6-0.5C62.6,41.6,61.8,41,61.1,40.2"/>
						<path d="M70.8,28.3c-0.1,0.1-0.2,0.2-0.2,0.4v10.5h-2.1l0.2,0.2h2.2V28.7c0-0.1,0.1-0.3,0.2-0.4l0,0H70.8z"/>
						<path d="M79.2,39.3c-0.8-0.2-1.7-0.9-1.7-1.6v-9c0-0.1,0.1-0.3,0.2-0.4l0,0h-0.2c-0.1,0.1-0.2,0.2-0.2,0.4c0,0,0,6.1,0,8.9
							c0,0.7,0.4,1.1,0.9,1.5h0.1h-4.7l-0.2,0.2h6H79.2z"/>
						<path d="M84.1,28.3L84.1,28.3h-0.2c-0.1,0.1-0.2,0.2-0.2,0.4v7.7c0.1,0.1,0.1,0.2,0.2,0.3v-7.9C84,28.5,84,28.4,84.1,28.3
							 M36.3,33.4L36.3,33.4L36.3,33.4c0,0.1,0,0.3,0,0.4c-0.1,2.1-1.4,4.1-3.6,5c-0.5,0.2-1.5,0.3-2.4,0.4l0,0h-3.9l-0.2,0.2h4.2
							l0,0c2.4,0.1,4.4-1.3,5.4-3c0.5-0.9,0.8-1.9,0.8-3l0,0c-0.1-1.5-0.6-2.8-1.3-3.8C35.9,30.6,36.3,31.9,36.3,33.4"/>
						<path d="M89.5,35.9v-7.3c0-0.1,0.1-0.3,0.2-0.3l0,0h-0.2c-0.1,0.1-0.2,0.2-0.2,0.4v7c0,0.6-0.1,0.9,0.8,1.8l0,0H90
							c-2,0.2-3.1,1.8-4.9,2.2c-0.3,0.1-0.6,0.1-0.8,0.2c0.8,0.1,1.6-0.2,2.3-0.5c1.2-0.8,2.5-1.7,4.1-1.7h0.2l-0.1-0.1
							C90.3,37.3,89.6,36.7,89.5,35.9"/>
					</g>
				</g>
			</g>
		</g>
	</g>
</g>
</svg>
