<?xml version="1.0" encoding="utf-8"?>
<!-- Generator: Adobe Illustrator 21.1.0, SVG Export Plug-In . SVG Version: 6.00 Build 0)  -->
<svg version="1.1" id="Layer_1" xmlns="http://www.w3.org/2000/svg" xmlns:xlink="http://www.w3.org/1999/xlink" x="0px" y="0px"
	 viewBox="0 0 352.6 139.7" style="enable-background:new 0 0 352.6 139.7;" xml:space="preserve">
<style type="text/css">
	.st0{fill:url(#SVGID_1_);}
</style>
<linearGradient id="SVGID_1_" gradientUnits="userSpaceOnUse" x1="0" y1="70.0014" x2="352.6352" y2="70.0014" gradientTransform="matrix(1 0 0 -1 0 139.8329)">
	<stop  offset="5.618000e-03" style="stop-color:#A38A51"/>
	<stop  offset="0.1037" style="stop-color:#A58C53"/>
	<stop  offset="0.1627" style="stop-color:#AC935C"/>
	<stop  offset="0.2113" style="stop-color:#B99F6A"/>
	<stop  offset="0.2541" style="stop-color:#CAB27E"/>
	<stop  offset="0.2637" style="stop-color:#D0B784"/>
	<stop  offset="0.5" style="stop-color:#F9EEC7"/>
	<stop  offset="0.7363" style="stop-color:#D0B784"/>
	<stop  offset="0.7459" style="stop-color:#CAB27E"/>
	<stop  offset="0.7887" style="stop-color:#B99F6A"/>
	<stop  offset="0.8373" style="stop-color:#AC935C"/>
	<stop  offset="0.8963" style="stop-color:#A58C53"/>
	<stop  offset="0.9944" style="stop-color:#A38A51"/>
</linearGradient>
<path class="st0" d="M80.1,120.7c1.3,1.7,0.8,4.1-1,5.5c-1.8,1.3-4.3,1.1-5.6-0.6c-1.2-1.7-0.8-4.1,1-5.5
	C76.4,118.8,78.9,119,80.1,120.7z M96.4,94.1c2.2-1.7,2.8-4.7,1.3-6.8c-1.5-2.1-4.6-2.4-6.9-0.8c-2.2,1.7-2.8,4.7-1.3,6.8
	C91.1,95.4,94.2,95.8,96.4,94.1z M68.3,130.7c-2.3,1.7-2.9,4.9-1.3,7.1s4.8,2.5,7.1,0.8c2.3-1.7,2.9-4.9,1.3-7.1
	S70.6,129,68.3,130.7z M120.8,118.7c-0.6-0.4-2.9-1.5-2.9-2.3s1.6-2,1.9-3.1c0.3-1.1,1.3-3.7,1.6-4.1c0.3-0.5,0.1-1.7-1.5-1.1
	c-1,0.2,1-1-0.2-4.6c0,0-0.5-1.6-1.3-2.5c0,0,0.5-2.6-0.8-3c-1.4-0.4-3.3,3.5-3.8,6s-1.9-0.5-2-1.1s-0.8-1.9-2.1-2.3
	s-0.2-1.7-2.7-2.2s0.2,4.3-2.6,2.9S98.9,100,99,101s-1.5-0.1-2.1-0.3c-0.7-0.1-2,0.4-3.4-0.2s-3.2-0.1-3.5,0.5s0.5,1.9,2.4,2.9
	c0,0-0.4,1,1.5,1.8c1.6,0.7-1.2,0.8,2.1,2.1c3.3,1.3,1.5,1.4,3.4,2s4,1.9,3.6,2.5c-0.4,0.5-0.9,0.9-2.4,0.3c-1.5-0.7-3.1-0.5-4-0.6
	c0,0-0.8-0.1-0.9,0.2c0,0-0.2,0.2-0.6,0.1c-0.4-0.2-1.3-0.3-2.3-0.1c-1,0.2-1.5,0.6-1.3,1.4c0.2,0.7,0.7,1.2,1,1.4
	c0.3,0.2-0.9,0.6-2.9,0.8c-2,0.1-2.4,0.9-2.3,1.3s1.4,0.6,0.2,1.2c-1.2,0.6-6.1,4.2-1.9,4.2c4.3-0.1,4.2,0.7,4.2,0.9
	c0,0-0.2,1.3,2,1c2.1-0.2,3.8-0.9,4-0.8c0.2,0.2-0.9,1.3-0.5,1.6c0.4,0.4,0.1,0.3-0.1,0.8c-0.2,0.5,0.7,0.6,1.8,0.4s2.6-0.8,3.5-1.8
	c0.2-0.4,1.3-0.3,2.2-1.1c1.9-2.1,5.5-2.2,3.2-0.3c0,0-3.6,2.6-3.7,3.4c-0.1,0.8,0.8,1,0.8,1s0.1,0.1-0.3,0.4
	c-0.4,0.3-2.4,2.2-2.4,2.7c0,0.4,1.1,0.7,0.8,1s-1.6,1.1-0.5,1.7c0.9,0.4,0.3,0.6-0.3,1.5c-0.7,1.4,0.1,2.6,2.8,0.9
	c0,0,0.4-0.2,0.9-0.2c0.5,0.1,1.1-0.1,1.4-0.5c0.3-0.4,0.5-0.9,1.4-1s1.5-0.6,2.2-1.4c0.3-0.4,0.5,0.3,0.7,0.5
	c0.2,0.3,1.2,1.3,2.3,0.3c0,0,1.5-1.6,1.8-2.8c0.2-1.3,0.7-2,1-2.7c0.3-0.6,0.6,0.1,0.9,0.6c0.3,0.5,1.1,0.8,0.8,2.4
	c-0.2,1.6,1.4,1.3,2.1,0.5c0,0,0.9-1.2,1.3-1.5c0.3-0.3,1.1-1.6,1.1-3c0-1.4,0.2-1.9,0.1-2.4c-0.1-0.5-0.5-1.3-0.1-1.3
	s1.3,0.7,1.8-0.3s-0.1-1.5-0.3-2C122.2,120.5,121.4,119.1,120.8,118.7z M112.9,95.2c2.3-1.7,2.9-4.9,1.3-7.1
	c-1.6-2.2-4.8-2.5-7.1-0.8s-2.9,4.9-1.3,7.1C107.4,96.6,110.6,97,112.9,95.2z M83.1,128.3c-2.3,1.7-2.9,4.9-1.3,7.1s4.8,2.5,7.1,0.8
	c2.3-1.7,2.9-4.9,1.3-7.1C88.7,126.9,85.5,126.6,83.1,128.3z M119.8,79.9c-2.2,1.7-2.8,4.7-1.3,6.8c1.5,2.1,4.6,2.4,6.9,0.8
	c2.2-1.7,2.8-4.7,1.3-6.8C125.1,78.5,122,78.2,119.8,79.9z M121.9,94.2c-1.8,1.3-2.3,3.8-1,5.5s3.7,2,5.6,0.6c1.8-1.3,2.3-3.8,1-5.5
	C126.3,93.1,123.8,92.8,121.9,94.2z M77.2,103c1.6,2.1,4.8,2.5,7.1,0.8c2.3-1.7,2.9-4.8,1.3-7s-4.8-2.5-7.1-0.8
	C76.2,97.7,75.6,100.9,77.2,103z M67.3,85.1c-1.8,1.3-2.3,3.8-1,5.5s3.7,2,5.6,0.6c1.8-1.3,2.3-3.8,1-5.5
	C71.6,84.1,69.1,83.8,67.3,85.1z M83.7,90.5c1.2-0.9,1.6-2.6,0.7-3.7c-0.9-1.2-2.6-1.3-3.8-0.4c-1.2,0.9-1.6,2.6-0.7,3.8
	C80.7,91.3,82.4,91.5,83.7,90.5z M104.7,84.2c1.3-1,1.6-2.7,0.7-3.9c-0.9-1.2-2.7-1.4-4-0.4s-1.6,2.7-0.7,3.9
	C101.7,85,103.5,85.2,104.7,84.2z M67.3,19.1c0.4,1.6,2.2,2.5,3.9,2c1.7-0.5,2.7-2.1,2.3-3.7c-0.4-1.6-2.2-2.5-3.9-2
	S66.9,17.5,67.3,19.1z M79.3,18.7c-1.2,0.3-1.9,1.5-1.6,2.6s1.5,1.7,2.7,1.4c1.2-0.3,1.9-1.5,1.6-2.6S80.5,18.4,79.3,18.7z
	 M74.1,25.5c-1.2,0.3-1.9,1.5-1.6,2.6s1.5,1.7,2.7,1.4c1.2-0.3,1.9-1.5,1.6-2.6C76.5,25.8,75.3,25.2,74.1,25.5z M85.1,29.9
	c1.2-0.3,1.9-1.5,1.6-2.6s-1.5-1.7-2.7-1.4c-1.2,0.3-1.9,1.5-1.6,2.6C82.7,29.6,83.9,30.3,85.1,29.9z M78.7,15.1
	c2.2-0.6,3.5-2.8,2.9-4.8s-2.8-3.2-5-2.6s-3.5,2.8-2.9,4.8C74.3,14.6,76.5,15.7,78.7,15.1z M63.4,28.8c2.2-0.6,3.5-2.8,2.9-4.8
	s-2.8-3.2-5-2.6s-3.5,2.8-2.9,4.8C59,28.2,61.2,29.4,63.4,28.8z M37.1,35.1c2.2-0.6,3.5-2.8,2.9-4.8s-2.8-3.2-5-2.6
	s-3.5,2.8-2.9,4.8C32.7,34.6,34.9,35.7,37.1,35.1z M67.2,12.7c2.2-0.6,3.5-2.8,2.9-4.8s-2.8-3.2-5-2.6c-2.2,0.6-3.5,2.8-2.9,4.8
	C62.8,12.2,65,13.4,67.2,12.7z M22.2,35.5c0.5,2,2.7,3.1,4.8,2.5c2.1-0.6,3.4-2.6,2.8-4.6c-0.5-2-2.7-3.1-4.8-2.5
	C22.9,31.5,21.7,33.5,22.2,35.5z M29.4,26.9c1.7-0.5,2.7-2.1,2.3-3.7c-0.4-1.6-2.2-2.5-3.9-2c-1.7,0.5-2.7,2.1-2.3,3.7
	C25.9,26.5,27.7,27.4,29.4,26.9z M9.7,41.7c-8.9,1.7-11.6-7.3-8.5-12.2c2.2-3.6,12.3-8.4,16.2,4.1c2.2-3.2,4-7.3,5-11.7
	C25.2,9.7,38,11.5,38.2,11.5c0.3-0.2,0.6-0.4,0.7-0.6c0.2-0.6-1.1-1.9-1.4-2.4c-0.3-0.4-0.5-1.6-0.5-2S36.7,5.6,37.3,5
	c0.6-0.6,1.1,0.1,1.3,0.3c0.3,0.1,0.2-0.5,0.3-0.9C39,4,39.2,3.7,39.6,2.7c0.4-1,1.2-1.7,1.5-1.8c0.3-0.1,1.3-0.7,1.3-0.7
	c0.7-0.4,1.9-0.1,1.3,0.9s-0.1,1.4,0,1.8c0,0.4,0,1,0.4,0.7C44.5,3.2,45,2.8,45.5,2c0.5-0.8,2-1.5,2-1.5c1-0.4,1.4,0.6,1.5,0.8
	c0.1,0.2,0,0.7,0.4,0.5c0.7-0.4,1.2-0.6,1.9-0.4c0.6,0.2,0.9-0.1,1.2-0.3c0.3-0.2,0.8-0.1,1.1,0c0.3,0.2,0.6,0.1,0.6,0.1
	c2.3-0.5,2.6,0.6,1.7,1.3c-0.6,0.5-1.1,0.4-0.6,1c0.6,0.7-0.5,0.9-0.8,1s0.4,0.6,0.3,0.9s-2,1.1-2.4,1.2s-0.3,0.2-0.3,0.2
	s0.6,0.4,0.3,0.9C52.1,8.2,49,9,49,9c-2.1,0.8,0.4,1.6,2.3,0.7c0.8-0.3,1.6,0,1.8-0.2C54,9.1,55.2,9,56,9.2s1.4,0.5,1.1,0.8
	s-0.5,0.2-0.3,0.5c0.2,0.4-0.8,0.8-0.7,1c0.1,0.2,1.4,0.1,2.9,0.5s1.1,1.2,1.1,1.2c0,0.2-0.3,0.6,2.7,1.7c2.9,1.1-1.4,2.3-2.4,2.4
	s-0.1,0.6-0.2,0.9s-0.5,0.7-1.9,0.3c-1.4-0.4-2.3-0.4-2.2-0.2c0.1,0.2,0.4,0.6,0.3,1.2c-0.1,0.5-0.5,0.7-1.2,0.6s-1.3-0.4-1.6-0.6
	c-0.2-0.2-0.4-0.1-0.4-0.1c-0.2,0.1-0.7-0.1-0.7-0.1c-0.6-0.3-1.7-0.6-2.6-1.5c-0.8-0.8-1.3-0.7-1.7-0.4c-0.4,0.3,0.7,1.7,1.8,2.6
	c1.1,0.9-0.1,0.5,1.8,2.3s0,1.2,0.9,2c1.1,1.1,0.6,1.6,0.6,1.6c1,1.2,1.3,2.3,0.9,2.7c-0.4,0.3-1.7,0.2-2.5-0.6
	c-0.8-0.8-1.9-0.7-2.3-1s-1.2-1.5-1.4-0.7c-0.2,0.7-2.1,0.1-3.7-1.6C42.8,23,43.4,27,41.7,26c-1.6-1-0.5-1.6-1.3-2.3
	c-0.8-0.6-0.9-1.7-0.8-2.1c0.1-0.5-0.1-2.9-1.1-1.3s-3.4,3.8-4.2,3.1c-0.8-0.6,0.2-2.3,0.2-2.3c-0.3-0.8-0.2-2.1-0.2-2.1
	c0.1-2.8,1.8-3.1,1-3.2c-1.3,0-1.1-0.9-0.8-1.2c0.3-0.2,1.7-1.7,2.2-2.4c0.3-0.4,0.9-0.7,1.4-1.1c-0.2,0-11.1,0.2-13.2,7.8
	c-1.4,4.8-3.4,11.6-6.9,16.5c0.1,0.4,0.2,0.9,0.3,1.4c0.6,3.4,0.1,6.6-0.9,9.5L15.6,46c0.8-2.5,1.2-5.4,0.8-8.7
	C14.6,39.6,12.4,41.1,9.7,41.7z M16,35.3c-0.1-0.3-0.1-0.6-0.2-0.9c-4.6-15.2-20.7-2.7-11.1,4.3C8.3,41.4,12.5,39.6,16,35.3z
	 M88,14.7c9.7,3.1,18.3,8.9,25,16.6c6.8,7.8,11.2,17.2,12.9,27.4c0.2,1.1,1.2,1.9,2.2,1.9c0.1,0,0.3,0,0.4,0
	c1.2-0.2,2.1-1.4,1.9-2.6c-1.8-10.9-6.6-21.2-13.9-29.6c-7.2-8.3-16.6-14.6-27-17.9c-1.2-0.4-2.5,0.3-2.9,1.5S86.8,14.3,88,14.7z
	 M59.9,122.8c-26.2-5.1-45.2-28.2-45.2-54.9c0-4.5,0.5-9,1.6-13.4c0.3-1.2-0.4-2.5-1.7-2.8c-1.2-0.3-2.5,0.4-2.8,1.7
	c-1.2,4.7-1.7,9.6-1.7,14.5c0,28.9,20.6,53.9,48.9,59.4c0.1,0,0.3,0,0.4,0c1.1,0,2-0.8,2.2-1.8C62,124.2,61.2,123,59.9,122.8z
	 M57.7,48.1c0-2.6,0.8-4.7,2.3-6.2s3.5-2.3,5.7-2.3c2.3,0,4.3,0.8,5.8,2.4s2.3,3.6,2.3,6.1v8.1c0,0.3-0.1,0.6-0.2,0.8
	c-0.2,0.6-1,0.7-1.6,0.7h-9c0,0,0,0-0.1,0.1s-0.1,0.3-0.1,0.6v4.9c0,1.2,0.3,2.1,0.8,2.7c0.5,0.6,1.2,0.9,2.1,0.9s1.6-0.3,2.1-0.9
	s0.8-1.5,0.8-2.7c0-0.2,0.1-0.6,0.7-0.7c0.2,0,0.6-0.1,2-0.1c1.2,0,1.6,0.1,1.8,0.1c0.4,0.1,0.7,0.5,0.7,0.9c0,3.1-0.8,5.3-2.3,6.7
	c-1.5,1.3-3.5,2-5.8,2c-2.3,0-4.2-0.8-5.8-2.3c-1.5-1.5-2.3-3.7-2.3-6.4V48.1H57.7z M62.9,52.3c0,0.3,0.1,0.3,0.2,0.4
	c0.4,0.1,1.2,0.1,2.5,0.1c1.4,0,2.3,0,2.8-0.1c0.2,0,0.3-0.1,0.3-0.4v-4.2c0-0.9-0.3-1.7-0.8-2.4c-0.5-0.7-1.2-1-2-1
	c-0.9,0-1.6,0.3-2.1,1.1c-0.6,0.7-0.8,1.5-0.8,2.4v4.1H62.9z M38.5,103.1h19.8c0.7,0,1.1-1.1,1.1-3.3c0-1.3,0-2.2-0.1-2.7
	s-0.3-0.7-0.8-0.7h-4.7c-0.2,0-0.5,0-0.8-0.1c-0.4,0-0.6-0.2-0.8-0.4c-0.1-0.2-0.2-0.6-0.2-1.1s0-1.1,0-1.6V36.4
	c0-0.5,0-1.2-0.1-1.9c0-0.7-0.4-1.1-1.1-1.1c-1,0-1.9,0-2.6,0.1s-1.7,0.3-3,0.7c-0.2,0.1-0.4,0.3-0.6,0.7c-0.2,0.4-0.4,0.9-0.6,1.4
	c-0.2,0.6-0.5,1.1-0.8,1.6s-0.6,1-1,1.3c-0.9,0.7-1.7,1.5-2.6,2.2s-1.3,1.4-1.4,1.9c-0.2,1.1-0.2,1.9-0.1,2.5s0.2,1.4,0.3,2.4
	c0.1,0.4,0.2,0.6,0.4,0.6c0.2,0,0.5,0,0.7-0.2c0.3-0.2,0.5-0.4,0.8-0.6c0.3-0.3,0.5-0.5,0.7-0.7c0.5-0.3,1.2-0.8,2-1.5s1.5-1,2-1
	c0.3,0,0.4,0.3,0.4,0.9s0,1.1,0,1.5v46c0,0.6,0,1.2-0.1,1.8c0,0.6-0.2,1-0.4,1.1c-0.3,0.1-0.5,0.2-0.8,0.2s-0.6,0-0.9,0h-4.4
	c-0.7,0-1.2,0.3-1.3,0.8c-0.2,0.5-0.2,1.5-0.2,2.8c0,1.2,0.1,2,0.2,2.5C37.4,102.9,37.8,103.1,38.5,103.1z M85.3,39.6
	c-0.8,0-1.7,0.3-2.8,0.8c-0.8,0.4-1.4,0.9-1.8,1.4c0-0.1,0-0.2,0-0.3c0-0.3,0-0.6,0-0.9c0-0.5-0.3-0.8-0.8-0.9c-0.3,0-0.8,0-1.6,0
	c-0.9,0-1.5,0-1.8,0.1c-0.6,0.1-0.8,0.5-0.8,0.9V71c0,0.5,0.3,0.9,0.8,1c0.3,0.1,0.9,0.1,1.6,0.1c0.9,0,1.5,0,1.9-0.1
	c0.6-0.1,0.9-0.5,0.9-1.1V48.4c0-0.5,0.1-1,0.4-1.4c0.3-0.5,0.7-0.9,1.1-1.2c0.4-0.3,0.9-0.6,1.5-0.8c0.5-0.2,1-0.3,1.4-0.3
	c0.7,0,0.9-0.9,0.9-2.6c0-0.8,0-1.4,0-1.8C86,39.7,85.5,39.6,85.3,39.6z M98.7,72.1c-0.5-0.1-0.8-0.4-0.8-1c0-0.1,0-0.3,0-0.4
	c-0.1,0.1-0.2,0.3-0.3,0.4c-0.2,0.3-0.6,0.5-1,0.7s-1,0.3-1.7,0.3c-2.3,0-4.3-0.8-5.8-2.2c-1.5-1.5-2.3-3.7-2.3-6.4V48.1
	c0-2.6,0.8-4.7,2.4-6.2s3.5-2.3,5.8-2.3c0.4,0,0.8,0,1.3,0.1s1.1,0.4,1.6,0.9c0-0.1,0-0.2,0-0.3c0-0.4,0.2-0.8,0.8-0.8
	c0.3,0,0.8,0,1.6,0c1.4,0,1.8,0.1,2,0.2s0.7,0.4,0.7,1.1V71c0,0.8-0.4,1-0.7,1.1c-0.2,0.1-0.6,0.1-1.9,0.1
	C99.5,72.2,99,72.2,98.7,72.1z M97.7,48.1c0-0.8-0.3-1.6-0.8-2.4c-0.5-0.7-1.2-1.1-2-1.1c-0.9,0-1.5,0.4-2.1,1.1
	c-0.6,0.8-0.8,1.6-0.8,2.4v15.2c0,1.3,0.3,2.2,0.8,2.7s1.2,0.8,2.1,0.8c0.9,0,1.6-0.3,2.1-0.9s0.8-1.5,0.8-2.7L97.7,48.1L97.7,48.1z
	 M90.3,80.1c0.2-0.2,0.3-0.5,0.1-0.7c-0.2-0.4-0.2-0.7-0.3-1c0-0.3-0.1-0.7-0.1-1s-0.5-0.6-1.5-0.8c-1-0.2-2.2-0.3-3.7-0.2
	c-1.9,0-3.5,0.1-4.8,0c-1.3,0-3,0-4.9,0c-1.3,0-2.2,0.1-2.8,0.2c-0.6,0.1-0.8,0.4-0.7,0.8c0.1,0.4,0.1,0.7,0.2,1
	c0,0.2,0,0.5-0.2,0.9c-0.2,0.5,0.2,0.8,1,1s1.3,0.3,1.6,0.3c1.6,0,2.8,0,3.8,0c0.9,0,1.8,0,2.7,0c0.9,0,1.8,0,2.9,0s2.6,0,4.6,0
	C89.4,80.4,90.1,80.3,90.3,80.1z M33.6,42.3c-0.8-0.5-1.9-0.3-2.4,0.5c-4.9,7.6-7.5,16.5-7.5,25.6c0,8.6,2.3,17.1,6.8,24.4
	c0.3,0.6,0.9,0.9,1.5,0.9c0.3,0,0.6-0.1,0.9-0.3c0.8-0.5,1.1-1.6,0.6-2.4c-4.1-6.8-6.3-14.6-6.3-22.6c0-8.4,2.4-16.6,6.9-23.6
	C34.6,43.9,34.4,42.8,33.6,42.3z M53.5,112.5c5.6,2.2,11.5,3.4,17.6,3.4c5.8,0,11.5-1,17-3.1c0.9-0.3,1.4-1.4,1-2.3
	c-0.3-0.9-1.4-1.4-2.3-1c-5,1.9-10.3,2.9-15.7,2.9c-5.6,0-11.1-1-16.3-3.1c-0.9-0.4-1.9,0.1-2.3,1C52.2,111.1,52.6,112.1,53.5,112.5
	z M116.8,70.2c1,0,1.8-0.8,1.8-1.8c0-9.5-2.8-18.7-8.1-26.5c-0.5-0.8-1.6-1-2.5-0.5c-0.8,0.5-1,1.6-0.5,2.5
	c4.9,7.3,7.5,15.8,7.5,24.6C115,69.4,115.8,70.2,116.8,70.2z M168.8,36.8c0.5,1.5,0.7,2.8,0.7,4v4.9c0,0.6-0.3,0.9-1,1
	s-1.5,0.2-2.5,0.2c-1.1,0-2,0-2.7-0.1s-1-0.4-1-1.1v-5.1c0-0.6-0.1-1.2-0.4-1.9c-0.3-0.7-0.6-1.3-1.1-1.9s-1-1.1-1.7-1.5
	s-1.4-0.6-2.2-0.6c-1.7,0-3,0.6-4,1.9s-1.5,2.6-1.5,3.8v28c2.5,2.6,3.8,6.5,3.1,9.9c-1,5.4-10.9,15.6-21.3,2.4
	c-1.2,4.8-1.4,10.5-0.6,16.3c2.3,15.9-14.2,19.6-14.2,19.6s13.2-5.2,12.3-15.3c-0.5-6.3-1.2-15.4,0.7-22.9c-0.3-0.5-0.6-1-0.9-1.5
	c-2.2-3.8-3.2-7.9-3.3-11.8l2.3-0.4c0.2,3.4,1,7.1,3,10.7c1.3-3.3,3.3-6.1,6.2-7.9c2-1.2,3.9-1.8,5.6-1.9V40.7
	c0-1.4,0.2-2.9,0.8-4.4c0.5-1.5,1.3-2.9,2.3-4.1c1-1.2,2.4-2.2,4-3s3.4-1.2,5.5-1.2c2.2,0,4.1,0.5,5.7,1.4c1.6,0.9,2.9,2,3.9,3.4
	C167.6,33.9,168.3,35.3,168.8,36.8z M146,68.7c-5.4-1.5-9.7,2.6-11.9,9.3c0.2,0.3,0.4,0.6,0.6,0.9c3.3,4.3,6.7,5.9,9.7,5.8V70
	c0.5,0,1.1,0.1,1.6,0.3c2.7,0.7,4.4,2.1,5.4,3.7v6C153.5,75.9,152.6,70.5,146,68.7z M196.9,31.6c2.4,2.5,3.6,5.6,3.6,9.5v49
	c0,1.7-0.2,3.4-0.6,5.1c-0.4,1.7-1.1,3.1-2.1,4.3c-1,1.2-2.3,2.2-3.9,3c-1.6,0.8-3.6,1.1-6,1.1c-2.2,0-4.2-0.4-5.7-1.1
	c-1.6-0.8-2.9-1.7-3.9-3c-1-1.2-1.8-2.7-2.2-4.3c-0.5-1.7-0.7-3.4-0.7-5.1v-49c0-4.1,1.2-7.3,3.6-9.7c2.4-2.3,5.4-3.5,8.9-3.5
	C191.5,27.9,194.5,29.1,196.9,31.6z M193.4,41.2c0-1.5-0.5-3-1.5-4.4s-2.3-2.1-3.9-2.1c-1.7,0-3,0.7-4,2.1s-1.5,2.9-1.5,4.4v48.6
	c0,0.8,0.1,1.6,0.2,2.4c0.1,0.8,0.4,1.5,0.8,2.1c0.4,0.6,1,1.1,1.7,1.5s1.7,0.6,3,0.6c2.2,0,3.6-0.7,4.4-2.2
	c0.7-1.4,1.1-2.9,1.1-4.4V41.2H193.4z M168.5,83.5c-0.6,0-1.6,0-2.9,0c-1,0-1.8,0-2.4,0.1c-0.6,0.1-0.9,0.3-0.9,0.8v6.4
	c0,1.4-0.4,2.7-1.2,3.9c-0.8,1.2-2.2,1.7-4.1,1.7c-2,0-3.4-0.6-4.3-1.8c-0.8-1.2-1.2-2.6-1.2-4.1v-5.2c-1.8,1.8-4.2,3.3-7,3.4v2.4
	c0,1.4,0.2,2.9,0.8,4.4c0.5,1.5,1.3,2.8,2.3,4.1c1,1.2,2.4,2.2,4,3s3.4,1.1,5.5,1.1c2.2,0,4.1-0.3,5.7-1c1.6-0.7,2.9-1.6,3.9-2.8
	c1-1.2,1.7-2.5,2.2-4s0.7-3.1,0.7-4.9v-6.6C169.5,83.8,169.2,83.5,168.5,83.5z M320.7,28.2c-0.4-0.1-1.4-0.2-2.9-0.2
	c-1.3,0-2.2,0-2.7,0.1c-0.5,0-0.8,0.6-0.8,1.6V56c0,0.8,0,1.7,0,2.6s-0.3,1.6-0.8,1.9c-0.3,0.1-0.9,0.3-1.7,0.3
	c-0.9,0.1-1.8,0.1-2.8,0.1s-1.9-0.1-2.8-0.2c-0.9-0.1-1.4-0.1-1.6-0.2c-0.8-0.4-1.2-1.1-1.2-2.1c0-0.9-0.1-1.9-0.1-2.8V30
	c0-0.8-0.3-1.3-0.8-1.6c-0.5-0.3-1.5-0.4-3-0.4c-1.4,0-2.3,0.1-2.7,0.4s-0.5,0.8-0.5,1.5V102c0,0.8,0.2,1.2,0.5,1.4
	c0.4,0.1,1.3,0.2,2.7,0.2c1.5,0,2.5-0.1,3-0.2s0.7-0.6,0.7-1.5V72.2c0-0.7,0-1.5,0-2.2c0-0.8,0.3-1.3,0.8-1.7
	c0.1-0.1,0.6-0.1,1.5-0.2s2-0.1,3.1-0.2c1.1,0,2.2,0,3.2,0s1.7,0.1,1.9,0.3c0.4,0.1,0.6,0.6,0.6,1.5c0,0.8,0.1,1.6,0.1,2.2v29.6
	c0,1,0.2,1.6,0.5,1.8c0.4,0.2,1.4,0.3,3,0.3c1.8,0,2.8-0.1,3.1-0.3c0.3-0.2,0.4-0.8,0.4-1.8V29.8C321.3,28.8,321.1,28.3,320.7,28.2z
	 M228.4,72.3c-0.9-1.9-2-3.7-3.2-5.5s-2.4-3.5-3.5-5.1c-2.1-2.9-4-5.6-5.7-8.3c-1.7-2.6-2.6-5-2.6-7.1v-5.9c0-1.4,0.5-2.7,1.5-3.9
	c1-1.2,2.3-1.8,3.8-1.8c1.2,0,2.4,0.5,3.5,1.6c1.1,1,1.6,2.5,1.6,4.3v5.1c0,0.5,0.3,0.8,1,0.9s1.5,0.1,2.5,0.1c1.2,0,2.2,0,2.8-0.1
	c0.7-0.1,1-0.3,1-0.8v-5c0-1.4-0.3-2.8-0.8-4.3s-1.3-2.9-2.3-4.1c-1-1.2-2.3-2.3-3.9-3.1c-1.6-0.8-3.3-1.3-5.4-1.3
	c-2.2,0-4.2,0.4-5.7,1.2c-1.6,0.8-2.9,1.9-3.8,3.1c-1,1.2-1.7,2.6-2.1,4.2c-0.4,1.6-0.7,3-0.7,4.4v5.5c0,1.6,0.3,3.2,0.9,4.9
	c0.6,1.7,1.3,3.3,2.2,5s1.9,3.3,3.1,5c1.2,1.7,2.3,3.3,3.5,4.9c2.2,3,4.1,6,5.9,9c1.8,3,2.7,5.9,2.7,8.8v6.6c0,0.7-0.1,1.3-0.2,2
	c-0.1,0.7-0.4,1.3-0.8,1.9c-0.4,0.6-1,1.1-1.7,1.5s-1.7,0.6-2.8,0.6c-1.9,0-3.3-0.6-4.1-1.8c-0.8-1.2-1.2-2.5-1.2-3.8v-6
	c0-0.6-0.3-0.9-0.9-1c-0.6-0.1-1.5-0.2-2.8-0.2c-1.4,0-2.4,0.1-2.9,0.3c-0.5,0.2-0.7,0.6-0.7,1.1v6.1c0,4.3,1.2,7.4,3.6,9.5
	c2.4,2.1,5.4,3.1,8.9,3.1c1.7,0,3.4-0.3,4.9-0.9s2.9-1.5,4-2.6s2-2.4,2.7-3.9c0.6-1.5,1-3.2,1-5.1V84c0-2-0.3-4-0.9-5.9
	C230.1,76.1,229.4,74.2,228.4,72.3z M287.2,32.6c-1-1.3-2.3-2.4-3.9-3.4c-1.6-0.9-3.5-1.4-5.7-1.4c-2.1,0-3.9,0.4-5.5,1.2
	c-1.6,0.8-2.9,1.8-4,3c-1,1.2-1.8,2.6-2.3,4.1s-0.8,3-0.8,4.4v50.4c0,1.4,0.3,2.9,0.8,4.4s1.3,2.8,2.3,4.1c1,1.2,2.4,2.2,4,3
	s3.4,1.1,5.5,1.1c2.2,0,4.1-0.3,5.7-1c1.6-0.7,2.9-1.6,3.9-2.8c1-1.2,1.7-2.5,2.2-4s0.7-3.1,0.7-4.9v-6.6c0-0.6-0.3-0.9-1-0.9
	s-1.6,0-2.9,0c-1,0-1.8,0-2.4,0.1c-0.6,0.1-0.9,0.3-0.9,0.8v6.4c0,1.4-0.4,2.7-1.2,3.9c-0.8,1.2-2.2,1.7-4.1,1.7
	c-2,0-3.4-0.6-4.3-1.8c-0.8-1.2-1.2-2.6-1.2-4.1v-50c0-1.2,0.5-2.5,1.5-3.8s2.3-1.9,4-1.9c0.8,0,1.5,0.2,2.2,0.6s1.2,0.9,1.7,1.5
	s0.8,1.2,1.1,1.9c0.3,0.7,0.4,1.3,0.4,1.9v5.1c0,0.7,0.3,1,1,1.1s1.6,0.1,2.7,0.1c1,0,1.9-0.1,2.5-0.2c0.7-0.1,1-0.5,1-1v-4.9
	c0-1.2-0.2-2.5-0.7-4C289,35.3,288.2,33.9,287.2,32.6z M351.8,103.5c-0.4,0.1-1.4,0.1-2.8,0.1c-1.6,0-2.6,0-3-0.1
	c-0.4,0-0.7-0.5-0.9-1.2c-0.4-3-0.8-5.9-1.2-8.7c-0.4-2.8-0.8-5.7-1.2-8.7c-0.1-0.6-0.4-0.9-1.1-0.9c-0.6,0-1.4-0.1-2.3-0.1
	c-1,0-1.8,0-2.3,0.1c-0.5,0-0.8,0.3-0.9,0.9c-0.4,3-0.7,5.9-0.9,8.7c-0.3,2.8-0.5,5.8-0.8,8.9c-0.1,0.6-0.4,0.9-1,1
	s-1.8,0.1-3.5,0.1c-0.8,0-1.5,0-2.1-0.1s-0.9-0.4-0.8-0.9c0.9-7,1.7-13.6,2.5-19.9c0.8-6.2,1.6-12.3,2.3-18.2
	c0.8-5.9,1.5-11.7,2.2-17.5s1.5-11.7,2.3-17.8c0.1-0.8,0.4-1.3,0.8-1.4c0.4-0.1,1.2-0.2,2.4-0.2c1.4,0,2.3,0.1,2.8,0.3
	c0.5,0.2,0.8,0.7,0.9,1.7c0.9,6.9,1.8,13.3,2.5,19.1c0.7,5.8,1.4,11.5,2.2,17.1c0.7,5.6,1.4,11.3,2.2,17.2
	c0.7,5.9,1.6,12.4,2.5,19.4C352.4,103.1,352.2,103.5,351.8,103.5z M341.8,77.1c-0.2-2.3-0.4-4.5-0.5-6.4c-0.1-2-0.3-3.9-0.4-5.7
	c-0.1-1.8-0.2-3.7-0.4-5.6c-0.1-1.9-0.3-3.9-0.4-6.1c0-0.2,0-0.5-0.1-0.8s-0.3-0.4-0.7-0.4c-0.3,0-0.5,0.1-0.5,0.4
	c-0.1,0.3-0.1,0.5-0.1,0.6c-0.4,4.5-0.6,8.8-0.9,12.6c-0.2,3.9-0.5,7.6-0.8,11.2c-0.1,0.6,0.7,1,2.4,1c0.6,0,1.2,0,1.7-0.1
	C341.7,77.8,341.9,77.5,341.8,77.1z M244.8,36.6c0-0.7,0-1.2,0.1-1.3c0-0.1,0.2-0.4,0.5-0.8c0.1-0.2,0.5-0.4,1-0.4
	c0.5-0.1,1-0.1,1.5-0.1h10.8c0.7,0,1.1-0.2,1.2-0.7c0.1-0.5,0.2-1.2,0.2-2.2c0-1-0.1-1.8-0.2-2.4c-0.1-0.6-0.5-0.9-1.1-0.9h-18
	c-0.6,0-1,0-1.4,0.1s-0.7,0.3-1.1,0.8c-0.4,0.4-0.6,0.8-0.6,1c-0.1,0.2-0.1,0.7-0.1,1.4v68.4c0,0.6,0,1.3,0,2.1
	c0,0.7,0.2,1.3,0.7,1.6c0.4,0.4,1,0.5,1.8,0.5s1.7-0.1,2.5-0.1h16.2c0.6,0,0.9-0.2,1.1-0.6c0.1-0.4,0.2-1.2,0.2-2.4
	c0-1.2-0.1-2-0.2-2.4c-0.1-0.4-0.5-0.6-1.2-0.6h-10.3c-0.6,0-1.2,0-1.8-0.1s-1.1-0.2-1.4-0.3c-0.3-0.1-0.5-0.6-0.5-1.5
	c0-0.8-0.1-1.6-0.1-2.3V70.1c0-0.7,0-1.3,0-1.8s0.3-0.9,0.8-1.3c0.2-0.1,0.6-0.2,1.1-0.3c0.5,0,1-0.1,1.6-0.1h4.9
	c0.7,0,1.2-0.2,1.3-0.7s0.2-1.2,0.2-2.3c0-1.2-0.1-2-0.3-2.4c-0.2-0.5-0.6-0.7-1.2-0.7h-5.1c-0.4,0-0.8,0-1.2,0s-0.8-0.1-1.1-0.4
	c-0.4-0.4-0.7-0.8-0.7-1.3s0-1,0-1.5V36.6H244.8z M350.5,114.6h-206c-1,0-1.8-0.8-1.8-1.8l0,0c0-1,0.8-1.8,1.8-1.8h206
	c1,0,1.8,0.8,1.8,1.8l0,0C352.3,113.8,351.5,114.6,350.5,114.6z"/>
</svg>
