<?xml version="1.0" encoding="utf-8"?>
<!-- Generator: Adobe Illustrator 21.1.0, SVG Export Plug-In . SVG Version: 6.00 Build 0)  -->
<svg version="1.1" id="Layer_1" xmlns="http://www.w3.org/2000/svg" xmlns:xlink="http://www.w3.org/1999/xlink" x="0px" y="0px"
	 viewBox="0 0 109.4 48" style="enable-background:new 0 0 109.4 48;" xml:space="preserve">
<g id="Layer_1_1_">
</g>
<g id="Isolation_Mode">
	<path d="M9.5,45.6c-0.3,0.5-0.6,0.9-1.1,1.3s-1,0.6-1.6,0.8C6.2,47.9,5.5,48,4.7,48c-0.6,0-1.2,0-1.7-0.1s-0.8-0.2-1.1-0.3
		c-0.3-0.1-0.5-0.2-0.7-0.3c-0.1-0.1-0.2-0.1-0.3-0.1c0,0-0.1,0.1-0.3,0.2c-0.1,0.2-0.2,0.3-0.4,0.5H0.1L0,44h0.2
		c0.1,0.4,0.3,0.7,0.5,1s0.4,0.7,0.6,0.9c0.2,0.3,0.4,0.6,0.7,0.8c0.2,0.2,0.5,0.4,0.7,0.5s0.5,0.2,0.9,0.4c0.4,0.1,0.7,0.2,1.1,0.2
		c1,0,1.8-0.3,2.4-0.8C7.7,46.5,8,45.7,8,44.8c0-0.4-0.1-0.7-0.2-1c-0.1-0.3-0.3-0.5-0.5-0.7s-0.4-0.4-0.7-0.5S6,42.3,5.7,42.2
		c-0.3-0.1-0.6-0.2-0.8-0.3c-0.2-0.1-0.5-0.2-0.7-0.2c-0.2-0.1-0.4-0.1-0.6-0.2c-0.2-0.1-0.5-0.2-0.8-0.3c-0.3-0.1-0.7-0.3-1-0.5
		S1.2,40.2,1,39.9s-0.4-0.6-0.6-1c-0.1-0.4-0.2-0.8-0.2-1.2c0-0.7,0.1-1.3,0.4-1.8c0.3-0.5,0.6-0.9,1-1.3C2,34.3,2.5,34,3.1,33.8
		c0.6-0.2,1.2-0.2,1.8-0.2s1.1,0.1,1.5,0.1c0.4,0.1,0.8,0.2,1,0.3c0.3,0.1,0.5,0.2,0.6,0.3c0.1,0.1,0.2,0.1,0.2,0.1s0.1-0.1,0.3-0.2
		c0.1-0.2,0.2-0.3,0.3-0.5H9v3.6H8.8c-0.2-0.4-0.4-0.9-0.6-1.3c-0.2-0.4-0.5-0.8-0.9-1.1c-0.3-0.3-0.7-0.6-1.1-0.8
		c-0.4-0.2-0.9-0.3-1.4-0.3c-0.4,0-0.8,0.1-1.2,0.2s-0.7,0.3-0.9,0.5c-0.3,0.2-0.5,0.5-0.6,0.9c-0.1,0.3-0.2,0.7-0.2,1.2
		c0,0.7,0.2,1.3,0.6,1.7c0.4,0.4,1,0.8,1.6,1c0.3,0.1,0.5,0.2,0.7,0.3c0.2,0.1,0.5,0.2,0.7,0.2c0.2,0.1,0.4,0.1,0.7,0.2
		c0.2,0.1,0.5,0.2,0.7,0.3c0.9,0.3,1.6,0.8,2.1,1.4s0.7,1.4,0.7,2.3C9.8,44.6,9.7,45.1,9.5,45.6 M26,44.1h-0.2c-0.2,2.2-1.6,2.9-2,3
		c-0.4,0.2-0.7,0.3-1.2,0.3c-0.4,0.1-0.7,0.1-1.1,0.1c-0.4,0-0.6,0-0.9,0c-0.5,0-1,0-1.5-0.1c-0.4-0.1-0.7-0.2-0.8-0.4
		c-0.1-0.2-0.2-0.5-0.2-0.8c0-0.4-0.1-0.8-0.1-1.2c0-0.1,0-0.3,0-0.5s0-0.4,0-0.6v-0.7v-0.6v-1.1c0-0.4,0-0.6,0-0.8h0.5h0.4
		c0.1,0,0.3,0,0.4,0c0.1,0,0.3,0,0.5,0c0.4,0,0.7,0.1,1,0.2s0.6,0.3,0.8,0.5s0.5,0.6,0.7,1s0.4,0.9,0.5,1.3H23v-6.2h-0.2
		c-0.1,0.4-0.2,0.7-0.3,1s-0.2,0.6-0.4,0.8c-0.2,0.2-0.4,0.4-0.6,0.6c-0.3,0.2-0.6,0.3-1,0.4c-0.2,0-0.4,0.1-0.6,0.1
		c-0.3,0-0.5,0-0.8,0s-0.5,0-0.7,0h-0.3v-0.2c0-0.1,0-0.3,0-0.5s0-0.5,0-0.8v-1.3c0-0.9,0-1.6,0-2.3c0-0.7,0-1.1,0.1-1.3
		c0.1,0,0.3,0,0.6-0.1c0.3,0,0.6,0,0.9,0c0.9,0,1.6,0,2.2,0.1c0.6,0.1,1,0.2,1.2,0.3c0.9,0.5,1.4,1.2,1.7,2.6H25v-3.3H14.1v0.2
		c0.4,0.1,0.6,0.1,0.9,0.2c0.2,0.1,0.4,0.2,0.6,0.4c0.1,0.1,0.1,0.2,0.2,0.4c0,0.2,0.1,0.4,0.1,0.6s0,0.5,0,0.7c0,0.3,0,0.5,0,0.7
		v3.8v1.1c0,0.4,0,0.8,0,1.2c0,0.4,0,0.7,0,1s0,0.6,0,0.8c0,0.2,0,0.4,0,0.6s0,0.4-0.1,0.6c0,0.2-0.1,0.4-0.1,0.5
		c0,0.2-0.1,0.3-0.2,0.3c-0.2,0.2-0.4,0.4-0.7,0.5s-0.6,0.2-0.9,0.3v0.2H26L26,44.1z M42.2,39c0.2-0.4,0.2-0.8,0.2-1.3
		c0-0.8-0.2-1.5-0.6-2.1c-0.4-0.6-0.9-1-1.4-1.3c-0.6-0.3-1.2-0.5-1.9-0.6s-1.4-0.1-2.3-0.1h-0.9c-0.3,0-0.7,0-1.1,0
		c-0.4,0-0.8,0-1.2,0s-0.8,0-1.1,0s-0.6,0-0.9,0h-0.5v0.2c0.4,0.1,0.7,0.1,1,0.2s0.6,0.2,0.8,0.4c0.1,0.1,0.1,0.2,0.2,0.4
		c0,0.2,0.1,0.4,0.1,0.6s0,0.4,0,0.7c0,0.2,0,0.5,0,0.7v3.8v1.1c0,0.4,0,0.8,0,1.2c0,0.4,0,0.7,0,1s0,0.6,0,0.8c0,0.2,0,0.4,0,0.6
		s0,0.4,0,0.6s0,0.4-0.1,0.5c0,0.2-0.1,0.3-0.2,0.4c-0.2,0.2-0.4,0.4-0.7,0.5s-0.6,0.2-0.9,0.2v0.2H37v-0.1c-0.5,0-1-0.1-1.3-0.3
		c-0.3-0.2-0.5-0.3-0.6-0.5s-0.2-0.4-0.2-0.7c0-0.3,0-0.7,0-1.1c0-0.2,0-0.4,0-0.6s0-0.4,0-0.6V43v-1.1H36c0.4,0,0.8,0,1.3,0
		c0.4,0,0.8-0.1,1.3-0.1c0.4-0.1,0.8-0.2,1.2-0.3c0.4-0.1,0.7-0.3,1-0.5s0.6-0.5,0.9-0.8C41.8,39.8,42,39.4,42.2,39 M39.7,35.6
		c0.4,0.6,0.6,1.3,0.6,2c0,0.8-0.2,1.6-0.7,2.2c-0.4,0.7-1.1,1.1-1.9,1.4c-0.4,0.1-0.8,0.2-1.3,0.3c-0.5,0-1,0-1.5,0v-0.9v-1.7
		c0-0.6,0-1.3,0-1.9c0-0.7,0-1.2,0-1.7c0-0.3,0-0.5,0-0.7s0-0.3,0-0.4s0-0.2,0.1-0.2c0-0.1,0-0.1,0-0.2c0.1,0,0.2,0,0.4,0
		c0.1,0,0.4,0,0.6,0c0.4,0,0.8,0,1.1,0.1c0.4,0.1,0.7,0.2,1,0.3C38.8,34.5,39.3,35,39.7,35.6 M54.1,33.8h-1.3h-1.3h-1.1
		c-0.4,0-0.8,0-1.1,0c-0.4,0-0.8,0-1.3,0s-0.9,0-1.1-0.1c-0.3,0-0.5-0.1-0.8-0.2v3.7h0.4c0,0-0.2-1.4,0.7-2.3
		c0.3-0.3,0.6-0.4,0.9-0.5c0.3-0.1,0.7-0.2,1.2-0.2c0.2,0,0.5,0,0.7,0s0.4,0,0.5,0h0.6h0.7v6.5v1.1c0,0.4,0,0.8,0,1.1
		c0,0.4,0,0.7,0,1s0,0.5,0,0.7s0,0.4,0,0.6s0,0.4,0,0.6s0,0.4-0.1,0.5c0,0.1-0.1,0.3-0.1,0.3c-0.3,0.3-0.6,0.6-0.9,0.6
		c-0.3,0.1-0.6,0.2-1,0.2v0.2h6.4v0c-0.3-0.1-0.6-0.1-1-0.2s-0.6-0.3-0.8-0.6c-0.1-0.1-0.2-0.4-0.2-0.7c0-0.3,0-0.7,0-1.1v-4.4v-1.5
		v-1.8c0-0.6,0-1.2,0-1.8c0-0.6,0-1,0-1.3l0,0h0.7h0.6c0.2,0,0.4,0,0.5,0c0.2,0,0.4,0,0.7,0c0.5,0,0.9,0.1,1.2,0.2s0.6,0.3,0.9,0.5
		c0.9,1,0.7,2.3,0.7,2.3h0.5v-3.7c-0.3,0.1-0.6,0.1-0.8,0.2c-0.3,0-0.6,0.1-1.1,0.1s-0.9,0-1.3,0c-0.4,0-0.8,0-1.1,0L54.1,33.8
		 M69.7,47.8v-0.2c-0.3,0-0.6-0.1-0.9-0.2c-0.3-0.1-0.6-0.3-0.8-0.5c-0.1-0.1-0.2-0.4-0.2-0.8s0-0.7,0-1.1v-4.4v-1.1v-1
		c0-0.3,0-0.7,0-1s0-0.7,0-1s0-0.6,0-1c0-0.3,0.1-0.6,0.2-0.8c0.2-0.3,0.4-0.5,0.7-0.6s0.6-0.2,0.9-0.2v-0.3h-5.9v0.2
		c0.3,0,0.6,0.1,0.9,0.2c0.3,0.1,0.5,0.3,0.7,0.5c0.1,0.1,0.1,0.2,0.2,0.4c0,0.2,0.1,0.3,0.1,0.6c0,0.2,0,0.4,0,0.7v0.7v3.8v1.1
		c0,0.4,0,0.8,0,1.2c0,0.4,0,0.7,0,1s0,0.6,0,0.8c0,0.2,0,0.4,0,0.6s0,0.4,0,0.6s0,0.4-0.1,0.5c0,0.1-0.1,0.3-0.1,0.3
		c-0.2,0.2-0.4,0.4-0.7,0.5s-0.6,0.2-0.9,0.3v0.2L69.7,47.8L69.7,47.8z M92,47.8v-0.2c-0.3,0-0.6-0.1-0.8-0.1
		c-0.2-0.1-0.4-0.2-0.6-0.3c-0.2-0.1-0.3-0.2-0.4-0.3c-0.1-0.1-0.1-0.2-0.2-0.2c-0.1-0.1-0.1-0.3-0.2-0.6c0-0.3-0.1-0.5-0.1-0.8
		c0-0.8,0-1.5,0-2.2V41v-1.8c0-0.6,0-1.2,0-1.8c0-0.5,0-0.9,0.1-1.4c0-0.5,0.1-0.8,0.2-1c0.1-0.3,0.3-0.5,0.6-0.8
		c0.3-0.2,0.7-0.3,1.2-0.3v-0.3h-4.2c0,0.1-0.2,0.5-0.5,1.2s-0.6,1.5-1.1,2.5c-0.4,1-0.9,2.1-1.5,3.4c-0.6,1.2-1.1,2.5-1.7,3.7
		l-4.7-10.7h-4.2v0.2c0.2,0,0.4,0.1,0.6,0.1c0.2,0.1,0.4,0.2,0.6,0.3c0.2,0.1,0.4,0.3,0.5,0.5s0.2,0.5,0.2,0.9s0,0.7,0,1v0.8v0.8v1
		c0,0.9,0,1.7,0,2.5s0,1.4-0.1,2c0,0.7-0.1,1.2-0.1,1.7c-0.1,0.5-0.2,0.9-0.4,1.2c-0.2,0.3-0.4,0.6-0.7,0.7
		c-0.3,0.2-0.7,0.3-1.1,0.4V48h5.1v-0.4c-0.6-0.1-1-0.2-1.3-0.4c-0.3-0.2-0.6-0.4-0.7-0.7c-0.2-0.3-0.3-0.7-0.3-1.1
		c0-0.5-0.1-1-0.1-1.6v-2.5c0-0.7,0-1.4,0-2.1c0-0.6,0-1.3,0-2s0-1.4,0-2.3c0.1,0.1,0.2,0.4,0.4,0.8s0.4,0.9,0.7,1.5
		s0.6,1.3,0.9,2.1c0.3,0.8,0.7,1.6,1.1,2.5c0.4,0.9,0.8,1.8,1.2,2.8s0.8,1.9,1.2,2.9h0.1c0-0.1,0.1-0.2,0.2-0.5
		c0.1-0.2,0.2-0.5,0.3-0.8s0.2-0.6,0.4-0.9c0.1-0.3,0.2-0.5,0.3-0.6c0.4-1,0.8-1.9,1.2-2.7c0.4-0.8,0.7-1.6,1.1-2.4
		c0.4-0.8,0.7-1.6,1.1-2.4c0.4-0.8,0.8-1.7,1.2-2.7v5.6v2.4c0,0.8,0,1.6,0,2.5c0,0.3,0,0.5-0.1,0.8c0,0.3-0.1,0.5-0.2,0.6
		c-0.1,0.3-0.4,0.5-0.8,0.7c-0.4,0.2-0.9,0.3-1.4,0.4v0.2h7V47.8z M109.4,47.8v-0.2c-0.3,0-0.6-0.1-0.8-0.2s-0.4-0.2-0.6-0.4
		c-0.2-0.1-0.3-0.3-0.4-0.4c-0.1-0.1-0.2-0.2-0.2-0.3c-0.2-0.3-0.3-0.6-0.4-0.9c-0.1-0.3-0.3-0.6-0.4-1c-0.3-0.8-0.6-1.7-0.9-2.5
		c-0.3-0.9-0.6-1.7-1-2.6c-0.3-0.9-0.7-1.8-1.1-2.8c-0.4-1-0.8-2-1.2-3.1h-0.2c0,0.1-0.1,0.2-0.2,0.4c-0.1,0.1-0.2,0.3-0.4,0.5
		c-0.1,0.2-0.3,0.3-0.5,0.5c-0.2,0.1-0.4,0.3-0.6,0.4l0.2,0.4c-0.3,0.7-0.6,1.5-1,2.4c-0.4,0.8-0.7,1.7-1.1,2.5
		c-0.4,0.8-0.7,1.6-1.1,2.4c-0.3,0.8-0.6,1.5-0.9,2.1c-0.3,0.7-0.6,1.2-0.8,1.5s-0.4,0.6-0.5,0.6c0,0.1-0.2,0.2-0.4,0.3
		c-0.2,0.1-0.5,0.2-0.9,0.3v0.2h4.2v-0.3c-0.2,0-0.4-0.1-0.5-0.1c-0.2,0-0.4-0.1-0.5-0.2c-0.2-0.1-0.3-0.2-0.4-0.3
		c-0.1-0.1-0.2-0.3-0.2-0.4c0-0.3,0.1-0.8,0.4-1.5c0.2-0.5,0.4-0.9,0.6-1.4c0.2-0.4,0.4-0.9,0.6-1.4h5.2c0.2,0.5,0.4,1,0.6,1.5
		c0.2,0.5,0.3,0.9,0.5,1.3c0.1,0.4,0.2,0.7,0.3,1s0.1,0.5,0.1,0.6c0,0.2-0.1,0.3-0.2,0.5c-0.1,0.1-0.3,0.2-0.4,0.3
		c-0.2,0.1-0.3,0.1-0.5,0.1c-0.1,0-0.2,0-0.3,0v0.2H109.4z M101.1,35.9c0.1,0.3,0.3,0.7,0.4,1.1c0.2,0.4,0.4,1,0.6,1.5
		c0.2,0.5,0.4,1.1,0.7,1.7c0.2,0.6,0.5,1.2,0.7,1.8h-4.9c0.3-0.8,0.6-1.5,0.9-2.2c0.3-0.7,0.5-1.3,0.7-1.8s0.4-1,0.6-1.3
		C100.9,36.3,101,36,101.1,35.9 M20.8,19.1l1.6,0.1l1.1-1.9h0.1l-0.4,4.3l-2.5,0.3l3.5,0.1l0,0l0,0v-0.5l0,0l0.1-3v-2.1v-1.6l10-1.4
		v4.1l-4,0.3V22h1l0.6-0.1l2.4-0.4V22l0,0h1.2v-9l0,0v-2.5l2.1,0.3l2.5,0.3V12l-2,0.7l-0.5,0.2l2.6-0.4l1.8-0.3h0.1l0,0v4.6
		l-4.4,0.3c0,1.7,0,3,0,4.1l4.3,0.6v0.3v0.1h1.4v-0.3v-0.1V12l0,0V9.1l4.2,0.8v1l-1.8,0.7l-0.4,0.2l2.2-0.3l6.4-1L64.7,9l0,0
		l4.2,0.8v1L68.5,11l-2.4,0.4l-0.7,10.9l-1,0.4l6,0.1L67,22.4c-0.1,0-0.1-0.1-0.1-0.2V19l-0.1-6.8v-0.3h0.3l1.8,0.1h0.4l0,0h0.1l0,0
		l0,0l0.3,0.3l0,0l3.1,2.7l3.2,0.2h0.1l2.7,2.7l4.6,0.1c0,0,0.1,0,0.1,0.1l4.5,5l3.9,0.1c-1.7-2-3.6-3.8-5.6-5.7
		c-1.9-1.8-3.7-3.6-5.6-5.4c-1-1-2-1.9-3-2.9c-0.4-0.4-0.8-0.7-1.3-1C76.2,8,76,7.8,75.8,7.6c-0.3-0.2-0.5-0.3-0.9-0.4
		c-0.2-0.1-0.6-0.7-0.8-0.9c-0.2-0.3-0.5-0.5-0.7-0.7c-0.3-0.4-0.6,0-1,0.1c-0.3,0.1-0.8-0.8-1-1c-0.4-0.4-0.7-1-1.2-1.3
		C70,3.2,69.8,3,69.7,2.7C69.6,2.4,69.1,1,68.8,1c-0.2,0-0.4,0.1-0.5,0.1s-0.2,0.1-0.4,0.1c-0.1,0-0.2-0.1-0.3-0.1
		c-0.3,0.1-0.6,0.4-0.9,0.5c-0.2,0.2-0.6,0.3-0.8,0.5c-0.4,0.3-0.7,0-1.1,0.3c-0.2,0.1-0.3,0.2-0.5,0.1c-0.1-0.2-0.3-0.4-0.4-0.6
		c-0.2-0.2-0.3-0.5-0.6-0.3s-0.2,0.1-0.5,0c-0.5-0.4-1-0.8-1.5-1.2c-0.4-0.3-0.8-0.7-1.2-0.2C60,0.4,59.6,0.8,59.5,1
		c-0.2,0.4-0.4-0.4-0.7-0.2C58.4,1,58,1.6,57.7,1.9c-0.3,0.4-0.9,0.7-1.2,1.1c-0.2,0.3-0.3,0.7-0.5,1c-0.2,0.4-0.3,0.8-0.7,1
		c-0.3,0.3-0.8,0.4-1.1,0.7c0-0.1,0,0,0,0c-0.2-0.3-0.3-0.7-0.5-1l-0.1-0.2c-0.2-0.1-0.3-0.6-0.4-0.8c0-0.3-0.3-0.3-0.4-0.5
		c-0.2-0.1-1.1,0.1-1.1,0.2c-0.5,0.1-1,0.5-1.3,0.9c-0.1,0.2-0.9,0.6-0.9,0.7c-0.1,0-0.5,0-0.6-0.2c0,0-0.3-0.5-0.2-0.6
		c-0.1-0.3-0.1-0.6-0.3-0.8c-0.2-0.2-0.8-0.2-0.8-0.5c0-0.2-0.7-1.1-0.6-1.3c-0.1-0.3-0.5-0.6-0.6-0.9c0,0-0.5-0.1-0.6,0
		c-0.3,0.1-0.6,0.1-0.8,0.2S44.5,1,44.3,1.1L44,1.2c-0.1,0-0.1,0.3-0.2,0.3c0,0.1-0.1,0.4-0.1,0.4c-0.1,0.2-0.1,0.4-0.2,0.6
		c0,0.2-0.5,0.5-0.7,0.4c-0.2,0-0.4,0.6-0.5,0.6c0,0.2-0.9,0.9-0.8,1c0,0.2-0.4,0.6-0.5,0.9c0,0-0.5,0.8-0.6,0.8
		c-0.1,0.5-1.1,0.1-1,0.5C39.3,6.5,39,6.2,39,6c-0.1-0.2-0.2-0.3-0.3-0.5c-0.2-0.3-0.3-0.3-0.6-0.2c-0.1,0.1-0.3,0.1-0.5,0.2
		c-0.1,0-0.2-0.1-0.3-0.1S37,5.6,36.9,5.6c-0.2,0.1-0.4,0.3-0.6,0.5c-0.3,0.2-0.5,0.4-0.8,0.6c-0.3,0.3-0.9,0-1.2,0.4
		c-0.3-0.1-0.6-0.8-0.9-1c-0.2-0.1-0.5,0.3-0.6,0.2c-0.1-0.1-0.3-0.2-0.4-0.3c-0.6-0.4-1.1-0.9-1.7-1.2c-0.3-0.2-0.6-0.3-0.8,0.2
		c-0.1,0.2-0.3,0.4-0.4,0.6c0,0.1-0.1,0.3-0.2,0.3l-0.2-0.1c-0.2-0.4-0.5-0.1-0.7,0.1c-0.5,0.7-1.2,1.5-1.8,2
		c-0.3,0.2-0.4,0.8-0.5,1.1c0,0.5-0.6,1.1-1,1.3c-0.4,0.2-0.8,0.5-1.1,0.8c-0.2,0.2-0.5,0.4-0.8,0.5c-0.4,0.2-0.5,0.7-0.7,1
		c-0.3,0.5-0.5,1-1,1.4c-0.6,0.4-1,1-1.5,1.6c-1.4,1.8-2.7,3.8-3.9,5.7l2.3,0.1L20.8,19.1z M85.2,23.4h-1c0,0,0,0-0.1,0L81,22.9
		l-3.1-3.8l3.7,0.1L85.2,23.4z M50.7,22.6l-4.6-0.7l-0.8-0.2v-5l2.3-0.2l5.6-0.4v6.4 M68.9,12.9l2.4,2.3l-1.8-0.1l-1.8-2.2
		L68.9,12.9z M76,17.5l-2.4-0.1l-1.1-1.2l2.4,0.2L76,17.5z"/>
</g>
</svg>
