<?xml version="1.0" encoding="utf-8"?>
<!-- Generator: Adobe Illustrator 21.1.0, SVG Export Plug-In . SVG Version: 6.00 Build 0)  -->
<svg version="1.1" id="Layer_1" xmlns="http://www.w3.org/2000/svg" xmlns:xlink="http://www.w3.org/1999/xlink" x="0px" y="0px"
	 viewBox="0 0 837 253.3" style="enable-background:new 0 0 837 253.3;" xml:space="preserve">
<style type="text/css">
	.st0{fill:url(#SVGID_1_);}
</style>
<g id="Isolation_Mode">
	<linearGradient id="SVGID_1_" gradientUnits="userSpaceOnUse" x1="0.6427" y1="126.5" x2="825.3572" y2="126.5">
		<stop  offset="5.618000e-03" style="stop-color:#A38A51"/>
		<stop  offset="0.1037" style="stop-color:#A58C53"/>
		<stop  offset="0.1627" style="stop-color:#AC935C"/>
		<stop  offset="0.2113" style="stop-color:#B99F6A"/>
		<stop  offset="0.2541" style="stop-color:#CAB27E"/>
		<stop  offset="0.2637" style="stop-color:#D0B784"/>
		<stop  offset="0.5" style="stop-color:#F9EEC7"/>
		<stop  offset="0.7363" style="stop-color:#D0B784"/>
		<stop  offset="0.7459" style="stop-color:#CAB27E"/>
		<stop  offset="0.7887" style="stop-color:#B99F6A"/>
		<stop  offset="0.8373" style="stop-color:#AC935C"/>
		<stop  offset="0.8963" style="stop-color:#A58C53"/>
		<stop  offset="0.9944" style="stop-color:#A38A51"/>
	</linearGradient>
	<path class="st0" d="M51.8,207.2l17.4,1.1l12-20.7h1.1l-4.4,46.8l-27.2,3.3l38.1,1.1l0,0l0,0v-5.4l0,0l1.1-32.6v-22.8v-17.4
		l108.8-15.2v44.6l-43.5,3.3v45.7H166l6.5-1.1l26.1-4.4v5.4l0,0h13.1v-97.9l0,0v-27.2l22.8,3.3l27.2,3.3v9.8l-21.8,7.6l-5.4,2.2
		l28.3-4.4l19.6-3.3h1.1l0,0v50l-47.9,3.3c0,18.5,0,32.6,0,44.6l46.8,6.5v3.3v1.1h15.2v-3.3v-1.1V130l0,0V98.4l45.7,8.7V118
		l-19.6,7.6l-4.4,2.2l23.9-3.3l69.6-10.9l116.4-16.3l0,0l45.7,8.7v10.9l-4.4,2.2l-26.1,4.4L537,242l-10.9,4.4l65.3,1.1l-37-4.4
		c-1.1,0-1.1-1.1-1.1-2.2v-34.8l-1.1-74v-3.3h3.3l19.6,1.1h4.4l0,0h1.1l0,0l0,0l3.3,3.3l0,0l33.7,29.4l34.8,2.2h1.1l29.4,29.4
		l50,1.1c0,0,1.1,0,1.1,1.1l49,54.4l42.4,1.1c-18.5-21.8-39.2-41.3-60.9-62c-20.7-19.6-40.3-39.2-60.9-58.8
		c-10.9-10.9-21.8-20.7-32.6-31.6c-4.4-4.4-8.7-7.6-14.1-10.9c-2.2-2.2-4.4-4.4-6.5-6.5c-3.3-2.2-5.4-3.3-9.8-4.4
		c-2.2-1.1-6.5-7.6-8.7-9.8c-2.2-3.3-5.4-5.4-7.6-7.6c-3.3-4.4-6.5,0-10.9,1.1c-3.3,1.1-8.7-8.7-10.9-10.9
		c-4.4-4.4-7.6-10.9-13.1-14.1c-2.2-2.2-4.4-4.4-5.4-7.6c-1.1-3.3-6.5-18.5-9.8-18.5c-2.2,0-4.4,1.1-5.4,1.1s-2.2,1.1-4.4,1.1
		c-1.1,0-2.2-1.1-3.3-1.1c-3.3,1.1-6.5,4.4-9.8,5.4c-2.2,2.2-6.5,3.3-8.7,5.4c-4.4,3.3-7.6,0-12,3.3c-2.2,1.1-3.3,2.2-5.4,1.1
		c-1.1-2.2-3.3-4.4-4.4-6.5c-2.2-2.2-3.3-5.4-6.5-3.3s-2.2,1.1-5.4,0c-5.4-4.4-10.9-8.7-16.3-13.1c-4.4-3.3-8.7-7.6-13.1-2.2
		c-1.1,2.2-5.4,6.5-6.5,8.7c-2.2,4.4-4.4-4.4-7.6-2.2c-4.4,2.2-8.7,8.7-12,12c-3.3,4.4-9.8,7.6-13.1,12c-2.2,3.3-3.3,7.6-5.4,10.9
		c-2.2,4.4-3.3,8.7-7.6,10.9c-3.3,3.3-8.7,4.4-12,7.6c0-1.1,0,0,0,0c-2.2-3.3-3.3-7.6-5.4-10.9l-1.1-2.2c-2.2-1.1-3.3-6.5-4.4-8.7
		c0-3.3-3.3-3.3-4.4-5.4c-2.2-1.1-12,1.1-12,2.2c-5.4,1.1-10.9,5.4-14.1,9.8c-1.1,2.2-9.8,6.5-9.8,7.6c-1.1,0-5.4,0-6.5-2.2
		c0,0-3.3-5.4-2.2-6.5c-1.1-3.3-1.1-6.5-3.3-8.7s-8.7-2.2-8.7-5.4c0-2.2-7.6-12-6.5-14.1c-1.1-3.3-5.4-6.5-6.5-9.8
		c0,0-5.4-1.1-6.5,0c-3.3,1.1-6.5,1.1-8.7,2.2s-5.4,1.1-7.6,2.2l-3.3,1.1c-1.1,0-1.1,3.3-2.2,3.3c0,1.1-1.1,4.4-1.1,4.4
		c-1.1,2.2-1.1,4.4-2.2,6.5c0,2.2-5.4,5.4-7.6,4.4c-2.2,0-4.4,6.5-5.4,6.5c0,2.2-9.8,9.8-8.7,10.9c0,2.2-4.4,6.5-5.4,9.8
		c0,0-5.4,8.7-6.5,8.7c-1.1,5.4-12,1.1-10.9,5.4c-1.1-2.2-4.4-5.4-4.4-7.6c-1.1-2.2-2.2-3.3-3.3-5.4c-2.2-3.3-3.3-3.3-6.5-2.2
		c-1.1,1.1-3.3,1.1-5.4,2.2c-1.1,0-2.2-1.1-3.3-1.1s-3.3,2.2-4.4,2.2c-2.2,1.1-4.4,3.3-6.5,5.4c-3.3,2.2-5.4,4.4-8.7,6.5
		c-3.3,3.3-9.8,0-13.1,4.4c-3.3-1.1-6.5-8.7-9.8-10.9c-2.2-1.1-5.4,3.3-6.5,2.2c-1.1-1.1-3.3-2.2-4.4-3.3c-6.5-4.4-12-9.8-18.5-13.1
		c-3.3-2.2-6.5-3.3-8.7,2.2c-1.1,2.2-3.3,4.4-4.4,6.5c0,1.1-1.1,3.3-2.2,3.3l-2.2-1.1c-2.2-4.4-5.4-1.1-7.6,1.1
		c-5.4,7.6-13.1,16.3-19.6,21.8c-3.3,2.2-4.4,8.7-5.4,12c0,5.4-6.5,12-10.9,14.1s-8.7,5.4-12,8.7c-2.2,2.2-5.4,4.4-8.7,5.4
		c-4.4,2.2-5.4,7.6-7.6,10.9c-3.3,5.4-5.4,10.9-10.9,15.2c-6.5,4.4-10.9,10.9-16.3,17.4c-15.2,19.6-29.4,41.3-42.4,62l25,1.1
		L51.8,207.2z M752.5,254h-10.9c0,0,0,0-1.1,0l-33.7-5.4L673,207.2l40.3,1.1L752.5,254z M377.1,245.3l-50-7.6l-8.7-2.2v-54.4l25-2.2
		l60.9-4.4v69.6L377.1,245.3z M575.1,139.8l26.1,25l-19.6-1.1l-19.6-23.9H575.1z M652.4,189.8l-26.1-1.1l-12-13.1l26.1,2.2
		L652.4,189.8z"/>
</g>
</svg>
