<?xml version="1.0" encoding="utf-8"?>
<!-- Generator: Adobe Illustrator 21.1.0, SVG Export Plug-In . SVG Version: 6.00 Build 0)  -->
<svg version="1.1" id="Layer_1" xmlns="http://www.w3.org/2000/svg" xmlns:xlink="http://www.w3.org/1999/xlink" x="0px" y="0px"
	 viewBox="0 0 800 400" style="enable-background:new 0 0 800 400;" xml:space="preserve">
<style type="text/css">
	.st0{fill:#1C1C1C;}
</style>
<g id="Layer_1_1_">
</g>
<g id="Pattern_Editing_Mode">
	<g>
		<path class="st0" d="M71.6,338.8c-0.6-0.8-1.4-1.5-2.4-2.1s-2.2-0.9-3.6-0.9c-1.3,0-2.5,0.2-3.4,0.7c-1,0.5-1.8,1.1-2.5,1.9
			s-1.1,1.6-1.5,2.6c-0.3,0.9-0.5,1.9-0.5,2.8v31.5c0,0.9,0.2,1.8,0.5,2.7c0.3,0.9,0.8,1.8,1.5,2.5c0.7,0.8,1.5,1.4,2.5,1.9
			s2.1,0.7,3.4,0.7c1.4,0,2.6-0.2,3.6-0.6s1.8-1,2.4-1.7s1.1-1.6,1.4-2.5s0.4-2,0.4-3v-4.1c0-0.4-0.2-0.5-0.6-0.5s-1,0-1.8,0
			c-0.6,0-1.1,0-1.5,0.1c-0.4,0-0.6,0.2-0.6,0.5v4c0,0.9-0.3,1.7-0.8,2.4c-0.5,0.7-1.4,1.1-2.5,1.1c-1.3,0-2.2-0.4-2.7-1.1
			c-0.5-0.8-0.8-1.6-0.8-2.6v-31.2c0-0.8,0.3-1.5,0.9-2.4c0.6-0.8,1.5-1.2,2.5-1.2c0.5,0,0.9,0.1,1.4,0.4c0.4,0.2,0.8,0.6,1,0.9
			s0.5,0.8,0.7,1.2c0.2,0.4,0.2,0.8,0.2,1.2v3.2c0,0.4,0.2,0.6,0.6,0.7c0.4,0,1,0.1,1.7,0.1c0.6,0,1.2,0,1.6-0.1s0.6-0.3,0.6-0.6v-3
			c0-0.7-0.1-1.5-0.4-2.5C72.6,340.5,72.2,339.7,71.6,338.8z"/>
		<path class="st0" d="M187.4,382.5c0,0.4-0.1,0.6-0.3,0.6c-0.3,0-0.9,0.1-1.8,0.1c-1,0-1.6,0-1.9,0c-0.3,0-0.5-0.3-0.5-0.8
			c-0.3-1.9-0.5-3.7-0.7-5.4c-0.2-1.7-0.5-3.5-0.7-5.4c0-0.4-0.3-0.6-0.7-0.6s-0.9,0-1.4,0c-0.6,0-1.1,0-1.5,0
			c-0.3,0-0.5,0.2-0.6,0.6c-0.2,1.9-0.4,3.7-0.6,5.4c-0.2,1.7-0.3,3.6-0.5,5.6c0,0.4-0.3,0.6-0.6,0.6c-0.4,0-1.1,0.1-2.2,0.1
			c-0.5,0-0.9,0-1.3-0.1c-0.4,0-0.6-0.2-0.5-0.5c0.5-4.4,1.1-8.5,1.6-12.4s1-7.7,1.5-11.3c0.5-3.7,0.9-7.3,1.4-10.9
			c0.4-3.6,0.9-7.3,1.4-11.1c0.1-0.5,0.2-0.8,0.5-0.9c0.2-0.1,0.7-0.1,1.5-0.1c0.9,0,1.4,0.1,1.8,0.2c0.3,0.1,0.5,0.5,0.5,1
			c0.6,4.3,1.1,8.3,1.6,11.9c0.4,3.6,0.9,7.2,1.4,10.7c0.4,3.5,0.9,7.1,1.3,10.7C186.3,374,186.8,378.1,187.4,382.5z M180.8,366.6
			c-0.1-1.4-0.2-2.8-0.3-4s-0.2-2.4-0.2-3.6s-0.1-2.3-0.2-3.5c-0.1-1.2-0.2-2.4-0.3-3.8c0-0.1,0-0.3-0.1-0.5c0-0.2-0.2-0.3-0.4-0.3
			s-0.3,0.1-0.3,0.3c0,0.2-0.1,0.3-0.1,0.4c-0.2,2.8-0.4,5.5-0.5,7.9s-0.3,4.7-0.5,7c0,0.4,0.4,0.6,1.5,0.6c0.4,0,0.8,0,1.1-0.1
			C180.7,367,180.9,366.9,180.8,366.6z"/>
		<path class="st0" d="M90.4,338.2c1.5,1.6,2.2,3.5,2.2,5.9v30.6c0,1.1-0.1,2.1-0.4,3.2c-0.2,1-0.7,1.9-1.3,2.7
			c-0.6,0.8-1.4,1.4-2.4,1.9s-2.3,0.7-3.7,0.7c-1.4,0-2.6-0.2-3.6-0.7s-1.8-1.1-2.4-1.9s-1.1-1.7-1.4-2.7s-0.4-2.1-0.4-3.2v-30.6
			c0-2.6,0.8-4.6,2.3-6c1.5-1.5,3.4-2.2,5.6-2.2C87.1,335.9,89,336.7,90.4,338.2z M88.3,344.2c0-0.9-0.3-1.9-1-2.7
			c-0.6-0.9-1.5-1.3-2.5-1.3s-1.9,0.4-2.5,1.3s-1,1.8-1,2.7v30.3c0,0.5,0,1,0.1,1.5s0.2,0.9,0.5,1.3s0.6,0.7,1.1,0.9
			c0.5,0.2,1.1,0.4,1.8,0.4c1.4,0,2.3-0.4,2.7-1.3c0.5-0.9,0.7-1.8,0.7-2.8v-30.3H88.3z"/>
		<path class="st0" d="M167.6,336.1c-0.3-0.1-0.9-0.1-1.8-0.1c-0.8,0-1.4,0-1.7,0s-0.5,0.3-0.5,1v16.4c0,0.5,0,1,0,1.6
			s-0.2,1-0.5,1.2c-0.2,0.1-0.5,0.2-1.1,0.2c-0.5,0-1.1,0.1-1.8,0c-0.6,0-1.2-0.1-1.8-0.1c-0.5,0-0.9-0.1-1-0.1
			c-0.5-0.3-0.8-0.7-0.8-1.3c0-0.6,0-1.2,0-1.8v-15.9c0-0.5-0.2-0.8-0.5-1s-0.9-0.3-1.9-0.3c-0.9,0-1.5,0.1-1.7,0.3
			c-0.2,0.2-0.3,0.5-0.3,0.9v45c0,0.5,0.1,0.8,0.3,0.8c0.2,0.1,0.8,0.1,1.7,0.1s1.6,0,1.9-0.1c0.3-0.1,0.4-0.4,0.4-0.9v-18.5
			c0-0.4,0-0.9,0-1.4s0.2-0.8,0.5-1c0,0,0.4-0.1,0.9-0.1c0.6,0,1.2-0.1,1.9-0.1s1.4,0,2,0s1,0.1,1.2,0.2s0.3,0.4,0.4,0.9
			c0,0.5,0,1,0,1.4v18.4c0,0.6,0.1,1,0.3,1.1s0.9,0.2,1.9,0.2c1.1,0,1.8-0.1,1.9-0.2c0.2-0.1,0.2-0.5,0.2-1.1V337
			C168,336.5,167.9,336.2,167.6,336.1z"/>
		<path class="st0" d="M146.8,338.8c-0.6-0.8-1.4-1.5-2.4-2.1s-2.2-0.9-3.6-0.9c-1.3,0-2.5,0.2-3.4,0.7c-1,0.5-1.8,1.1-2.5,1.9
			s-1.1,1.6-1.5,2.6c-0.3,0.9-0.5,1.9-0.5,2.8v31.5c0,0.9,0.2,1.8,0.5,2.7c0.3,0.9,0.8,1.8,1.5,2.5c0.7,0.8,1.5,1.4,2.5,1.9
			s2.1,0.7,3.4,0.7c1.4,0,2.6-0.2,3.6-0.6s1.8-1,2.4-1.7c0.6-0.7,1.1-1.6,1.4-2.5c0.3-0.9,0.4-2,0.4-3v-4.1c0-0.4-0.2-0.5-0.6-0.5
			c-0.4,0-1,0-1.8,0c-0.6,0-1.1,0-1.5,0.1c-0.4,0-0.6,0.2-0.6,0.5v4c0,0.9-0.3,1.7-0.8,2.4c-0.5,0.7-1.4,1.1-2.5,1.1
			c-1.3,0-2.2-0.4-2.7-1.1s-0.8-1.6-0.8-2.6v-31.2c0-0.8,0.3-1.5,0.9-2.4c0.6-0.8,1.5-1.2,2.5-1.2c0.5,0,0.9,0.1,1.3,0.4
			c0.4,0.2,0.8,0.6,1,0.9c0.3,0.4,0.5,0.8,0.7,1.2c0.2,0.4,0.2,0.8,0.2,1.2v3.2c0,0.4,0.2,0.6,0.6,0.7c0.4,0,1,0.1,1.7,0.1
			c0.6,0,1.2,0,1.6-0.1c0.4-0.1,0.6-0.3,0.6-0.6v-3c0-0.7-0.1-1.5-0.4-2.5C147.9,340.5,147.4,339.7,146.8,338.8z"/>
		<path class="st0" d="M110.1,363.6c-0.6-1.2-1.2-2.3-2-3.4s-1.5-2.2-2.2-3.2c-1.3-1.8-2.5-3.5-3.6-5.2c-1.1-1.6-1.6-3.1-1.6-4.4
			v-3.7c0-0.9,0.3-1.7,0.9-2.4c0.6-0.8,1.4-1.1,2.4-1.1c0.8,0,1.5,0.3,2.2,1s1,1.5,1,2.7v3.2c0,0.3,0.2,0.5,0.6,0.5s0.9,0.1,1.6,0.1
			c0.8,0,1.3,0,1.8-0.1c0.4,0,0.6-0.2,0.6-0.5V344c0-0.9-0.2-1.8-0.5-2.7c-0.3-0.9-0.8-1.8-1.4-2.6c-0.7-0.8-1.5-1.4-2.4-2
			c-1-0.5-2.1-0.8-3.3-0.8c-1.4,0-2.6,0.3-3.6,0.8s-1.8,1.2-2.4,1.9c-0.6,0.8-1,1.6-1.3,2.6s-0.4,1.9-0.4,2.7v3.4c0,1,0.2,2,0.5,3
			c0.4,1,0.8,2.1,1.4,3.1s1.2,2.1,1.9,3.1c0.7,1,1.4,2,2.2,3c1.4,1.9,2.6,3.8,3.7,5.6c1.1,1.9,1.7,3.7,1.7,5.5v4.1
			c0,0.4,0,0.8-0.1,1.2c-0.1,0.4-0.3,0.8-0.5,1.2c-0.2,0.4-0.6,0.7-1,0.9c-0.4,0.2-1,0.4-1.8,0.4c-1.2,0-2.1-0.4-2.6-1.1
			s-0.7-1.5-0.7-2.4v-3.7c0-0.4-0.2-0.6-0.5-0.6c-0.4-0.1-0.9-0.1-1.8-0.1s-1.5,0.1-1.8,0.2s-0.4,0.3-0.4,0.7v3.8
			c0,2.7,0.8,4.6,2.3,5.9s3.4,1.9,5.6,1.9c1.1,0,2.1-0.2,3.1-0.6s1.8-0.9,2.5-1.6s1.2-1.5,1.7-2.5c0.4-0.9,0.6-2,0.6-3.2v-4.4
			c0-1.3-0.2-2.5-0.5-3.7C111.2,366,110.7,364.8,110.1,363.6z"/>
		<path class="st0" d="M120.3,341.4c0-0.4,0-0.7,0-0.8c0-0.1,0.1-0.2,0.3-0.5c0.1-0.1,0.3-0.2,0.6-0.3c0.3,0,0.6-0.1,0.9-0.1h6.8
			c0.5,0,0.7-0.1,0.8-0.4s0.1-0.8,0.1-1.4s0-1.1-0.1-1.5s-0.3-0.5-0.7-0.5h-11.2c-0.4,0-0.7,0-0.9,0.1c-0.2,0-0.5,0.2-0.7,0.5
			s-0.4,0.5-0.4,0.6s-0.1,0.4-0.1,0.9v42.7c0,0.4,0,0.8,0,1.3s0.1,0.8,0.4,1c0.2,0.2,0.6,0.3,1.1,0.3s1,0,1.6,0h10.1
			c0.4,0,0.6-0.1,0.7-0.4c0.1-0.2,0.1-0.8,0.1-1.5c0-0.8,0-1.3-0.1-1.5s-0.3-0.4-0.7-0.4h-6.4c-0.4,0-0.7,0-1.1-0.1
			c-0.4,0-0.7-0.1-0.9-0.2c-0.2-0.1-0.3-0.4-0.3-0.9s0-1,0-1.5v-14.5c0-0.4,0-0.8,0-1.1c0-0.3,0.2-0.6,0.5-0.8
			c0.1-0.1,0.4-0.1,0.7-0.2c0.3,0,0.7,0,1,0h3c0.4,0,0.7-0.1,0.8-0.4c0.1-0.3,0.1-0.8,0.1-1.5s-0.1-1.2-0.2-1.5s-0.4-0.4-0.8-0.4
			h-3.2c-0.3,0-0.5,0-0.8,0s-0.5-0.1-0.7-0.3c-0.3-0.2-0.4-0.5-0.4-0.8s0-0.6,0-0.9L120.3,341.4L120.3,341.4z"/>
		<path class="st0" d="M169.4,318c0-0.3,0-0.5,0-0.8s-0.3-0.5-1-0.7s-1.5-0.2-2.5-0.2c-1.3,0-11.2,0-12.1,0c-0.9,0-2,0-3.3,0
			c-0.9,0-1.5,0.1-1.8,0.2c-0.4,0.1-0.5,0.3-0.5,0.6c0,0.3,0.1,0.6,0.1,0.8c0,0.2,0,0.4-0.1,0.7c-0.1,0.4,0.1,0.7,0.6,0.8
			c0.5,0.1,0.9,0.2,1.1,0.2c1.1,0,1.9,0,2.5,0s1.2,0,1.8,0s1.2,0,2,0s10.6,0,11.9,0c0.8,0,1.2-0.1,1.4-0.3c0.1-0.2,0.2-0.4,0.1-0.6
			C169.5,318.6,169.4,318.3,169.4,318z"/>
		<path class="st0" d="M86.9,319.4c0.1-0.2,0.2-0.4,0.1-0.6c-0.1-0.3-0.2-0.6-0.2-0.8c0-0.3,0-0.5,0-0.8s-0.3-0.5-1-0.7
			s-1.5-0.2-2.5-0.2c-1.3,0-11.2,0-12.1,0s-2,0-3.3,0c-0.9,0-1.5,0.1-1.8,0.2c-0.4,0.1-0.5,0.3-0.5,0.6c0,0.3,0.1,0.6,0.1,0.8
			c0,0.2,0,0.4-0.1,0.7c-0.1,0.4,0.1,0.7,0.6,0.8c0.5,0.1,0.9,0.2,1.1,0.2c1.1,0,1.9,0,2.5,0s1.2,0,1.8,0c0.6,0,1.2,0,2,0
			c0.7,0,10.6,0,11.9,0C86.3,319.7,86.8,319.6,86.9,319.4z"/>
		<path class="st0" d="M113.1,322.7H110c-0.1,0-0.3,0-0.6,0c-0.2,0-0.4-0.1-0.6-0.3c-0.1-0.1-0.1-0.4-0.2-0.7c0-0.4,0-0.7,0-1.1
			v-38.4c0-0.4,0-0.8,0-1.3s-0.3-0.7-0.7-0.7c-0.7,0-1.3,0-1.7,0.1c-0.5,0-1.2,0.2-2,0.5c-0.1,0-0.3,0.2-0.4,0.5s-0.3,0.6-0.4,1
			c-0.2,0.4-0.3,0.8-0.5,1.1c-0.2,0.4-0.4,0.7-0.7,0.9c-0.6,0.5-1.2,1-1.8,1.5c-0.6,0.5-0.9,0.9-0.9,1.3c-0.1,0.7-0.2,1.3-0.1,1.7
			c0.1,0.4,0.1,0.9,0.2,1.6c0,0.3,0.1,0.4,0.3,0.4c0.2,0,0.3,0,0.5-0.1s0.4-0.3,0.5-0.4c0.2-0.2,0.3-0.3,0.5-0.5
			c0.4-0.2,0.8-0.6,1.3-1s1-0.7,1.3-0.7c0.2,0,0.3,0.2,0.3,0.6s0,0.7,0,1v31.1c0,0.4,0,0.8,0,1.2c0,0.4-0.1,0.7-0.3,0.8
			c-0.2,0.1-0.4,0.1-0.6,0.1s-0.4,0-0.6,0h-3c-0.5,0-0.8,0.2-0.9,0.5c-0.1,0.4-0.2,1-0.2,1.9c0,0.8,0,1.4,0.1,1.7
			c0.1,0.3,0.4,0.5,0.8,0.5H113c0.5,0,0.7-0.7,0.7-2.2c0-0.9,0-1.5-0.1-1.9C113.6,322.9,113.4,322.7,113.1,322.7z"/>
		<path class="st0" d="M119.1,308.3c-1.6,0-2.9-0.5-3.9-1.5s-1.6-2.5-1.6-4.3V292c0-1.8,0.5-3.2,1.6-4.2c1-1,2.4-1.5,3.9-1.5
			c1.6,0,2.9,0.5,3.9,1.6s1.6,2.5,1.6,4.1v5.5c0,0.2,0,0.4-0.1,0.6c-0.1,0.4-0.7,0.5-1,0.5h-6.1c0,0,0,0-0.1,0.1s-0.1,0.2-0.1,0.4
			v3.3c0,0.8,0.2,1.4,0.5,1.8c0.4,0.4,0.8,0.6,1.4,0.6s1.1-0.2,1.4-0.6s0.5-1,0.5-1.8c0-0.1,0.1-0.4,0.5-0.5c0.1,0,0.4-0.1,1.3-0.1
			c0.8,0,1.1,0,1.2,0.1c0.3,0.1,0.5,0.3,0.5,0.6c0,2.1-0.5,3.6-1.5,4.5C122,307.8,120.7,308.3,119.1,308.3z M117.2,294.8
			c0,0.2,0.1,0.2,0.1,0.2c0.2,0,0.8,0.1,1.7,0.1c0.9,0,1.6,0,1.9-0.1c0.1,0,0.2-0.1,0.2-0.2V292c0-0.6-0.2-1.1-0.6-1.6
			s-0.8-0.7-1.4-0.7s-1,0.2-1.4,0.7s-0.6,1-0.6,1.6v2.8H117.2z"/>
		<path class="st0" d="M126.3,308.2c0.2,0,0.6,0.1,1.1,0.1c0.6,0,1,0,1.3,0c0.4,0,0.6-0.3,0.6-0.7v-15.2c0-0.4,0.1-0.7,0.3-1
			s0.5-0.6,0.8-0.8c0.3-0.2,0.6-0.4,1-0.5c0.3-0.1,0.7-0.2,1-0.2c0.5,0,0.6-0.6,0.6-1.7c0-0.5,0-0.9,0-1.2c0-0.6-0.4-0.7-0.6-0.7
			c-0.5,0-1.2,0.2-1.9,0.6c-0.5,0.3-0.9,0.6-1.2,1c0-0.1,0-0.1,0-0.2c0-0.2,0-0.4,0-0.6c0-0.3-0.2-0.6-0.6-0.6c-0.2,0-0.5,0-1,0
			c-0.6,0-1,0-1.2,0c-0.4,0.1-0.5,0.3-0.5,0.6v20.5C125.7,307.9,125.9,308.1,126.3,308.2z"/>
		<path class="st0" d="M134.8,306.8c-1-1-1.6-2.5-1.6-4.4V292c0-1.8,0.5-3.2,1.6-4.2s2.4-1.5,3.9-1.5c0.3,0,0.6,0,0.9,0.1
			c0.4,0.1,0.7,0.3,1.1,0.6c0-0.1,0-0.1,0-0.2c0-0.2,0.2-0.5,0.6-0.6c0.2,0,0.6,0,1.1,0c0.9,0,1.2,0.1,1.4,0.1
			c0.2,0.1,0.4,0.2,0.4,0.7v20.4c0,0.5-0.3,0.7-0.4,0.7c-0.1,0-0.4,0.1-1.3,0.1c-0.5,0-0.9,0-1.1,0c-0.3-0.1-0.5-0.3-0.5-0.7
			c0-0.1,0-0.2,0-0.3c-0.1,0.1-0.1,0.2-0.2,0.3c-0.2,0.2-0.4,0.4-0.7,0.5s-0.7,0.2-1.2,0.2C137.2,308.3,135.8,307.8,134.8,306.8z
			 M136.8,302.3c0,0.9,0.2,1.5,0.5,1.8c0.4,0.4,0.8,0.5,1.4,0.5c0.6,0,1.1-0.2,1.4-0.6c0.3-0.4,0.5-1,0.5-1.8V292
			c0-0.6-0.2-1.1-0.6-1.6c-0.4-0.5-0.8-0.7-1.4-0.7c-0.6,0-1,0.2-1.4,0.7s-0.6,1.1-0.6,1.6v10.3H136.8z"/>
		<path class="st0" d="M134.6,314.7c0.2-0.1,0.2-0.3,0.1-0.5c-0.1-0.2-0.2-0.5-0.2-0.7s0-0.5,0-0.7s-0.3-0.4-1-0.6
			c-0.7-0.1-1.5-0.2-2.5-0.2c-1.3,0-2.4,0-3.2,0c-0.9,0-2,0-3.3,0c-0.9,0-1.5,0-1.9,0.1s-0.5,0.3-0.5,0.5c0.1,0.3,0.1,0.5,0.1,0.6
			c0,0.2,0,0.4-0.1,0.6c-0.1,0.3,0.1,0.5,0.6,0.7c0.5,0.1,0.9,0.2,1.1,0.2c1.1,0,1.9,0,2.6,0c0.6,0,1.2,0,1.8,0s1.2,0,2,0
			c0.7,0,1.8,0,3.1,0C134,314.9,134.5,314.8,134.6,314.7z"/>
		<path class="st0" d="M419.1,151c2.8-0.2-0.7-2.3-1.5-2.6s0.1-0.5,0.1-0.8s-0.3-0.8-1.6-0.7c-1.3,0-2.1-0.2-1.9-0.3s0.5-0.5,0.5-1
			c0.1-0.5-0.3-0.7-0.9-0.8c-0.7-0.1-1.2,0.1-1.5,0.2c-0.3,0.1-0.4,0-0.4,0c-0.1-0.2-0.6-0.1-0.6-0.1c-0.6,0.1-1.6,0.1-2.6,0.7
			c-0.9,0.5-1.3,0.3-1.6,0c-0.3-0.3,1-1.3,2.2-1.8s0-0.5,2.1-1.6s0.2-1,1.2-1.5c1.2-0.7,0.9-1.3,0.9-1.3c1.2-0.8,1.6-1.7,1.4-2.1
			c-0.2-0.4-1.4-0.6-2.3-0.1s-1.8,0.2-2.2,0.3c-0.4,0.1-1.3,1-1.4,0.3c0-0.7-1.8-0.6-3.5,0.5s-0.3-2.2-1.9-1.7s-0.8,1.3-1.7,1.6
			c-0.8,0.4-1.2,1.2-1.2,1.6c0,0.4-0.8,2.5-1.2,0.9c-0.5-1.6-2-4-2.9-3.7c-0.9,0.4-0.4,2-0.4,2c-0.4,0.7-0.7,1.7-0.7,1.7
			c-0.6,2.5,0.8,3.1,0.1,3c-1.1-0.3-1.2,0.5-0.9,0.8c0.2,0.3,1.1,1.9,1.3,2.6c0.2,0.7,1.4,1.4,1.4,1.9s-1.4,1.4-1.8,1.7
			s-0.8,1.2-0.9,1.6c-0.1,0.4-0.5,0.7-0.1,1.4c0.4,0.6,1,0.1,1.2,0.1c0.3,0,0.1,0.5,0,0.8c0,0.4,0.1,0.7,0.2,1.6
			c0.1,0.9,0.7,1.8,0.9,1.9c0.2,0.2,0.9,0.9,0.9,0.9c0.5,0.5,1.6,0.5,1.3-0.5c-0.2-1,0.3-1.2,0.4-1.6c0.1-0.3,0.3-0.9,0.5-0.5
			s0.6,0.9,0.8,1.7c0.2,0.8,1.3,1.7,1.3,1.7c0.8,0.6,1.3-0.2,1.5-0.4c0.1-0.2,0.2-0.6,0.4-0.4c0.5,0.5,0.9,0.8,1.5,0.8
			s0.8,0.3,1,0.5c0.2,0.3,0.6,0.3,0.9,0.2s0.6,0.1,0.6,0.1c1.9,1,2.4,0.1,1.8-0.7c-0.4-0.6-0.9-0.6-0.3-1c0.7-0.5-0.2-0.9-0.4-1.1
			c-0.2-0.2,0.5-0.5,0.5-0.7c0-0.3-1.5-1.4-1.7-1.6c-0.3-0.2-0.2-0.2-0.2-0.2s0.6-0.2,0.5-0.7s-2.6-2-2.6-2c-1.6-1.1,0.7-1.3,2.1,0
			c0.6,0.5,1.3,0.4,1.5,0.6c0.7,0.6,1.6,0.9,2.4,1c0.7,0,1.3-0.1,1.1-0.4c-0.2-0.3-0.4-0.3-0.1-0.5c0.2-0.3-0.5-0.9-0.4-1
			s1.2,0.2,2.6,0.2s1.2-0.8,1.2-0.8C416.4,151.7,416.3,151.3,419.1,151z"/>
		<ellipse transform="matrix(0.3562 -0.9344 0.9344 0.3562 100.2245 475.932)" class="st0" cx="395.5" cy="165.2" rx="3" ry="3.2"/>
		
			<ellipse transform="matrix(0.1662 -0.9861 0.9861 0.1662 174.4091 534.3996)" class="st0" cx="403.2" cy="164.1" rx="1.9" ry="2.1"/>
		
			<ellipse transform="matrix(0.1662 -0.9861 0.9861 0.1662 168.9314 538.4899)" class="st0" cx="402.9" cy="169.4" rx="1.9" ry="2.1"/>
		
			<ellipse transform="matrix(0.1661 -0.9861 0.9861 0.1661 175.2823 542.3705)" class="st0" cx="408.3" cy="167.5" rx="1.1" ry="1.2"/>
		
			<ellipse transform="matrix(0.9344 -0.3562 0.3562 0.9344 -20.9365 149.5065)" class="st0" cx="395.5" cy="131.6" rx="3.2" ry="3"/>
		
			<ellipse transform="matrix(0.9861 -0.1662 0.1662 0.9861 -16.4472 68.8582)" class="st0" cx="403.2" cy="132.7" rx="2.1" ry="1.9"/>
		
			<ellipse transform="matrix(0.9861 -0.1662 0.1662 0.9861 -15.5703 68.7338)" class="st0" cx="402.9" cy="127.4" rx="2.1" ry="1.9"/>
		
			<ellipse transform="matrix(0.9861 -0.1661 0.1661 0.9861 -15.7882 69.6134)" class="st0" cx="408.3" cy="129.2" rx="1.2" ry="1.1"/>
		<path class="st0" d="M239.2,159.1c0,0,0.7-0.7,0.9-0.9c0.2-0.1,0.8-1,0.9-1.9c0.1-0.9,0.2-1.2,0.2-1.6c0-0.4-0.2-0.9,0-0.8
			c0.3,0,0.8,0.5,1.2-0.1s0-1-0.1-1.4s-0.5-1.3-0.9-1.6s-1.8-1.2-1.8-1.7s1.2-1.2,1.4-1.9s1.1-2.3,1.3-2.6s0.2-1.1-0.9-0.8
			c-0.7,0.1,0.7-0.6,0.1-3c0,0-0.2-1.1-0.7-1.7c0,0,0.5-1.7-0.4-2c-0.9-0.4-2.4,2.1-2.9,3.7c-0.5,1.6-1.2-0.5-1.2-0.9
			s-0.4-1.3-1.2-1.6c-0.8-0.4,0-1.2-1.7-1.6c-1.6-0.5-0.2,2.8-1.9,1.7s-3.5-1.2-3.5-0.5s-0.9-0.2-1.4-0.3c-0.4-0.1-1.3,0.1-2.2-0.3
			c-0.9-0.5-2.1-0.2-2.3,0.1c-0.2,0.4,0.2,1.3,1.4,2.1c0,0-0.3,0.6,0.9,1.3c1,0.5-0.8,0.4,1.2,1.5s0.9,1,2.1,1.6
			c1.2,0.5,2.5,1.5,2.2,1.8s-0.6,0.5-1.6,0c-0.9-0.5-2-0.5-2.6-0.7c0,0-0.5-0.1-0.6,0.1c0,0-0.1,0.1-0.4,0c-0.3-0.1-0.8-0.3-1.5-0.2
			s-1,0.3-0.9,0.8s0.4,0.8,0.5,1c0.2,0.1-0.6,0.4-1.9,0.3c-1.3,0-1.6,0.4-1.6,0.7s0.9,0.5,0.1,0.8c-0.8,0.3-4.3,2.4-1.5,2.6
			c2.8,0.2,2.7,0.7,2.7,0.8c0,0-0.2,0.8,1.2,0.8s2.5-0.4,2.6-0.2c0.1,0.1-0.7,0.8-0.4,1c0.2,0.3,0,0.2-0.1,0.5
			c-0.2,0.3,0.4,0.4,1.1,0.4c0.7,0,1.7-0.4,2.4-1c0.2-0.2,0.9-0.1,1.5-0.6c1.4-1.2,3.7-1.1,2.1,0c0,0-2.5,1.5-2.6,2s0.5,0.7,0.5,0.7
			s0.1,0.1-0.2,0.2c-0.3,0.2-1.7,1.3-1.7,1.6s0.7,0.6,0.5,0.7c-0.2,0.2-1.1,0.6-0.4,1.1c0.6,0.3,0.1,0.4-0.3,1
			c-0.6,0.9-0.1,1.7,1.8,0.7c0,0,0.3-0.1,0.6-0.1c0.3,0.1,0.7,0,0.9-0.2c0.2-0.3,0.4-0.5,1-0.5s1-0.3,1.5-0.8
			c0.2-0.2,0.3,0.2,0.4,0.4c0.1,0.2,0.7,0.9,1.5,0.4c0,0,1.1-0.9,1.3-1.7s0.6-1.3,0.8-1.7c0.3-0.4,0.4,0.1,0.5,0.5s0.7,0.6,0.4,1.6
			C237.6,159.6,238.7,159.6,239.2,159.1z"/>
		<ellipse transform="matrix(0.9344 -0.3562 0.3562 0.9344 -42.9904 96.9308)" class="st0" cx="241.7" cy="165.2" rx="3.2" ry="3"/>
		<ellipse transform="matrix(0.9861 -0.1662 0.1662 0.9861 -24.0191 41.1733)" class="st0" cx="234" cy="164.1" rx="2.1" ry="1.9"/>
		
			<ellipse transform="matrix(0.9861 -0.1662 0.1662 0.9861 -24.8959 41.2968)" class="st0" cx="234.3" cy="169.4" rx="2.1" ry="1.9"/>
		
			<ellipse transform="matrix(0.9861 -0.1661 0.1661 0.9861 -24.6419 40.3473)" class="st0" cx="228.9" cy="167.5" rx="1.2" ry="1.1"/>
		<ellipse transform="matrix(0.3562 -0.9344 0.9344 0.3562 32.6984 310.5657)" class="st0" cx="241.7" cy="131.6" rx="3" ry="3.2"/>
		
			<ellipse transform="matrix(0.1662 -0.9861 0.9861 0.1662 64.3489 341.4221)" class="st0" cx="234.1" cy="132.7" rx="1.9" ry="2.1"/>
		
			<ellipse transform="matrix(0.1662 -0.9861 0.9861 0.1662 69.6901 337.2436)" class="st0" cx="234.3" cy="127.4" rx="1.9" ry="2.1"/>
		
			<ellipse transform="matrix(0.1661 -0.9861 0.9861 0.1661 63.3639 333.4236)" class="st0" cx="228.8" cy="129.2" rx="1.1" ry="1.2"/>
		<path class="st0" d="M457.2,147.5h-30.8c-0.6,0-1.1,0.5-1.1,1.1s0.5,1.1,1.1,1.1h30.8c0.6,0,1.1-0.5,1.1-1.1
			C458.2,148,457.8,147.5,457.2,147.5z"/>
		<path class="st0" d="M437.3,143.2c0-0.6-0.5-1.1-1.1-1.1h-12.1c-0.6,0-1.1,0.5-1.1,1.1s0.5,1.1,1.1,1.1h12.1
			C436.9,144.3,437.3,143.8,437.3,143.2z"/>
		<path class="st0" d="M423.1,154c0,0.6,0.5,1.1,1.1,1.1h12.1c0.6,0,1.1-0.5,1.1-1.1s-0.5-1.1-1.1-1.1h-12.1
			C423.6,153,423.1,153.4,423.1,154z"/>
		<path class="st0" d="M180.8,149.7h30.8c0.6,0,1.1-0.5,1.1-1.1s-0.5-1.1-1.1-1.1h-30.8c-0.6,0-1.1,0.5-1.1,1.1
			C179.8,149.2,180.2,149.7,180.8,149.7z"/>
		<path class="st0" d="M200.7,154c0,0.6,0.5,1.1,1.1,1.1h12.1c0.6,0,1.1-0.5,1.1-1.1s-0.5-1.1-1.1-1.1h-12.1
			C201.1,153,200.7,153.4,200.7,154z"/>
		<path class="st0" d="M214.9,143.2c0-0.6-0.5-1.1-1.1-1.1h-12.1c-0.6,0-1.1,0.5-1.1,1.1s0.5,1.1,1.1,1.1h12.1
			C214.4,144.3,214.9,143.8,214.9,143.2z"/>
		<path class="st0" d="M319,225c-0.6,0-1.1,0.5-1.1,1.1v30.8c0,0.6,0.5,1.1,1.1,1.1s1.1-0.5,1.1-1.1v-30.8
			C320.1,225.5,319.6,225,319,225z"/>
		<path class="st0" d="M324.4,222.9c-0.6,0-1.1,0.5-1.1,1.1v12c0,0.6,0.5,1.1,1.1,1.1s1.1-0.5,1.1-1.1v-12.1
			C325.5,223.3,325,222.9,324.4,222.9z"/>
		<path class="st0" d="M313.6,222.9c-0.6,0-1.1,0.5-1.1,1.1v12c0,0.6,0.5,1.1,1.1,1.1s1.1-0.5,1.1-1.1v-12.1
			C314.7,223.3,314.2,222.9,313.6,222.9z"/>
		<path class="st0" d="M319,70.1c0.6,0,1.1-0.5,1.1-1.1V38.2c0-0.6-0.5-1.1-1.1-1.1s-1.1,0.5-1.1,1.1V69
			C317.9,69.6,318.4,70.1,319,70.1z"/>
		<path class="st0" d="M313.6,72.2c0.6,0,1.1-0.5,1.1-1.1v-12c0-0.6-0.5-1.1-1.1-1.1s-1.1,0.5-1.1,1.1v12.1
			C312.5,71.8,313,72.2,313.6,72.2z"/>
		<path class="st0" d="M324.4,72.2c0.6,0,1.1-0.5,1.1-1.1v-12c0-0.6-0.5-1.1-1.1-1.1s-1.1,0.5-1.1,1.1v12.1
			C323.3,71.8,323.8,72.2,324.4,72.2z"/>
		<path class="st0" d="M275.1,150c0.4,0,0.7-0.4,0.7-0.7c0-0.6,0-1.1,0-1.7c0-5.7,1.1-11.2,3.3-16.4c0.2-0.4,0-0.8-0.4-0.9
			c-0.4-0.2-0.8,0-0.9,0.4c-2.2,5.4-3.4,11.1-3.4,17c0,0.6,0,1.2,0,1.8C274.4,149.7,274.7,150,275.1,150L275.1,150z"/>
		<ellipse transform="matrix(0.7381 -0.6746 0.6746 0.7381 -34.728 229.0969)" class="st0" cx="277.8" cy="159.3" rx="3" ry="3.2"/>
		
			<ellipse transform="matrix(0.5916 -0.8062 0.8062 0.5916 -10.4602 286.2991)" class="st0" cx="277.4" cy="153.5" rx="1.7" ry="1.8"/>
		<path class="st0" d="M290.9,173.5c0,0,0.6,2.1,0.4,2.4c-0.2,0.3-0.6,0.1-0.6,0.1s-0.1,0,0,0.2s0.2,1.6,0.1,1.7s-0.6-0.1-0.6,0.2
			c0,0.2,0.3,0.9-0.3,0.8c-0.5-0.1-0.3,0.1-0.3,0.6c-0.1,0.8-0.8,0.9-1.3-0.5c0,0-0.1-0.2-0.3-0.3c-0.2-0.1-0.4-0.4-0.4-0.6
			c0-0.2,0.1-0.5-0.3-0.8c-0.3-0.3-0.4-0.7-0.4-1.2c0-0.2-0.3-0.1-0.4,0c-0.2,0-0.9,0.1-1-0.6c0,0-0.1-1.1,0.2-1.6
			c0.3-0.5,0.4-1,0.4-1.3c0.1-0.3-0.3-0.1-0.5,0c-0.3,0.1-0.6,0-1,0.6c-0.4,0.7-0.9,0.1-1-0.4c0,0,0-0.7,0-0.9s0.1-0.9,0.5-1.5
			s0.5-0.8,0.7-1s0.6-0.4,0.4-0.5s-0.7-0.1-0.6-0.7c0.1-0.5,0.5-0.6,0.7-0.7c0.2-0.1,0.9-0.4,1.3-0.4c0.3,0,1.2,0.2,1.6,0.1
			c-1.3-2.3-2.5-6.2,0.8-10.2c2-2.3,3.4-4.8,4.2-7.2c-8.1,2.9-9.6-4.3-8.5-6.9c1.4-3.5,7.2-5.7,9.8-0.3c0.8,1.6,0.9,3.3,0.5,5.1
			c1.1-0.6,2-1.4,2.8-2.3c-0.1,0-0.3-0.1-0.4-0.2c-0.2-0.2-0.4-0.3-0.4-0.5c0-0.1,0-0.4,0-0.8v-7.4c0-1.1,0.2-2,0.5-2.7
			s0.7-1.3,1.2-1.8c0.6-0.7,1.1-1.3,1.5-1.8s0.8-0.8,1.1-1.2c0.3-0.3,0.6-0.7,0.9-1s0.6-0.7,1-1.2c0.3-0.3,0.6-0.6,0.8-0.9
			c0.2-0.3,0.4-0.5,0.6-0.8s0.4-0.6,0.7-0.9c0.2-0.3,0.5-0.7,0.9-1.2c0.4-0.6,0.7-1,0.8-1.4c0.1-0.4,0.2-0.7,0.2-1.1s0-0.7,0-1.1
			s0-0.7-0.1-1s-0.2-0.5-0.4-0.7c-0.2-0.2-0.4-0.2-0.8-0.2s-0.7,0.1-0.8,0.3c-0.2,0.2-0.3,0.5-0.4,0.8s-0.1,0.6-0.1,1s0,0.7,0,1v0.8
			c0,0.1-0.2,0.2-0.5,0.3c-0.3,0.1-0.7,0.2-1.1,0.2c-0.4,0.1-0.8,0.1-1.3,0.1c-0.4,0-0.8,0-1.1,0c-0.3,0-0.6,0-1,0s-0.7,0-1.1-0.1
			c-0.3-0.1-0.6-0.1-0.9-0.2c-0.2-0.1-0.3-0.2-0.3-0.4v-2.8c0-1.2,0.2-2.4,0.6-3.4s1-1.9,1.8-2.6s1.7-1.3,2.7-1.7
			c1.1-0.4,2.2-0.6,3.5-0.6c2.6,0,4.7,0.7,6.3,2.2c1.5,1.4,2.3,3.5,2.3,6.1v2.1c0,1.1-0.2,2.1-0.6,3c-0.4,1-0.8,1.8-1.4,2.7
			c-0.5,0.8-1.1,1.6-1.7,2.3s-1.1,1.2-1.5,1.7c-0.5,0.5-0.9,1-1.2,1.3c-0.3,0.3-0.6,0.6-0.9,0.9c-0.3,0.3-0.5,0.6-0.8,0.9
			c-0.3,0.3-0.7,0.7-1.1,1.2c-0.5,0.5-0.8,0.9-0.8,1.3v1.2c0,0.4,0,0.6,0,0.6c0,0.1,0.1,0.2,0.3,0.3c0.1,0.1,0.3,0.2,0.5,0.2
			s0.4,0,0.7,0h7.9c0.2,0,0.3,0.1,0.4,0.4c0.1,0.3,0.2,0.6,0.2,0.9c0.1,0.4,0.1,0.7,0.1,1.1c0,0.4,0,0.8,0,1.1s0,0.7,0,1.1
			c0,0.4-0.1,0.9-0.1,1.3c0,0.4-0.1,0.7-0.3,1c-0.1,0.3-0.3,0.4-0.5,0.4h-14.4c-1,1.4-2.3,2.6-3.9,3.4c-0.3,0.1-0.6,0.3-0.8,0.4
			c-1.2,3.8-4,7.5-5.9,10.1c-1.9,2.5-1.1,5.5-0.2,7.6c0.1-0.4,0-1.2,0.2-1.6c0.2-0.5,0.6-1.8,0.6-2c0-0.3,0.5-0.7,0.9,0.1
			c0.3,0.4-0.1-0.7,1.5-1.7c0,0,0.7-0.4,1.2-0.6c0,0,0.6-1.1,1.2-0.9c0.6,0.2,0.2,2.3-0.4,3.4c-0.6,1.1,0.9,0.4,1.1,0.2
			s0.9-0.5,1.5-0.3s0.6-0.6,1.7,0s-1.4,1.6,0.1,1.9c1.5,0.3,2.5,1.2,2.2,1.5c-0.3,0.4,0.6,0.4,0.9,0.5s0.6,0.7,1.3,1
			c0.7,0.2,1.2,0.9,1.2,1.2c-0.1,0.3-0.8,0.6-1.8,0.4c0,0-0.1,0.5-1.1,0.2c-0.8-0.2,0.2,0.7-1.4,0.2s-1,0.1-1.9-0.2
			s-2.1-0.5-2.1-0.1c0,0.3,0.1,0.6,0.8,0.8c0.8,0.2,1.3,0.7,1.7,1c0,0,0.3,0.2,0.3,0.4c0,0,0,0.1,0.2,0.2c0.2,0.1,0.6,0.3,0.9,0.7
			s0.4,0.7,0.1,0.9s-0.6,0.2-0.8,0.2c-0.1,0,0.1,0.5,0.9,1.2c0.7,0.7,0.6,1,0.5,1.2c-0.1,0.1-0.7-0.2-0.4,0.4c0.3,0.6,1,3.4-0.6,2.1
			c-1.6-1.3-1.8-1-1.9-0.9c0,0-0.3,0.5-1.1-0.2c-0.7-0.7-1.2-1.5-1.3-1.5c-0.1,0,0,0.7-0.3,0.8c-0.3,0-0.1,0.1-0.2,0.3
			c-0.1,0.3-0.4,0-0.8-0.4s-0.7-1.1-0.8-1.7c0-0.2-0.4-0.5-0.5-1.1C291.9,173.2,290.6,172,290.9,173.5z M293.6,148.5
			c0.8-3.5,0.1-6.4-2.6-7.3c-7.5-2.3-7.7,11.1,2.1,7.5C293.2,148.7,293.4,148.6,293.6,148.5z"/>
		
			<ellipse transform="matrix(0.5916 -0.8063 0.8063 0.5916 -13.9615 294.8956)" class="st0" cx="284.1" cy="161.2" rx="1.9" ry="2.1"/>
		
			<ellipse transform="matrix(0.5916 -0.8062 0.8062 0.5916 -18.8052 293.3882)" class="st0" cx="280.2" cy="165.3" rx="1.7" ry="1.9"/>
		<path class="st0" d="M361.7,147.6c0,6.4-1.4,12.6-4.1,18.3c-0.2,0.4,0,0.8,0.3,1c0.1,0,0.2,0.1,0.3,0.1c0.3,0,0.5-0.2,0.7-0.4
			c2.8-5.9,4.2-12.3,4.2-18.9c0-0.4-0.3-0.7-0.7-0.7S361.7,147.2,361.7,147.6z"/>
		<path class="st0" d="M348.1,178.9c-8,7.5-18.4,11.6-29.3,11.6c-9.3,0-18.2-2.9-25.6-8.5c-0.3-0.2-0.8-0.2-1,0.1s-0.2,0.8,0.1,1
			c7.7,5.7,16.9,8.8,26.5,8.8c11.3,0,22.1-4.3,30.3-12c0.3-0.3,0.3-0.7,0-1C348.8,178.7,348.4,178.7,348.1,178.9z"/>
		<path class="st0" d="M358.3,132.5c0,0,0.1,0.2,0.3,0.4c0.2,0.2,0.4,0.5,0.3,0.8s-0.2,0.6,0.2,0.9c0.3,0.4,0.3,0.8,0.3,1.4
			c0,0.3,0.3,0.1,0.5,0.1s1,0,1,0.8c0,0-0.1,1.2-0.5,1.8s-0.6,1-0.7,1.4s0.3,0.2,0.6,0.1c0.3-0.1,0.7,0.1,1.3-0.5
			c0.5-0.7,1.1,0.1,1,0.7c0,0-0.1,0.8-0.1,1.1c0,0.2-0.2,1-0.8,1.6c-0.6,0.6-0.7,0.8-1,1s-0.7,0.3-0.5,0.5c0.2,0.1,0.8,0.3,0.6,0.9
			c-0.2,0.6-0.6,0.5-0.9,0.7c-0.3,0.1-1.1,0.3-1.5,0.2s-1.7-0.6-2-0.3c-0.1,0.1-0.1,0.2-0.1,0.3c0.7,1.3,3.7,7.9-2.6,12.2
			c-2.5,1.8-4.6,3.9-6.1,6.1c8.8-0.8,8.4,6.7,6.7,9c-2.3,3.2-8.6,3.8-9.8-2.2c-0.3-1.8,0-3.5,0.8-5.2c-5.7,1.6-8.5,6.1-9.8,8.9v0.8
			c0,2.6-0.8,4.6-2.4,6s-3.7,2.2-6.4,2.2c-1.3,0-2.4-0.2-3.5-0.6c-1.1-0.4-2-0.9-2.8-1.7c-0.8-0.7-1.4-1.6-1.8-2.6s-0.7-2.1-0.7-3.4
			v-13.8c0-0.7,0-1.3,0.1-1.9c0-0.6,0.1-1.1,0.3-1.7c0.1-0.5,0.3-1.1,0.6-1.6c0.3-0.5,0.6-1.1,1.1-1.8c0.4-0.5,0.9-1.1,1.5-1.8
			s1.5-1.3,2.6-2c1.1-0.6,2.6-1.2,4.3-1.7c1.8-0.5,4-0.7,6.7-0.8c0.1,0,0.2,0.1,0.2,0.4s0.1,0.6,0.1,1s0,0.7,0,1.1
			c0,0.3,0,0.6,0,0.7c0,0.1,0,0.4,0,0.7s0,0.7,0,1.1c0,0.4-0.1,0.7-0.1,1c-0.1,0.3-0.1,0.5-0.2,0.5c-1.3,0.2-2.4,0.3-3.3,0.5
			c-0.9,0.1-1.7,0.3-2.3,0.5c-0.6,0.2-1.2,0.4-1.7,0.7s-0.9,0.6-1.4,1.1s-0.7,1-0.8,1.5c-0.1,0.5-0.1,1-0.1,1.4v1.6
			c0,0.2,0,0.4,0,0.6c0,0.2,0.1,0.4,0.2,0.4c0,0,0.1-0.1,0.2-0.2c0.1-0.1,0.3-0.3,0.6-0.5c0.3-0.2,0.7-0.3,1.3-0.5
			c0.6-0.1,1.3-0.2,2.2-0.2c0.5,0,1.1,0.1,1.8,0.3c0.7,0.2,1.3,0.6,1.8,1.2c0.6,0.6,1,1.5,1.4,2.6s0.6,2.5,0.6,4.3v2.4
			c1.8-2.9,4.9-6.6,9.6-7.7c0.3-0.1,0.6-0.1,0.9-0.2c2.2-3.5,5.9-6.5,8.6-8.5c3.7-2.9,2-8.6,1.6-10c-0.1,0.5-0.1,1.2-0.4,1.6
			c-0.4,0.5-1,1.9-1.1,2.2s-0.7,0.7-1-0.2c-0.3-0.5,0,0.8-2,1.6c0,0-0.8,0.4-1.5,0.4c0,0-0.9,1.2-1.5,0.8c-0.7-0.4,0.2-2.7,1-3.8
			s-0.9-0.6-1.2-0.4c-0.3,0.2-1,0.4-1.7,0s-0.8,0.6-1.9-0.3c-1.2-0.8,1.8-1.6,0.2-2.2c-1.6-0.6-2.6-1.7-2.2-2.1
			c0.4-0.4-0.6-0.5-0.9-0.8c-0.3-0.2-0.6-0.9-1.3-1.3c-0.8-0.4-1.2-1.3-1.1-1.6s1-0.5,2.1-0.1c0,0,0.2-0.5,1.3-0.1
			c0.9,0.4-0.1-0.8,1.7,0c1.8,0.8,1.1,0.1,2.1,0.6s2.3,0.9,2.3,0.5c0.1-0.4,0-0.7-0.8-1.1c-0.8-0.4-1.4-1.1-1.8-1.4
			c0,0-0.3-0.3-0.3-0.4c0,0,0-0.2-0.2-0.3s-0.6-0.4-0.9-0.9s-0.3-0.8,0.1-1s0.8-0.2,0.9-0.1c0.2,0-0.1-0.6-0.8-1.5
			c-0.7-0.9-0.5-1.3-0.3-1.4c0.2-0.1,0.8,0.3,0.6-0.4c-0.2-0.7-0.6-4.1,1-2.3s1.8,1.4,1.9,1.4c0,0,0.4-0.5,1.2,0.4
			c0.7,1,1.1,1.9,1.2,1.9s0.2-0.8,0.5-0.8s0.2-0.1,0.3-0.3c0.1-0.3,0.5,0,0.8,0.6c0.4,0.5,0.6,1.4,0.6,2.1c-0.1,0.2,0.4,0.6,0.4,1.3
			c-0.1,1.6,1.2,3.1,1.1,1.4c0,0-0.3-2.4,0-2.8c0.3-0.3,0.7,0,0.7,0s0.1,0,0-0.3c0-0.3,0-1.8,0.2-2s0.7,0.2,0.7-0.1
			s-0.2-1.1,0.5-0.8c0.5,0.2,0.3-0.1,0.5-0.7C357.1,130.9,358,130.8,358.3,132.5z M327.8,169.2c0-0.4,0-0.7-0.1-1s-0.2-0.5-0.4-0.7
			c-0.2-0.2-0.5-0.3-0.8-0.3c-0.4,0-0.7,0.1-0.9,0.3c-0.2,0.2-0.3,0.4-0.4,0.7s-0.1,0.6-0.1,1s0,0.7,0,1.1v3.4c0,0.4,0,0.7,0,1.1
			s0,0.7,0.1,1s0.2,0.5,0.4,0.7c0.2,0.2,0.5,0.3,0.9,0.3s0.7-0.1,0.8-0.3c0.2-0.2,0.3-0.4,0.4-0.7s0.1-0.6,0.1-1s0-0.7,0-1.1v-3.4
			C327.8,169.9,327.8,169.5,327.8,169.2z M347.1,165.6c-0.2,0-0.4,0.1-0.6,0.1c-1.8,3.3-1.8,6.4,0.7,7.9
			C354.1,177.8,357.7,164.6,347.1,165.6z"/>
		
			<ellipse transform="matrix(0.9398 -0.3417 0.3417 0.9398 -34.4043 104.4951)" class="st0" cx="279.4" cy="149.9" rx="1.1" ry="1.2"/>
		<path class="st0" d="M304.1,176.4c0,0.3,0,0.6,0,0.9c0,0.3-0.1,0.5-0.2,0.6s-0.3,0.1-0.4,0.1c-0.2,0-0.3,0-0.5,0h-2
			c-0.2,0-0.3,0.1-0.4,0.3s-0.2,0.5-0.3,0.8c-0.1,0.3-0.1,0.6-0.1,1s0,0.7,0,1s0,0.6,0,1c0,0.3,0.1,0.6,0.1,0.9
			c0,0.3,0.1,0.5,0.2,0.7s0.2,0.3,0.4,0.3h14.2c0.1,0,0.2-0.1,0.3-0.3c0.1-0.2,0.1-0.5,0.2-0.8c0-0.3,0.1-0.6,0.1-1
			c0-0.3,0-0.6,0-0.9c0-0.3,0-0.7,0-1c0-0.4,0-0.7-0.1-1c0-0.3-0.1-0.5-0.2-0.7s-0.2-0.3-0.3-0.3h-2.6c-0.1,0-0.2,0-0.4,0
			c-0.2,0-0.3-0.1-0.4-0.2c-0.1-0.1-0.1-0.3-0.1-0.6s0-0.5,0-0.8v-26.1c0-0.3,0-0.6,0-1s-0.2-0.6-0.5-0.6s-0.7,0-1.3,0
			c-0.6,0-1.3,0-2.1,0.1c-0.7,0-1.5,0.1-2.1,0.1c-0.7,0-1.2,0.1-1.5,0.2c-0.1,0-0.2,0.2-0.3,0.4c-0.1,0.2-0.2,0.4-0.3,0.7
			c-0.1,0.3-0.3,0.6-0.4,0.8c-0.2,0.3-0.3,0.5-0.5,0.7c-0.4,0.4-0.9,0.7-1.3,1.1c-0.4,0.4-0.7,0.7-0.7,1c-0.1,0.3-0.1,0.6-0.1,1.1
			c0,0.4,0,0.9,0,1.4s0,0.9,0.1,1.4c0,0.4,0.1,0.8,0.1,1s0.1,0.3,0.2,0.3s0.2,0,0.4-0.1c0.1-0.1,0.3-0.2,0.4-0.3s0.3-0.3,0.4-0.4
			c0.3-0.2,0.6-0.4,1-0.8c0.4-0.3,0.7-0.5,1-0.5c0.1,0,0.2,0.1,0.2,0.5c0,0.3,0,0.6,0,0.8v18.2L304.1,176.4L304.1,176.4z"/>
		<path class="st0" d="M321.5,143.3c-0.8-0.7-1.4-1.6-1.8-2.6s-0.7-2.1-0.7-3.4v-18.6c0-1.2,0.2-2.4,0.7-3.4c0.4-1,1-1.9,1.8-2.6
			s1.7-1.3,2.8-1.7c1.1-0.4,2.2-0.6,3.5-0.6c2.6,0,4.8,0.7,6.4,2.2c1.6,1.4,2.4,3.5,2.4,6.1v18.6c0,2.6-0.8,4.6-2.4,6.1
			c-1.6,1.4-3.7,2.2-6.4,2.2c-1.3,0-2.4-0.2-3.5-0.6C323.2,144.6,322.3,144,321.5,143.3z M326.5,120.7v14.5c0,0.4,0,0.7,0,1.1
			c0,0.4,0,0.7,0.1,1s0.2,0.5,0.4,0.7c0.2,0.2,0.5,0.3,0.9,0.3s0.7-0.1,0.8-0.3c0.2-0.2,0.3-0.4,0.4-0.7s0.1-0.6,0.1-1s0-0.7,0-1.1
			c0-1.4,0-2.7,0-3.9s0-2.3,0-3.4s0-2.2,0-3.4c0-1.2,0-2.5,0-3.9c0-0.3,0-0.7,0-1.1s0-0.7-0.1-1s-0.2-0.5-0.4-0.7
			c-0.2-0.2-0.5-0.3-0.8-0.3c-0.4,0-0.7,0.1-0.9,0.3c-0.2,0.2-0.3,0.4-0.4,0.7s-0.1,0.6-0.1,1C326.5,120,326.5,120.4,326.5,120.7z"
			/>
		<ellipse transform="matrix(0.9886 -0.1504 0.1504 0.9886 -16.9046 45.0834)" class="st0" cx="289.6" cy="134.3" rx="3" ry="3.2"/>
		<path class="st0" d="M336.9,97.7c0.1-0.1,0.1-0.1,0.1-0.2l0.1-0.4c0-0.1,0-0.1,0.1-0.2c0-0.1,0-0.1,0-0.2s0-0.1,0-0.2l-0.1-0.1
			c-0.1,0-0.1-0.1-0.2-0.1c0,0,0,0-0.1,0.1l-0.4,1c0,0.1,0,0.1,0,0.1s0.1,0,0.2,0.1C336.8,97.8,336.9,97.8,336.9,97.7z"/>
		<path class="st0" d="M345.1,103.7C345.2,103.8,345.2,103.7,345.1,103.7c0.2-0.2,0.2-0.3,0.3-0.4c0.1-0.1,0.1-0.2,0.2-0.3
			c0.1-0.1,0.1-0.2,0.2-0.4c0.1-0.1,0.1-0.3,0.2-0.5c0,0,0,0,0-0.1c0,0,0-0.1,0.1-0.1v-0.1v-0.1c0,0,0,0-0.1,0l-0.1,0.1l-0.1,0.1
			v0.1c-0.1,0.1-0.2,0.3-0.3,0.4c-0.1,0.1-0.2,0.2-0.2,0.3c-0.1,0.1-0.1,0.2-0.2,0.3c-0.1,0.1-0.1,0.2-0.2,0.3v0.1
			c0,0,0.1,0,0.1,0.1C345.1,103.7,345.1,103.7,345.1,103.7z"/>
		<path class="st0" d="M297.9,98.7C297.9,98.7,297.9,98.8,297.9,98.7c0.1,0.1,0.2,0.1,0.3,0c0.1,0,0.2-0.1,0.2-0.2s0-0.2,0-0.2
			l-0.2-0.4c0-0.1-0.1-0.1-0.1-0.2s-0.1-0.1-0.1-0.2l-0.1-0.1c0,0-0.1,0-0.2,0s-0.1,0.1-0.2,0.1v0.1L297.9,98.7z"/>
		<path class="st0" d="M289.2,104L289.2,104c0.1,0.1,0.2,0,0.3,0c0.1,0,0.1-0.1,0.1-0.1s0-0.1,0-0.2s0-0.1-0.1-0.2
			c0-0.1-0.1-0.1-0.1-0.2l-0.3-0.5c0-0.1-0.1-0.1-0.1-0.2s-0.1-0.1-0.1-0.1l-0.1-0.1c0,0-0.1,0-0.2,0c-0.1,0.1-0.2,0.1-0.2,0.1v0.1
			L289.2,104z"/>
		
			<ellipse transform="matrix(0.7344 -0.6788 0.6788 0.7344 -21.9103 308.4355)" class="st0" cx="383.1" cy="182.2" rx="2.9" ry="2.7"/>
		<path class="st0" d="M387.4,166c0.1,0,0.2,0,0.3,0c0.6,0,1.1-0.4,1.2-1c1.4-5.7,2.1-11.6,2.1-17.5c0-5.6-0.6-11.2-1.9-16.6
			c-0.2-0.7-0.8-1.1-1.5-0.9c-0.7,0.2-1.1,0.8-0.9,1.5c1.2,5.2,1.9,10.6,1.9,16.1c0,5.7-0.7,11.4-2.1,16.9
			C386.3,165.2,386.7,165.9,387.4,166z"/>
		<path class="st0" d="M382.9,94.7c0,0,9.2,3.2,6.9,12.2c-0.8,3.3-1,6.6-0.7,9.4c6.8-6.9,11.8-0.4,12.1,2.7c0.3,4.3-4.5,9.3-9.8,5.2
			c-1.6-1.2-2.5-3-3.1-4.9c-1.3,2-2,4-2.4,6l-1.3-0.4c0.3-2.2,1.1-4.5,2.6-6.6c0.2-0.3,0.4-0.6,0.6-0.8c-0.7-4.4,0.3-9.6,1-13.2
			C390.2,98.5,382.9,94.7,382.9,94.7z M389.4,117.9c0.9,4,3.1,6.6,6.3,6.1c8.7-1.4,2.3-15.1-5.9-6.6
			C389.7,117.6,389.6,117.7,389.4,117.9z"/>
		
			<ellipse transform="matrix(0.7345 -0.6786 0.6786 0.7345 -26.6338 311.6666)" class="st0" cx="385" cy="189.9" rx="2.4" ry="2.2"/>
		<path class="st0" d="M301.1,195.1c-0.1,0-0.1,0-0.2,0l-0.1,0.1c0,0-0.1,0.1-0.1,0.2c0,0.1,0,0.1-0.1,0.2l-1,2.7
			c0,0.1-0.1,0.1-0.1,0.2c0,0.1,0,0.1-0.1,0.2c0,0.1,0,0.1,0,0.2l0.1,0.1c0.1,0,0.1,0,0.2,0l0.1-0.1c0,0,0.1-0.1,0.1-0.2
			c0-0.1,0.1-0.1,0.1-0.2c0.1-0.3,0.2-0.5,0.3-0.7c0.1-0.2,0.2-0.4,0.2-0.6c0.1-0.2,0.2-0.4,0.2-0.6c0.1-0.2,0.2-0.5,0.3-0.7
			c0-0.1,0-0.1,0.1-0.2c0-0.1,0-0.1,0-0.2c0-0.1,0-0.1,0-0.2C301.2,195.2,301.2,195.1,301.1,195.1z"/>
		
			<ellipse transform="matrix(0.9885 -0.1509 0.1509 0.9885 -17.3698 44.2988)" class="st0" cx="283.2" cy="136.6" rx="2.4" ry="2.6"/>
		<ellipse transform="matrix(0.94 -0.3413 0.3413 0.94 -25.6556 103.7762)" class="st0" cx="282.1" cy="124.8" rx="1.6" ry="1.7"/>
		<ellipse transform="matrix(0.94 -0.3413 0.3413 0.94 -24.3067 105.0506)" class="st0" cx="286.4" cy="121.6" rx="1.1" ry="1.2"/>
		
			<ellipse transform="matrix(0.7382 -0.6746 0.6746 0.7382 -29.2943 231.8816)" class="st0" cx="284.1" cy="153.7" rx="3.2" ry="3.5"/>
		
			<ellipse transform="matrix(0.9399 -0.3414 0.3414 0.9399 -27.4525 104.4054)" class="st0" cx="282.9" cy="130.2" rx="1.9" ry="2.1"/>
		
			<ellipse transform="matrix(0.9399 -0.3415 0.3415 0.9399 -26.0254 105.7696)" class="st0" cx="287.4" cy="126.8" rx="1.9" ry="2.1"/>
		
			<ellipse transform="matrix(0.9399 -0.3414 0.3414 0.9399 -24.3021 106.9092)" class="st0" cx="291.6" cy="122.5" rx="1.9" ry="2.1"/>
		<path class="st0" d="M348.5,191.4c-0.1-0.1-0.2-0.2-0.3-0.3c-0.1-0.1-0.2-0.3-0.3-0.4c0,0,0,0-0.1-0.1l-0.1-0.1l-0.1-0.1h-0.1
			c0,0,0,0,0,0.1c0,0,0,0.1,0.1,0.1c0,0.1,0.1,0.1,0.1,0.1s0,0.1,0.1,0.1c0.1,0.2,0.2,0.3,0.2,0.4c0.1,0.1,0.1,0.2,0.2,0.3
			s0.1,0.2,0.2,0.3s0.1,0.2,0.2,0.4c0,0,0,0,0.1,0c0,0,0.1,0,0.1-0.1c0.1,0,0.1-0.1,0.1-0.1s0,0,0-0.1c-0.1-0.1-0.2-0.2-0.2-0.3
			C348.7,191.6,348.6,191.5,348.5,191.4z"/>
		<ellipse transform="matrix(0.9935 -0.1135 0.1135 0.9935 -15.0315 39.9809)" class="st0" cx="343.6" cy="152" rx="2.5" ry="2.7"/>
		<ellipse transform="matrix(0.9887 -0.15 0.15 0.9887 -15.8669 45.6379)" class="st0" cx="294.6" cy="128" rx="2.7" ry="2.9"/>
		<ellipse transform="matrix(0.9935 -0.1135 0.1135 0.9935 -15.3939 40.6164)" class="st0" cx="349" cy="155.5" rx="1.9" ry="2.1"/>
		<ellipse transform="matrix(0.7344 -0.6788 0.6788 0.7344 15.4344 206.882)" class="st0" cx="272" cy="83.7" rx="3" ry="2.8"/>
		<ellipse transform="matrix(0.7344 -0.6788 0.6788 0.7344 19.2883 212.0069)" class="st0" cx="280.5" cy="81.4" rx="3" ry="2.8"/>
		
			<ellipse transform="matrix(0.7344 -0.6787 0.6787 0.7344 13.8689 212.0592)" class="st0" cx="277.9" cy="88.3" rx="2.4" ry="2.2"/>
		<path class="st0" d="M275.1,101.7c0.2,0.3,0.6,0.4,0.9,0.4s0.6-0.1,0.9-0.3c11.5-10.5,26.3-16.2,41.9-16.2
			c14.4,0,28.4,5,39.5,14.2c0.5,0.4,1.3,0.4,1.8-0.2c0.4-0.5,0.4-1.3-0.2-1.8C348.3,88.2,333.7,83,318.7,83
			c-16.2,0-31.6,6-43.6,16.9C274.7,100.3,274.6,101.1,275.1,101.7z"/>
		<path class="st0" d="M249.7,130.7c-0.7-0.2-1.4,0.3-1.5,1c-1.2,5.2-1.8,10.6-1.8,16c0,5.6,0.6,11.2,1.9,16.7c0.1,0.6,0.7,1,1.2,1
			c0.1,0,0.2,0,0.3,0c0.7-0.2,1.1-0.8,0.9-1.5c-1.2-5.2-1.9-10.7-1.9-16.1c0-5.2,0.6-10.4,1.7-15.4
			C250.8,131.5,250.4,130.8,249.7,130.7z"/>
		<path class="st0" d="M252.9,93.6c0.4,0.2,1.8,0.7,1.8,1.1c0.1,0.5-0.8,1.3-0.9,1.9c-0.1,0.7-0.5,2.2-0.7,2.5c-0.1,0.3,0.1,1,1,0.5
			c0.6-0.2-0.5,0.6,0.4,2.6c0,0,0.4,0.9,0.9,1.4c0,0-0.1,1.5,0.7,1.7c0.8,0.2,1.7-2.2,1.8-3.7c0.1-1.4,1.1,0.2,1.2,0.5
			c0.1,0.4,0.6,1,1.3,1.2c0.8,0.2,0.2,1,1.7,1.1s-0.4-2.5,1.3-1.8c1.7,0.6,3.2,0.4,3.1-0.2s0.8,0,1.2,0c0.4,0,1.1-0.4,2-0.1
			c0.9,0.2,1.8-0.2,2-0.5c0.1-0.4-0.4-1.1-1.6-1.5c0,0,0.2-0.6-1-0.9c-1-0.3,0.6-0.5-1.3-1.1c-2-0.6-0.9-0.7-2.1-1
			c-1.1-0.2-2.4-0.8-2.2-1.2c0.2-0.3,0.5-0.6,1.3-0.3c0.9,0.3,1.8,0.1,2.3,0.1c0,0,0.4,0,0.5-0.2c0,0,0.1-0.1,0.3-0.1
			c0.2,0.1,0.8,0.1,1.3-0.1c0.6-0.2,0.8-0.5,0.7-0.9c-0.1-0.4-0.5-0.7-0.6-0.7c-0.2-0.1,0.5-0.4,1.6-0.6s1.3-0.7,1.2-0.9
			c-0.1-0.2-0.8-0.3-0.2-0.7c0.6-0.4,3.3-2.8,0.8-2.5s-2.4-0.1-2.5-0.2c0,0,0-0.7-1.2-0.4c-1.2,0.3-2.1,0.8-2.2,0.7
			c-0.1-0.1,0.4-0.8,0.2-1c-0.3-0.2-0.1-0.2,0-0.5s-0.4-0.3-1.1-0.1c-0.6,0.2-1.4,0.6-1.9,1.3c-0.1,0.2-0.7,0.3-1.2,0.8
			c-1,1.3-3,1.6-1.8,0.4c0,0,1.9-1.7,1.9-2.2s-0.5-0.5-0.5-0.5s-0.1,0,0.2-0.3c0.2-0.2,1.2-1.4,1.2-1.7c0-0.2-0.7-0.4-0.5-0.5
			c0.2-0.2,0.9-0.7,0.2-1c-0.6-0.2-0.2-0.3,0.1-0.9c0.3-0.9-0.2-1.5-1.7-0.3c0,0-0.2,0.2-0.5,0.2s-0.6,0.1-0.8,0.4
			c-0.1,0.3-0.3,0.5-0.8,0.6s-0.8,0.4-1.2,0.9c-0.2,0.3-0.3-0.1-0.4-0.2c-0.2-0.1-0.8-0.7-1.3,0c0,0-0.8,1-0.8,1.7
			c-0.1,0.7-0.3,1.2-0.4,1.6c-0.1,0.4-0.4,0-0.5-0.3c-0.2-0.3-0.7-0.4-0.6-1.3c0-0.9-0.9-0.7-1.2-0.2c0,0-0.5,0.7-0.6,0.9
			c-0.2,0.2-0.5,1-0.4,1.8s0,1.1,0.1,1.4s0.3,0.7,0.1,0.7s-0.8-0.3-1,0.3c-0.2,0.6,0.1,0.9,0.3,1.2C252,92.7,252.5,93.4,252.9,93.6z
			"/>
		<path class="st0" d="M248.1,116.3c0.4-2.8,0.2-6.1-0.7-9.4c-2.3-9,6.9-12.2,6.9-12.2s-7.2,3.8-6.1,9.6c0.7,3.6,1.7,8.8,1,13.2
			c0.2,0.3,0.4,0.5,0.6,0.8c1.5,2,2.3,4.3,2.6,6.6l-1.3,0.4c-0.3-1.9-1-4-2.4-6c-0.5,2-1.5,3.7-3.1,4.9c-5.2,4.1-10.1-0.9-9.8-5.2
			C236.3,115.8,241.3,109.3,248.1,116.3z M247.8,117.9c-0.1-0.2-0.3-0.3-0.4-0.5c-8.1-8.5-14.6,5.2-5.9,6.6
			C244.7,124.5,246.9,121.9,247.8,117.9z"/>
		<ellipse transform="matrix(0.6786 -0.7345 0.7345 0.6786 55.8885 295.1538)" class="st0" cx="365.2" cy="83.7" rx="2.8" ry="3"/>
		<path class="st0" d="M285.2,86.2c0.2,0,0.4,0,0.6-0.1c10.1-5.4,21.4-8.2,32.9-8.2c10.9,0,21.4,2.5,31.2,7.3
			c0.6,0.3,1.4,0.1,1.7-0.6c0.3-0.6,0.1-1.4-0.6-1.7c-10.1-5-20.9-7.6-32.3-7.6c-11.9,0-23.7,3-34.1,8.5c-0.6,0.3-0.8,1.1-0.5,1.7
			C284.3,86,284.8,86.2,285.2,86.2z"/>
		<path class="st0" d="M370,88.2c-0.3,0.2,0.3,0.9,0.2,1c-0.1,0.1-1-0.4-2.2-0.7c-1.2-0.3-1.2,0.4-1.2,0.4c0,0.1,0,0.6-2.5,0.2
			c-2.4-0.3,0.2,2.1,0.8,2.5c0.6,0.4-0.1,0.4-0.2,0.7c-0.1,0.2,0.1,0.7,1.2,0.9c1.1,0.2,1.8,0.6,1.6,0.6c-0.2,0.1-0.5,0.3-0.6,0.7
			c-0.1,0.4,0.1,0.7,0.7,0.9c0.6,0.2,1.1,0.2,1.3,0.1c0.2-0.1,0.3,0.1,0.3,0.1c0.1,0.2,0.5,0.2,0.5,0.2c0.5,0,1.4,0.2,2.3-0.1
			c0.9-0.3,1.2,0,1.3,0.3c0.2,0.3-1.1,1-2.2,1.2s-0.1,0.4-2.1,1s-0.4,0.8-1.3,1.1c-1.2,0.3-1,0.9-1,0.9c-1.2,0.5-1.7,1.2-1.6,1.5
			c0.1,0.4,1.1,0.8,2,0.5c0.9-0.2,1.6,0.2,2,0.1c0.4,0,1.3-0.6,1.2,0c-0.1,0.6,1.4,0.8,3.1,0.2c1.7-0.6-0.2,2,1.3,1.8
			c1.5-0.1,1-0.9,1.7-1.1c0.8-0.2,1.2-0.8,1.3-1.2c0.1-0.3,1.1-2,1.2-0.5s1,3.8,1.8,3.7c0.8-0.1,0.7-1.7,0.7-1.7
			c0.5-0.5,0.9-1.4,0.9-1.4c0.9-2-0.1-2.8,0.4-2.6c0.9,0.5,1.1-0.2,1-0.5s-0.6-1.8-0.7-2.5s-1-1.5-0.9-1.9s1.5-1,1.8-1.1
			c0.4-0.2,0.9-0.9,1-1.2c0.1-0.3,0.5-0.5,0.3-1.2c-0.2-0.6-0.8-0.3-1-0.3s0-0.4,0.1-0.7c0.1-0.3,0-0.6,0.1-1.4s-0.3-1.6-0.4-1.8
			c-0.2-0.2-0.6-0.9-0.6-0.9c-0.4-0.5-1.3-0.8-1.2,0.2c0,0.9-0.5,1-0.6,1.3c-0.2,0.3-0.4,0.7-0.5,0.3c-0.1-0.4-0.4-0.9-0.4-1.6
			c-0.1-0.7-0.8-1.7-0.8-1.7c-0.5-0.6-1.2-0.1-1.3,0c-0.1,0.1-0.3,0.5-0.4,0.2c-0.3-0.5-0.7-0.8-1.2-0.9s-0.6-0.4-0.8-0.6
			c-0.1-0.3-0.5-0.4-0.8-0.4s-0.5-0.2-0.5-0.2c-1.4-1.2-2-0.5-1.7,0.3c0.2,0.6,0.6,0.7,0.1,0.9c-0.7,0.3,0,0.8,0.2,1
			s-0.5,0.3-0.5,0.5s1,1.5,1.2,1.7s0.2,0.3,0.2,0.3s-0.5,0-0.5,0.5S376,90,376,90c1.2,1.3-0.9,1-1.8-0.4c-0.5-0.5-1.1-0.6-1.2-0.8
			c-0.5-0.6-1.3-1.1-1.9-1.3c-0.6-0.2-1.1-0.2-1.1,0.1C370.1,88.1,370.3,88.1,370,88.2z"/>
		
			<ellipse transform="matrix(0.6787 -0.7344 0.7344 0.6787 50.5637 292.2317)" class="st0" cx="359.3" cy="88.3" rx="2.2" ry="2.4"/>
		<ellipse transform="matrix(0.6787 -0.7344 0.7344 0.6787 54.8338 288.204)" class="st0" cx="356.8" cy="81.4" rx="2.8" ry="3"/>
		
			<ellipse transform="matrix(0.7344 -0.6787 0.6787 0.7344 -47.2515 304.2947)" class="st0" cx="365.2" cy="212.5" rx="3" ry="2.8"/>
		
			<ellipse transform="matrix(0.7344 -0.6787 0.6787 0.7344 -45.6561 299.0805)" class="st0" cx="359.3" cy="207.9" rx="2.4" ry="2.2"/>
		<ellipse transform="matrix(0.6786 -0.7345 0.7345 0.6786 45.7598 316.9218)" class="st0" cx="385" cy="106.2" rx="2.2" ry="2.4"/>
		<path class="st0" d="M254.3,201.5c0,0-9.2-3.2-6.9-12.2c0.8-3.3,1-6.6,0.7-9.4c-6.8,6.9-11.8,0.4-12.1-2.7
			c-0.3-4.3,4.5-9.3,9.8-5.2c1.6,1.2,2.5,3,3.1,4.9c1.3-2,2-4,2.4-6l1.3,0.4c-0.3,2.2-1.1,4.5-2.6,6.6c-0.2,0.3-0.4,0.6-0.6,0.8
			c0.7,4.4-0.3,9.6-1,13.2C247.1,197.6,254.3,201.5,254.3,201.5z M247.8,178.3c-0.9-4-3.1-6.6-6.3-6.1c-8.7,1.4-2.3,15.1,5.9,6.6
			C247.6,178.6,247.7,178.4,247.8,178.3z"/>
		
			<ellipse transform="matrix(0.7344 -0.6787 0.6787 0.7344 -51.0386 299.2023)" class="st0" cx="356.8" cy="214.8" rx="3" ry="2.8"/>
		<path class="st0" d="M384.4,202.5c-0.4-0.2-1.8-0.7-1.8-1.1s0.8-1.3,0.9-1.9c0.1-0.7,0.5-2.2,0.7-2.5c0.1-0.3-0.1-1-1-0.5
			c-0.6,0.2,0.5-0.6-0.4-2.6c0,0-0.4-0.9-0.9-1.4c0,0,0.1-1.5-0.7-1.7c-0.8-0.2-1.7,2.2-1.8,3.7c-0.1,1.4-1.1-0.2-1.2-0.5
			c-0.1-0.4-0.6-1-1.3-1.2c-0.8-0.2-0.2-1-1.7-1.1s0.4,2.5-1.3,1.8c-1.7-0.6-3.2-0.4-3.1,0.2c0.1,0.6-0.8,0-1.2,0
			c-0.4,0-1.1,0.4-2,0.1c-0.9-0.2-1.8,0.2-2,0.5c-0.1,0.4,0.4,1.1,1.6,1.5c0,0-0.2,0.6,1,0.9c1,0.3-0.6,0.5,1.3,1.1
			c2,0.6,0.9,0.7,2.1,1c1.1,0.2,2.4,0.8,2.2,1.2c-0.2,0.3-0.5,0.6-1.3,0.3c-0.9-0.3-1.8-0.1-2.3-0.1c0,0-0.4,0-0.5,0.2
			c0,0-0.1,0.1-0.3,0.1c-0.2-0.1-0.8-0.1-1.3,0.1c-0.6,0.2-0.8,0.5-0.7,0.9c0.1,0.4,0.5,0.7,0.6,0.7c0.2,0.1-0.5,0.4-1.6,0.6
			c-1.1,0.2-1.3,0.7-1.2,0.9c0.1,0.2,0.8,0.3,0.2,0.7c-0.6,0.4-3.2,2.8-0.8,2.5c2.5-0.3,2.4,0.1,2.5,0.2c0,0,0,0.7,1.2,0.4
			s2.1-0.8,2.2-0.7s-0.4,0.8-0.2,1c0.3,0.2,0.1,0.2,0,0.5s0.4,0.3,1.1,0.1c0.6-0.2,1.4-0.6,1.9-1.3c0.1-0.2,0.7-0.3,1.2-0.8
			c1-1.3,3-1.6,1.8-0.4c0,0-1.9,1.7-1.9,2.2s0.5,0.5,0.5,0.5s0.1,0-0.2,0.3c-0.2,0.2-1.2,1.4-1.2,1.7c0,0.2,0.7,0.4,0.5,0.5
			c-0.2,0.2-0.9,0.7-0.2,1c0.6,0.2,0.2,0.3-0.1,0.9c-0.3,0.9,0.2,1.5,1.7,0.3c0,0,0.2-0.2,0.5-0.2s0.6-0.1,0.8-0.4
			c0.1-0.3,0.3-0.5,0.8-0.6s0.8-0.4,1.2-0.9c0.2-0.3,0.3,0.1,0.4,0.2c0.2,0.1,0.8,0.7,1.3,0c0,0,0.8-1,0.8-1.7
			c0.1-0.7,0.3-1.2,0.4-1.6c0.1-0.4,0.4,0,0.5,0.3c0.2,0.3,0.7,0.4,0.6,1.3c0,0.9,0.9,0.7,1.2,0.2c0,0,0.5-0.7,0.6-0.9
			c0.2-0.2,0.5-1,0.4-1.8s0-1.1-0.1-1.4c-0.1-0.3-0.3-0.7-0.1-0.7c0.2,0,0.8,0.3,1-0.3s-0.1-0.9-0.3-1.2
			C385.3,203.4,384.7,202.7,384.4,202.5z"/>
		<path class="st0" d="M389.1,179.9c-0.4,2.8-0.2,6.1,0.7,9.4c2.3,9-6.9,12.2-6.9,12.2s7.2-3.8,6.1-9.6c-0.7-3.6-1.7-8.8-1-13.2
			c-0.2-0.3-0.4-0.5-0.6-0.8c-1.5-2-2.3-4.3-2.6-6.6l1.3-0.4c0.3,1.9,1,4,2.4,6c0.5-2,1.5-3.7,3.1-4.9c5.2-4.1,10.1,0.9,9.8,5.2
			C401,180.3,395.9,186.8,389.1,179.9z M389.4,178.3c0.1,0.2,0.3,0.3,0.4,0.5c8.1,8.5,14.6-5.2,5.9-6.6
			C392.5,171.6,390.3,174.3,389.4,178.3z"/>
		<path class="st0" d="M267.3,207.9c0.3-0.2-0.3-0.9-0.2-1c0.1-0.1,1,0.4,2.2,0.7s1.2-0.4,1.2-0.4c0-0.1,0-0.6,2.5-0.2
			c2.4,0.3-0.2-2.1-0.8-2.5c-0.6-0.4,0.1-0.4,0.2-0.7c0.1-0.2-0.1-0.7-1.2-0.9s-1.8-0.6-1.6-0.6c0.2-0.1,0.5-0.3,0.6-0.7
			s-0.1-0.7-0.7-0.9s-1.1-0.2-1.3-0.1c-0.2,0.1-0.3-0.1-0.3-0.1c-0.1-0.2-0.5-0.2-0.5-0.2c-0.5,0-1.4-0.2-2.3,0.1s-1.2,0-1.3-0.3
			c-0.2-0.3,1.1-1,2.2-1.2s0.1-0.4,2.1-1s0.4-0.8,1.3-1.1c1.2-0.3,1-0.9,1-0.9c1.1-0.5,1.7-1.2,1.6-1.5c-0.1-0.4-1.1-0.8-2-0.5
			c-0.9,0.2-1.6-0.2-2-0.1c-0.4,0-1.3,0.6-1.2,0c0.1-0.6-1.4-0.8-3.1-0.2s0.2-2-1.3-1.8c-1.5,0.1-1,0.9-1.7,1.1
			c-0.8,0.2-1.2,0.8-1.3,1.2c-0.1,0.3-1.1,2-1.2,0.5s-1-3.8-1.8-3.7c-0.8,0.1-0.7,1.7-0.7,1.7c-0.5,0.5-0.9,1.4-0.9,1.4
			c-0.9,2,0.1,2.8-0.4,2.6c-0.9-0.5-1.1,0.2-1,0.5s0.6,1.8,0.7,2.5c0.1,0.7,1,1.5,0.9,1.9c-0.1,0.5-1.5,1-1.8,1.1
			c-0.4,0.2-0.9,0.9-1,1.2s-0.5,0.5-0.3,1.2c0.2,0.6,0.8,0.3,1,0.3s0,0.4-0.1,0.7s0,0.6-0.1,1.4c-0.1,0.8,0.3,1.6,0.4,1.8
			c0.2,0.2,0.6,0.9,0.6,0.9c0.4,0.5,1.3,0.8,1.2-0.2c0-0.9,0.5-1,0.6-1.3c0.2-0.3,0.4-0.7,0.5-0.3c0.1,0.4,0.4,0.9,0.4,1.6
			c0.1,0.7,0.8,1.7,0.8,1.7c0.5,0.6,1.2,0.1,1.3,0c0.1-0.1,0.3-0.5,0.4-0.2c0.3,0.5,0.7,0.8,1.2,0.9c0.5,0.1,0.6,0.4,0.8,0.6
			c0.1,0.3,0.5,0.4,0.8,0.4s0.5,0.2,0.5,0.2c1.4,1.2,2,0.5,1.7-0.3c-0.2-0.6-0.6-0.7-0.1-0.9c0.7-0.3,0-0.8-0.2-1s0.5-0.3,0.5-0.5
			s-1-1.5-1.2-1.7s-0.2-0.3-0.2-0.3s0.5,0,0.5-0.5s-1.9-2.2-1.9-2.2c-1.2-1.3,0.9-1,1.8,0.4c0.5,0.5,1.1,0.6,1.2,0.8
			c0.5,0.6,1.3,1.1,1.9,1.3s1.1,0.2,1.1-0.1C267.2,208.1,267,208.1,267.3,207.9z"/>
		<ellipse transform="matrix(0.6786 -0.7345 0.7345 0.6786 -68.6691 268.0903)" class="st0" cx="272" cy="212.5" rx="2.8" ry="3"/>
		
			<ellipse transform="matrix(0.6787 -0.7344 0.7344 0.6787 -67.6853 274.9312)" class="st0" cx="280.4" cy="214.8" rx="2.8" ry="3"/>
		<path class="st0" d="M349,210.5c-9.5,4.6-19.7,6.9-30.3,6.9c-10.4,0-20.5-2.2-29.8-6.7c-0.6-0.3-1.4,0-1.7,0.6
			c-0.3,0.6,0,1.4,0.6,1.7c9.7,4.6,20.1,6.9,30.9,6.9c11,0,21.6-2.4,31.4-7.2c0.6-0.3,0.9-1.1,0.6-1.7
			C350.4,210.4,349.7,210.2,349,210.5z"/>
		
			<ellipse transform="matrix(0.6786 -0.7345 0.7345 0.6786 -63.3005 270.883)" class="st0" cx="277.9" cy="207.8" rx="2.2" ry="2.4"/>
		
			<ellipse transform="matrix(0.6786 -0.7345 0.7345 0.6786 -58.3773 246.3303)" class="st0" cx="252.3" cy="189.9" rx="2.2" ry="2.4"/>
		<path class="st0" d="M377.3,147.6c0,32.3-26.3,58.5-58.5,58.5c-32.3,0-58.5-26.3-58.5-58.5c0-32.3,26.3-58.5,58.5-58.5
			C351,89.1,377.3,115.3,377.3,147.6z M361.9,122.7c0,0.2,0.1,0.3,0.2,0.5c0.2,0.2,0.3,0.4,0.5,0.5s0.3,0.1,0.4,0.1s0.3,0,0.4-0.1
			s0.3-0.1,0.4-0.2s0.3-0.2,0.4-0.3c0.1-0.1,0.2-0.3,0.2-0.4s0.1-0.3,0.1-0.4c0-0.2,0-0.3-0.1-0.4c-0.1-0.2-0.2-0.4-0.3-0.5
			c-0.1-0.1-0.3-0.2-0.4-0.2s-0.3,0-0.4,0s-0.3,0.1-0.4,0.2c-0.2,0.1-0.3,0.2-0.4,0.3c-0.1,0.1-0.2,0.3-0.3,0.4
			C361.9,122.4,361.9,122.5,361.9,122.7z M357.1,115.7c0,0.2,0.1,0.3,0.2,0.4c0.2,0.2,0.4,0.3,0.5,0.4c0.2,0.1,0.3,0.1,0.5,0.1
			c0.1,0,0.3-0.1,0.4-0.1c0.1-0.1,0.2-0.2,0.4-0.3c0.1-0.1,0.2-0.2,0.3-0.4c0.1-0.1,0.1-0.3,0.2-0.4c0-0.1,0-0.3,0-0.4
			s-0.1-0.3-0.2-0.4c-0.1-0.2-0.3-0.3-0.4-0.4s-0.3-0.1-0.4-0.1s-0.3,0-0.4,0.1s-0.3,0.1-0.4,0.2c-0.2,0.1-0.3,0.2-0.4,0.4
			c-0.1,0.2-0.2,0.3-0.2,0.5C357.1,115.4,357.1,115.6,357.1,115.7z M351.1,109.1c0,0.2,0,0.3,0.1,0.5s0.2,0.3,0.3,0.4
			c0.2,0.2,0.4,0.2,0.6,0.3c0.2,0,0.3,0,0.5,0c0.1,0,0.3-0.1,0.4-0.2s0.2-0.2,0.3-0.3c0.1-0.1,0.2-0.3,0.2-0.4
			c0.1-0.1,0.1-0.3,0.1-0.4s0-0.3-0.1-0.4s-0.1-0.3-0.3-0.4c-0.2-0.2-0.3-0.3-0.5-0.3c-0.1-0.1-0.3-0.1-0.4,0
			c-0.1,0-0.3,0.1-0.4,0.2s-0.2,0.2-0.4,0.3c-0.1,0.1-0.2,0.3-0.3,0.4C351.2,108.8,351.2,108.9,351.1,109.1z M342.2,104.8
			L342.2,104.8c0.1,0.1,0.2,0.2,0.2,0.2c0.1,0,0.1,0.1,0.2,0.1s0.1,0.1,0.2,0.1c0.1,0.1,0.3,0.2,0.4,0.2c0.1,0.1,0.2,0.1,0.2,0
			c0.1-0.1,0.2-0.2,0.2-0.3c0.1-0.1,0.1-0.2,0.2-0.3c0.1-0.1,0.1-0.2,0.2-0.2c0.1-0.1,0.1-0.2,0.2-0.3c0,0,0.1-0.1,0.1,0
			c0,0,0.1,0.1,0.2,0.1s0.1,0.1,0.2,0.1v0.1c-0.1,0.1-0.1,0.2-0.1,0.3c0,0.1-0.1,0.2-0.1,0.3c0,0.1-0.1,0.2-0.1,0.3
			c0,0.1-0.1,0.2-0.1,0.3c0,0.1,0,0.1,0.1,0.2s0.2,0.1,0.4,0.2c0.1,0,0.1,0.1,0.2,0.1s0.2,0.1,0.2,0.1c0.1,0,0.1,0.1,0.2,0.1
			s0.1,0,0.1,0c0.2-0.6,0.5-1.2,0.7-1.7s0.4-1,0.6-1.5s0.4-1,0.6-1.5s0.4-1.1,0.7-1.7V100c0-0.1-0.1-0.1-0.1-0.1
			c-0.1,0-0.1-0.1-0.2-0.1s-0.1-0.1-0.2-0.1c0,0-0.1-0.1-0.2-0.1s-0.2-0.1-0.2-0.1c-0.1,0-0.1-0.1-0.2-0.1s-0.1,0-0.1,0
			c-0.4,0.5-0.8,1-1.2,1.4c-0.4,0.4-0.7,0.8-1,1.2c-0.3,0.4-0.7,0.8-1.1,1.2C343,103.8,342.6,104.3,342.2,104.8z M333.6,101
			c0,0,0,0.1,0.1,0.1c0,0,0.1,0.1,0.2,0.1s0.2,0.1,0.3,0.1c0.2,0.1,0.3,0.1,0.4,0.1s0.2,0.1,0.2,0.1c0.1,0,0.1,0,0.1,0l0.1-0.1
			l0.9-2.4c0-0.1,0-0.1,0.1-0.1c0,0,0.1,0,0.2,0.1c0.1,0,0.1,0.1,0.1,0.1s0,0.1,0,0.2s0,0.1,0,0.2s0,0.1-0.1,0.2l-0.7,1.9
			c0,0.1,0,0.1,0,0.1s0,0.1,0.1,0.1c0,0,0.1,0.1,0.2,0.1s0.2,0.1,0.4,0.1c0.2,0.1,0.3,0.1,0.4,0.1s0.2,0.1,0.2,0.1
			c0.1,0,0.1,0,0.1,0s0,0,0-0.1l0.9-2.4c0.1-0.2,0.1-0.4,0.1-0.5s-0.1-0.2-0.2-0.3c-0.1-0.1-0.2-0.1-0.2-0.2c-0.1,0-0.1-0.1-0.1-0.1
			s0,0,0.1,0s0.2,0,0.3,0c0.1,0,0.2-0.1,0.3-0.2s0.2-0.2,0.3-0.5l0.3-0.8c0.2-0.5,0.2-0.9,0-1.3s-0.6-0.7-1-0.8l-1.3-0.5
			c-0.1,0-0.1,0-0.2-0.1h-0.1c0,0-0.1,0-0.1,0.1c0,0,0,0.1-0.1,0.2l-2.2,6C333.7,100.9,333.6,101,333.6,101z M325,99
			c0,0.1,0,0.1,0,0.2c0,0,0.1,0.1,0.2,0.1s0.2,0,0.2,0l2.3,0.4c0,0,0,0,0.1,0c0,0,0,0,0.1-0.1c0,0,0-0.1,0-0.2s0-0.2,0.1-0.4
			c0-0.2,0-0.3,0.1-0.4c0-0.1,0-0.2,0-0.2v-0.1c0,0,0,0-0.1,0l-0.9-0.2c0,0-0.1,0-0.2,0s-0.1,0-0.1-0.1v-0.1c0-0.1,0-0.1,0-0.2
			l0.1-0.8c0-0.1,0-0.1,0-0.2c0,0,0-0.1,0.1-0.1h0.1h0.1l0.4,0.1h0.1c0,0,0,0,0-0.1c0,0,0-0.1,0-0.2s0-0.2,0.1-0.4
			c0-0.2,0-0.3,0.1-0.4c0-0.1,0-0.2,0-0.2v-0.1c0,0,0,0-0.1,0l-0.5-0.1h-0.1c0,0-0.1,0-0.1-0.1V95v-0.1l0.1-0.7c0-0.1,0-0.1,0-0.1
			s0,0,0.1-0.1c0,0,0,0,0.1,0s0.1,0,0.1,0l1,0.2h0.1c0,0,0,0,0.1-0.1c0,0,0-0.1,0.1-0.2c0-0.1,0-0.2,0.1-0.4c0-0.2,0-0.3,0.1-0.4
			c0-0.1,0-0.1,0-0.2v-0.1c0,0,0,0-0.1,0l-2.5-0.4c-0.1,0-0.1,0-0.1,0s-0.1,0-0.1,0.1l-0.1,0.1v0.1l-1,6.3
			C325.1,98.9,325,98.9,325,99z M314.3,92l0.2,6.7v0.1c0,0,0,0,0.1,0c0,0,0.1,0,0.2,0s0.2,0,0.4,0c0.2,0,0.3,0,0.4,0s0.2,0,0.2,0
			s0.1,0,0.1-0.1v-0.1l-0.1-3.5c0-0.1,0-0.1,0.1-0.1s0.1,0,0.1,0.1s0.1,0.3,0.1,0.4s0.1,0.3,0.1,0.4s0.1,0.2,0.1,0.3
			c0,0.1,0.1,0.2,0.1,0.2c0,0.1,0.1,0.1,0.1,0.1h0.1h0.2h0.1l0.1-0.1c0,0,0-0.1,0.1-0.2c0-0.1,0-0.2,0.1-0.3c0-0.1,0-0.3,0.1-0.4
			c0-0.2,0-0.3,0.1-0.4c0-0.1,0-0.1,0.1-0.1s0.1,0.1,0.1,0.2l0.1,3.5v0.1c0,0,0,0,0.1,0c0,0,0.1,0,0.2,0s0.2,0,0.4,0
			c0.2,0,0.3,0,0.4,0s0.2,0,0.2,0s0.1,0,0.1-0.1v-0.1l-0.2-6.7v-0.1c0,0-0.1,0-0.1-0.1c-0.1,0-0.1,0-0.2,0s-0.2,0-0.4,0
			c-0.1,0-0.3,0-0.3,0c-0.1,0-0.2,0-0.2,0c-0.1,0-0.1,0-0.1,0.1v0.1c0,0.2-0.1,0.4-0.2,0.6s-0.1,0.4-0.2,0.6
			c-0.1,0.4-0.2,0.6-0.2,0.9c-0.1,0.2-0.1,0.4-0.2,0.4c0,0,0,0-0.1-0.1c0-0.1-0.1-0.2-0.1-0.3s-0.1-0.2-0.1-0.4
			c0-0.1-0.1-0.3-0.2-0.5s-0.1-0.4-0.2-0.6s-0.1-0.4-0.2-0.6c0,0,0-0.1-0.1-0.1c0,0-0.1,0-0.1-0.1c-0.1,0-0.1,0-0.2,0s-0.2,0-0.4,0
			c-0.1,0-0.3,0-0.4,0s-0.2,0-0.2,0s-0.1,0-0.1,0.1C314.3,92,314.3,92,314.3,92z M305.6,93.3L305.6,93.3l1.5,6.6v0.1c0,0,0,0,0.1,0
			c0,0,0.1,0,0.2,0s0.2,0,0.4-0.1c0.2,0,0.3-0.1,0.4-0.1s0.2-0.1,0.2-0.1s0.1,0,0.1-0.1v-0.1L307,93v-0.1c0,0,0,0-0.1,0
			c0,0-0.1,0-0.2,0s-0.3,0.1-0.4,0.1c-0.2,0-0.3,0.1-0.4,0.1C305.8,93.2,305.7,93.3,305.6,93.3C305.7,93.3,305.6,93.3,305.6,93.3z
			 M295.5,96.8C295.5,96.8,295.5,96.9,295.5,96.8c0,0.1,0,0.2,0.1,0.3l2.5,5.9c0,0.1,0.1,0.1,0.1,0.2h0.1c0.1,0,0.1,0,0.2-0.1
			c0.1,0,0.2-0.1,0.3-0.1c0.2-0.1,0.3-0.1,0.4-0.2c0.1,0,0.2-0.1,0.2-0.1l0.1-0.1v-0.1l-1-2.3c0-0.1,0-0.1,0-0.1s0.1,0,0.2-0.1
			c0.1,0,0.1,0,0.2,0l0.1,0.1c0,0,0.1,0.1,0.1,0.2s0.1,0.1,0.1,0.2l0.8,1.9c0,0.1,0,0.1,0.1,0.1h0.1c0,0,0.1,0,0.2-0.1
			c0.1,0,0.2-0.1,0.4-0.2c0.2-0.1,0.3-0.1,0.4-0.2c0.1,0,0.2-0.1,0.2-0.1l0.1-0.1v-0.1l-1-2.4c-0.1-0.2-0.2-0.3-0.3-0.4
			c-0.1-0.1-0.2-0.1-0.3-0.1c-0.1,0-0.2,0-0.3,0c-0.1,0-0.1,0-0.1,0s0,0,0.1-0.1s0.1-0.1,0.2-0.2s0.1-0.2,0.1-0.4
			c0-0.1,0-0.3-0.1-0.5l-0.3-0.7c-0.2-0.5-0.5-0.8-0.9-0.9s-0.9-0.1-1.3,0.1l-1.3,0.6C295.6,96.7,295.6,96.7,295.5,96.8
			C295.5,96.7,295.5,96.8,295.5,96.8z M286.2,102.2C286.2,102.2,286.2,102.3,286.2,102.2c0,0.1,0.1,0.2,0.1,0.2l3.6,5.3
			c0,0.1,0.1,0.1,0.1,0.1h0.1c0,0,0.1,0,0.2-0.1s0.2-0.1,0.3-0.2c0.1-0.1,0.2-0.2,0.3-0.2c0.1-0.1,0.1-0.1,0.2-0.1l0.1-0.1V107
			l-1-1.5c-0.1-0.2-0.2-0.3-0.1-0.3c0-0.1,0-0.1,0.1-0.2c0.4-0.3,0.7-0.7,0.8-1.1c0.1-0.4,0-0.8-0.3-1.3l-0.7-1.1
			c-0.3-0.4-0.6-0.7-1.1-0.7c-0.4-0.1-0.9,0.1-1.3,0.4l-1.2,0.8C286.3,102.1,286.3,102.1,286.2,102.2
			C286.2,102.1,286.2,102.2,286.2,102.2z M281.6,110.7c0,0.1,0.1,0.3,0.1,0.4c0.1,0.1,0.2,0.3,0.3,0.4c0.1,0.1,0.2,0.3,0.4,0.3
			c0.2,0.1,0.3,0.1,0.5,0.2s0.3,0,0.5-0.1s0.3-0.2,0.4-0.3c0.2-0.2,0.3-0.4,0.3-0.6s0.1-0.3,0-0.5c0-0.1-0.1-0.3-0.2-0.4
			s-0.2-0.2-0.3-0.3c-0.1-0.1-0.2-0.2-0.4-0.3c-0.1-0.1-0.3-0.1-0.4-0.1c-0.2,0-0.3,0-0.4,0.1c-0.1,0-0.3,0.1-0.4,0.2
			c-0.2,0.2-0.3,0.3-0.4,0.5C281.6,110.4,281.6,110.6,281.6,110.7z M275.9,117.5c0,0.1,0.1,0.3,0.2,0.4s0.2,0.2,0.3,0.3
			c0.1,0.1,0.3,0.2,0.5,0.3c0.2,0.1,0.4,0.1,0.5,0.1c0.2,0,0.3-0.1,0.5-0.1c0.1-0.1,0.3-0.2,0.4-0.4c0.1-0.2,0.2-0.4,0.2-0.6
			s0-0.3-0.1-0.5c-0.1-0.1-0.1-0.2-0.2-0.3s-0.2-0.2-0.3-0.3c-0.1-0.1-0.3-0.2-0.4-0.2s-0.3,0-0.4,0s-0.3,0.1-0.4,0.1
			c-0.1,0.1-0.3,0.2-0.3,0.3c-0.2,0.2-0.2,0.4-0.3,0.5C275.9,117.3,275.9,117.4,275.9,117.5z M271.4,124.8c0,0.2,0,0.3,0.1,0.4
			s0.2,0.2,0.3,0.3c0.1,0.1,0.2,0.2,0.4,0.3c0.2,0.1,0.3,0.2,0.5,0.2s0.4,0,0.5,0c0.2,0,0.3-0.1,0.5-0.2c0.1-0.1,0.2-0.2,0.3-0.4
			c0.1-0.3,0.1-0.5,0.1-0.7s-0.1-0.3-0.1-0.4c-0.1-0.1-0.2-0.2-0.3-0.3c-0.1-0.1-0.3-0.1-0.4-0.2s-0.3-0.1-0.4-0.1
			c-0.2,0-0.3,0-0.4,0s-0.3,0.1-0.4,0.2s-0.2,0.2-0.3,0.4C271.5,124.5,271.4,124.7,271.4,124.8z M273.2,173.6c0-0.2,0-0.3-0.1-0.4
			c-0.1-0.2-0.2-0.4-0.3-0.5c-0.1-0.1-0.3-0.2-0.4-0.2s-0.3,0-0.4,0s-0.3,0.1-0.4,0.2c-0.2,0.1-0.3,0.2-0.4,0.3s-0.2,0.3-0.3,0.4
			c-0.1,0.2-0.1,0.3-0.1,0.5s0.1,0.3,0.2,0.5c0.2,0.2,0.3,0.4,0.5,0.5s0.3,0.1,0.4,0.1s0.3,0,0.4-0.1s0.3-0.1,0.4-0.2
			c0.1-0.1,0.3-0.2,0.4-0.3s0.2-0.3,0.2-0.4C273.2,173.9,273.2,173.8,273.2,173.6z M278.2,181.3c0-0.1,0-0.3,0-0.4
			c0-0.1-0.1-0.3-0.2-0.4c-0.1-0.2-0.3-0.3-0.4-0.4c-0.1-0.1-0.3-0.1-0.4-0.1s-0.3,0-0.4,0.1s-0.3,0.1-0.4,0.2
			c-0.2,0.1-0.3,0.2-0.4,0.4s-0.2,0.3-0.2,0.5s0,0.3,0,0.5s0.1,0.3,0.2,0.4c0.2,0.2,0.4,0.3,0.5,0.4c0.2,0.1,0.3,0.1,0.5,0.1
			c0.1,0,0.3-0.1,0.4-0.2c0.1-0.1,0.2-0.2,0.4-0.3c0.1-0.1,0.2-0.2,0.3-0.4C278.1,181.6,278.1,181.5,278.2,181.3z M284.4,187.6
			c0-0.1,0-0.3-0.1-0.4c-0.1-0.1-0.1-0.3-0.3-0.4c-0.2-0.2-0.3-0.3-0.5-0.3c-0.2-0.1-0.3-0.1-0.4,0c-0.1,0-0.3,0.1-0.4,0.2
			c-0.1,0.1-0.2,0.2-0.4,0.3c-0.1,0.1-0.2,0.3-0.3,0.4c-0.1,0.2-0.1,0.3-0.1,0.5s0,0.3,0.1,0.5s0.2,0.3,0.3,0.4
			c0.2,0.2,0.4,0.2,0.6,0.3c0.2,0,0.3,0,0.5,0c0.1,0,0.3-0.1,0.4-0.2c0.1-0.1,0.2-0.2,0.3-0.3c0.1-0.1,0.2-0.3,0.2-0.4
			C284.3,187.9,284.4,187.8,284.4,187.6z M294,190.7c-0.1-0.4-0.4-0.7-0.8-1c-0.2-0.1-0.4-0.2-0.7-0.3c-0.2,0-0.4,0-0.7,0
			c-0.2,0-0.4,0.1-0.6,0.3c-0.2,0.1-0.3,0.3-0.5,0.5l-2,3.2c-0.1,0.2-0.2,0.4-0.2,0.7c0,0.2,0,0.4,0,0.6c0.1,0.2,0.2,0.4,0.3,0.6
			c0.1,0.2,0.3,0.3,0.5,0.5c0.5,0.3,0.9,0.4,1.3,0.3c0.4-0.1,0.7-0.4,1-0.8l0.2-0.4c0-0.1,0.1-0.1,0.1-0.1v-0.1c0,0-0.1-0.1-0.2-0.1
			c-0.1-0.1-0.2-0.1-0.3-0.2c-0.1-0.1-0.3-0.2-0.4-0.2c-0.1-0.1-0.2-0.1-0.2-0.1h-0.1c0,0,0,0-0.1,0.1l-0.2,0.4c0,0,0,0,0,0.1
			c0,0,0,0-0.1,0.1h-0.1h-0.1c-0.1,0-0.1-0.1-0.1-0.1c0-0.1,0-0.1,0-0.2c0-0.1,0-0.1,0.1-0.2c0-0.1,0.1-0.1,0.1-0.2l1.5-2.5
			c0-0.1,0.1-0.1,0.1-0.2c0-0.1,0.1-0.1,0.1-0.2l0.1-0.1c0.1,0,0.1,0,0.2,0s0.1,0.1,0.1,0.1v0.1v0.1v0.1L292,192
			c0,0.1,0,0.1,0.1,0.2c0.1,0.1,0.2,0.1,0.4,0.3c0.2,0.1,0.3,0.2,0.4,0.2s0.2,0.1,0.2,0.1h0.1l0,0l0.3-0.6
			C294.1,191.5,294.1,191.1,294,190.7z M302.7,194.6c-0.2-0.4-0.6-0.7-1.1-0.9c-0.2-0.1-0.5-0.1-0.7-0.1s-0.4,0-0.6,0.1
			s-0.4,0.2-0.5,0.4c-0.2,0.2-0.3,0.4-0.4,0.6l-1.3,3.5c-0.1,0.2-0.1,0.5-0.1,0.7s0.1,0.4,0.2,0.6c0.1,0.2,0.2,0.4,0.4,0.5
			s0.4,0.3,0.6,0.4c0.5,0.2,1,0.2,1.4,0s0.7-0.5,0.9-1l1.3-3.5C302.9,195.4,302.9,195,302.7,194.6z M312.1,197.3
			c-0.1-0.2-0.1-0.4-0.3-0.5c-0.1-0.2-0.3-0.3-0.5-0.4c-0.2-0.1-0.4-0.2-0.7-0.2c-0.2,0-0.5,0-0.7,0s-0.4,0.1-0.6,0.2
			c-0.2,0.1-0.3,0.2-0.4,0.4s-0.2,0.4-0.2,0.6c0,0.2-0.1,0.4-0.1,0.6c0,0.2,0,0.3,0,0.5c0,0.1,0.1,0.3,0.2,0.4
			c0.1,0.1,0.2,0.3,0.3,0.5c0.1,0.2,0.2,0.3,0.4,0.5c0.1,0.1,0.2,0.3,0.3,0.4c0.1,0.1,0.2,0.3,0.2,0.5s0.1,0.4,0,0.6
			c0,0.1-0.1,0.2-0.1,0.3s-0.1,0.1-0.2,0.1s-0.2-0.1-0.2-0.2c0-0.1,0-0.3,0-0.5v-0.3c0,0-0.1-0.1-0.2-0.1s-0.3-0.1-0.6-0.1
			c-0.3,0-0.5-0.1-0.5-0.1c-0.1,0-0.1,0-0.1,0l-0.1,0.6c0,0.3,0,0.5,0,0.7c0.1,0.2,0.2,0.4,0.3,0.6c0.1,0.2,0.3,0.3,0.5,0.4
			c0.2,0.1,0.4,0.2,0.7,0.2c0.5,0.1,1,0,1.3-0.2c0.4-0.2,0.6-0.6,0.7-1.1c0.1-0.3,0.1-0.6,0-0.9c0-0.3-0.1-0.5-0.2-0.7
			s-0.2-0.4-0.3-0.5c-0.1-0.2-0.2-0.3-0.4-0.5c-0.2-0.2-0.3-0.3-0.4-0.5c-0.1-0.1-0.2-0.2-0.2-0.3s-0.1-0.2-0.1-0.3s0-0.2,0-0.4
			c0-0.1,0.1-0.2,0.1-0.2c0.1,0,0.1-0.1,0.2-0.1s0.1,0.1,0.2,0.1c0,0.1,0.1,0.2,0,0.3l-0.1,0.4c0,0,0.3,0.1,0.8,0.2
			c0.2,0,0.4,0.1,0.5,0.1s0.1,0,0.1,0l0.1-0.5C312.2,197.7,312.2,197.5,312.1,197.3z M321.5,203.6c0-0.1,0-0.2,0-0.4s0-0.3,0-0.4
			s0-0.2,0-0.2v-0.1c0,0,0,0-0.1,0h-1c-0.1,0-0.1,0-0.2,0s-0.1,0-0.1,0s0-0.1-0.1-0.1c0-0.1,0-0.1,0-0.2v-0.8c0-0.1,0-0.1,0-0.2
			c0,0,0-0.1,0.1-0.1h0.1c0,0,0.1,0,0.2,0h0.5h0.1c0,0,0,0,0-0.1c0,0,0-0.1,0-0.2c0-0.1,0-0.2,0-0.4s0-0.3,0-0.4c0-0.1,0-0.2,0-0.2
			v-0.1c0,0,0,0-0.1,0h-0.5h-0.1h-0.1l-0.1-0.1v-0.1v-0.7c0-0.1,0-0.1,0-0.1s0,0,0-0.1c0,0,0,0,0.1,0s0.1,0,0.1,0h1h0.1
			c0,0,0,0,0-0.1s0-0.1,0-0.2c0-0.1,0-0.2,0-0.4s0-0.3,0-0.4c0-0.1,0-0.2,0-0.2v-0.1c0,0,0,0-0.1,0h-2.5c-0.1,0-0.1,0-0.1,0
			s-0.1,0-0.1,0.1l-0.1,0.1v0.1l0.1,6.4c0,0.1,0,0.1,0,0.2c0,0.1,0,0.1,0.1,0.2c0,0,0.1,0,0.2,0s0.2,0,0.2,0h2.4c0,0,0,0,0.1,0
			c0,0,0,0,0-0.1C321.5,203.7,321.5,203.7,321.5,203.6z M331.7,200.7l-0.1-0.4c0-0.1,0-0.1-0.1-0.1l-0.1-0.1c0,0-0.1,0-0.2,0
			s-0.2,0-0.3,0.1c-0.2,0-0.3,0.1-0.4,0.1s-0.2,0-0.2,0.1c0,0-0.1,0-0.1,0.1v0.1l0.1,0.4c0,0,0,0,0,0.1v0.1c0,0,0,0.1-0.1,0.1
			l-0.1,0.1c-0.1,0-0.1,0-0.2,0l-0.1-0.1c0-0.1,0-0.1-0.1-0.2c0-0.1,0-0.1,0-0.2l-0.6-2.9c0-0.1,0-0.1,0-0.2c0-0.1,0-0.1,0-0.2
			c0-0.1,0-0.1,0-0.2c0,0,0.1-0.1,0.2-0.1s0.1,0,0.1,0s0.1,0,0.1,0.1c0,0,0,0.1,0.1,0.1v0.1l0.1,0.6c0,0.1,0.1,0.1,0.2,0.1
			s0.3-0.1,0.5-0.1s0.3-0.1,0.4-0.1s0.2-0.1,0.2-0.1s0.1,0,0.1-0.1c0,0,0,0,0-0.1l-0.1-0.6c-0.1-0.5-0.3-0.9-0.7-1.1
			c-0.4-0.2-0.8-0.3-1.3-0.2c-0.3,0.1-0.5,0.1-0.7,0.3c-0.2,0.1-0.4,0.3-0.5,0.4c-0.1,0.2-0.2,0.4-0.3,0.6c0,0.2,0,0.5,0,0.7
			l0.8,3.7c0.1,0.2,0.1,0.5,0.3,0.6c0.1,0.2,0.3,0.3,0.5,0.4c0.2,0.1,0.4,0.2,0.6,0.2s0.5,0,0.7,0c0.5-0.1,0.9-0.3,1.1-0.7
			C331.7,201.7,331.8,201.2,331.7,200.7z M342.3,198.7v-0.1l-2.6-6.2v-0.1c0,0,0,0-0.1,0c0,0-0.1,0-0.2,0.1c-0.1,0-0.2,0.1-0.4,0.2
			c-0.2,0.1-0.3,0.1-0.4,0.2c-0.1,0-0.2,0.1-0.2,0.1l-0.1,0.1v0.1l0.9,2.2c0,0.1,0,0.1,0,0.1s0,0-0.1,0l-0.3,0.1c-0.1,0-0.1,0-0.1,0
			l-0.1-0.1l-0.9-2.2v-0.1c0,0,0,0-0.1,0s-0.1,0-0.2,0.1c-0.1,0-0.2,0.1-0.4,0.2c-0.2,0.1-0.3,0.1-0.4,0.2c-0.1,0-0.1,0.1-0.2,0.1
			l-0.1,0.1v0.1l2.6,6.2v0.1c0,0,0,0,0.1,0c0,0,0.1,0,0.2-0.1c0.1,0,0.2-0.1,0.4-0.2c0.2-0.1,0.3-0.1,0.4-0.2c0.1,0,0.2-0.1,0.2-0.1
			l0.1-0.1v-0.1l-1-2.4c0-0.1,0-0.1,0-0.1s0,0,0.1,0l0.3-0.1c0.1,0,0.1,0,0.1,0s0,0,0.1,0.1l1,2.4c0,0,0,0.1,0.1,0.1h0.1
			c0,0,0.1,0,0.2-0.1c0.1,0,0.2-0.1,0.4-0.2c0.2-0.1,0.3-0.1,0.4-0.2C342.1,198.9,342.2,198.8,342.3,198.7
			C342.3,198.8,342.3,198.7,342.3,198.7z M351.8,193.1c-0.5-0.5-0.9-0.9-1.3-1.3c-0.4-0.4-0.8-0.8-1.1-1.2c-0.4-0.4-0.7-0.8-1.1-1.2
			s-0.8-0.8-1.2-1.3H347c-0.1,0-0.1,0-0.2,0.1c-0.1,0-0.1,0.1-0.2,0.1s-0.1,0.1-0.2,0.1c0,0-0.1,0.1-0.2,0.1
			c-0.1,0.1-0.1,0.1-0.2,0.2c-0.1,0.1-0.1,0.1-0.1,0.2v0.1c0.3,0.6,0.5,1.1,0.8,1.6c0.2,0.5,0.5,1,0.7,1.5s0.5,1,0.7,1.5
			s0.5,1.1,0.8,1.7c0,0,0,0,0.1,0s0.1-0.1,0.2-0.1s0.1-0.1,0.2-0.1s0.1-0.1,0.1-0.1c0.1-0.1,0.3-0.2,0.4-0.3s0.2-0.2,0.1-0.2
			c-0.1-0.1-0.1-0.2-0.2-0.3s-0.1-0.2-0.2-0.3c0-0.1-0.1-0.2-0.1-0.3s-0.1-0.2-0.2-0.3v-0.1c0,0,0.1-0.1,0.2-0.1s0.1-0.1,0.2-0.1
			h0.1c0.1,0.1,0.2,0.2,0.3,0.3c0.1,0.1,0.1,0.2,0.2,0.2c0.1,0.1,0.1,0.2,0.2,0.2c0.1,0.1,0.2,0.2,0.3,0.3c0.1,0.1,0.1,0,0.2,0
			c0.1-0.1,0.2-0.1,0.4-0.2c0.1,0,0.1-0.1,0.2-0.1c0.1-0.1,0.1-0.1,0.2-0.2C351.7,193.3,351.7,193.3,351.8,193.1
			C351.8,193.2,351.8,193.1,351.8,193.1z M357.5,186c0-0.1-0.1-0.3-0.2-0.4c-0.1-0.1-0.2-0.2-0.3-0.3c-0.1-0.1-0.2-0.2-0.4-0.3
			c-0.1-0.1-0.3-0.1-0.4-0.1s-0.3,0-0.4,0.1c-0.1,0-0.3,0.1-0.4,0.2c-0.2,0.2-0.3,0.3-0.4,0.5c-0.1,0.1-0.1,0.3-0.1,0.4
			c0,0.1,0.1,0.3,0.1,0.4c0.1,0.1,0.2,0.3,0.3,0.4c0.1,0.1,0.3,0.3,0.4,0.4c0.2,0.1,0.3,0.1,0.5,0.2c0.2,0,0.3,0,0.5,0
			c0.2-0.1,0.3-0.2,0.4-0.3c0.2-0.2,0.3-0.4,0.3-0.6C357.5,186.3,357.5,186.1,357.5,186z M363.4,179.5c0-0.2,0-0.3-0.1-0.5
			c-0.1-0.1-0.1-0.2-0.2-0.3s-0.2-0.2-0.3-0.3c-0.1-0.1-0.3-0.2-0.4-0.2c-0.2,0-0.3-0.1-0.4,0c-0.2,0-0.3,0.1-0.4,0.1
			c-0.1,0.1-0.3,0.2-0.4,0.3c-0.2,0.2-0.3,0.4-0.3,0.5c0,0.2,0,0.3,0,0.4c0,0.1,0.1,0.3,0.2,0.4c0.1,0.1,0.2,0.2,0.3,0.3
			c0.1,0.1,0.3,0.2,0.5,0.3s0.4,0.1,0.5,0.1c0.2,0,0.3-0.1,0.5-0.1c0.2-0.1,0.3-0.2,0.4-0.4C363.3,179.9,363.4,179.6,363.4,179.5z
			 M365.4,147.6c0-25.7-20.9-46.6-46.6-46.6s-46.6,20.9-46.6,46.6s20.9,46.6,46.6,46.6C344.4,194.2,365.4,173.3,365.4,147.6z
			 M368,172.2c0.1-0.3,0.1-0.5,0.1-0.7s-0.1-0.3-0.1-0.4c-0.1-0.1-0.2-0.2-0.3-0.3c-0.1-0.1-0.2-0.2-0.4-0.2
			c-0.1-0.1-0.3-0.1-0.4-0.1c-0.2,0-0.3,0-0.4,0s-0.3,0.1-0.4,0.2c-0.1,0.1-0.2,0.2-0.3,0.4c-0.1,0.2-0.2,0.4-0.2,0.6
			c0,0.2,0,0.3,0.1,0.4c0.1,0.1,0.1,0.2,0.3,0.3c0.1,0.1,0.2,0.2,0.4,0.3c0.2,0.1,0.3,0.2,0.5,0.2s0.4,0,0.5,0
			c0.2,0,0.3-0.1,0.5-0.2C367.8,172.5,367.9,172.4,368,172.2z"/>
		
			<ellipse transform="matrix(0.6788 -0.7344 0.7344 0.6788 39.4156 317.9361)" class="st0" cx="383.1" cy="113.9" rx="2.7" ry="2.9"/>
		
			<ellipse transform="matrix(0.7344 -0.6787 0.6787 0.7344 -30.1979 301.0579)" class="st0" cx="369.6" cy="189.1" rx="2.9" ry="2.7"/>
		<path class="st0" d="M361.4,192.7c-11.6,10.9-26.7,17-42.6,17c-16,0-31.2-6.1-42.7-17.1c-0.5-0.5-1.3-0.5-1.8,0s-0.5,1.3,0,1.8
			c12.1,11.5,27.9,17.8,44.5,17.8s32.3-6.3,44.4-17.6c0.5-0.5,0.5-1.3,0.1-1.8C362.7,192.2,361.9,192.2,361.4,192.7z"/>
		
			<ellipse transform="matrix(0.6788 -0.7344 0.7344 0.6788 -52.1652 245.1328)" class="st0" cx="254.1" cy="182.2" rx="2.7" ry="2.9"/>
		
			<ellipse transform="matrix(0.9935 -0.1136 0.1136 0.9935 -14.4466 39.4817)" class="st0" cx="339.2" cy="146.5" rx="2.4" ry="2.6"/>
		
			<ellipse transform="matrix(0.9935 -0.1136 0.1136 0.9935 -15.9196 40.0328)" class="st0" cx="343.3" cy="159.7" rx="2.4" ry="2.6"/>
		<ellipse transform="matrix(0.9936 -0.1134 0.1134 0.9936 -12.2552 39.56)" class="st0" cx="341.6" cy="127.5" rx="2.1" ry="2.3"/>
		
			<ellipse transform="matrix(0.9935 -0.1135 0.1135 0.9935 -15.4938 39.4604)" class="st0" cx="338.8" cy="155.8" rx="1.3" ry="1.4"/>
		
			<ellipse transform="matrix(0.9935 -0.1135 0.1135 0.9935 -12.2513 40.415)" class="st0" cx="348.8" cy="127.8" rx="2.7" ry="2.9"/>
		
			<ellipse transform="matrix(0.9935 -0.1134 0.1134 0.9935 -11.4903 39.8006)" class="st0" cx="344.1" cy="120.9" rx="2.7" ry="2.9"/>
		<path class="st0" d="M318.7,103.2c-10.6,0-20.9,3.8-28.9,10.7c-0.3,0.3-0.3,0.7-0.1,1c0.3,0.3,0.7,0.3,1,0.1
			c7.8-6.7,17.7-10.4,28-10.4c15.5,0,29.9,8.4,37.5,21.9c0.1,0.2,0.4,0.4,0.6,0.4c0.1,0,0.2,0,0.4-0.1c0.3-0.2,0.5-0.6,0.3-1
			C349.6,111.9,334.8,103.2,318.7,103.2z"/>
		
			<ellipse transform="matrix(0.6786 -0.7345 0.7345 0.6786 -52.8926 257.3235)" class="st0" cx="267.6" cy="189.1" rx="2.7" ry="2.9"/>
		<ellipse transform="matrix(0.6786 -0.7345 0.7345 0.6786 40.1841 305.8344)" class="st0" cx="369.6" cy="107" rx="2.7" ry="2.9"/>
		<ellipse transform="matrix(0.7344 -0.6787 0.6787 0.7344 -1.5519 210.0193)" class="st0" cx="267.6" cy="107" rx="2.9" ry="2.7"/>
		<path class="st0" d="M263.9,180.6c0.2,0,0.4-0.1,0.6-0.2c0.6-0.4,0.8-1.1,0.5-1.7c-5.5-9.4-8.3-20.2-8.3-31.1
			c0-11,2.9-21.7,8.4-31.1c0.4-0.6,0.1-1.4-0.5-1.7c-0.6-0.4-1.4-0.1-1.7,0.5c-5.7,9.8-8.7,21-8.7,32.4s3,22.6,8.7,32.4
			C263,180.4,263.5,180.6,263.9,180.6z"/>
		<ellipse transform="matrix(0.6786 -0.7345 0.7345 0.6786 41.6508 312.1247)" class="st0" cx="377.5" cy="108.5" rx="2.8" ry="3"/>
		<ellipse transform="matrix(0.7344 -0.6787 0.6787 0.7344 -27.072 306.0281)" class="st0" cx="377.5" cy="187.6" rx="3" ry="2.8"/>
		<path class="st0" d="M373.3,179.9c0.2,0.1,0.4,0.2,0.6,0.2c0.4,0,0.9-0.2,1.1-0.6c5.5-9.6,8.4-20.6,8.4-31.8
			c0-11.3-3-22.5-8.6-32.2c-0.3-0.6-1.1-0.8-1.7-0.5s-0.8,1.1-0.5,1.7c5.4,9.4,8.3,20.1,8.3,30.9c0,10.7-2.8,21.3-8,30.6
			C372.4,178.7,372.6,179.5,373.3,179.9z"/>
		
			<ellipse transform="matrix(0.7344 -0.6788 0.6788 0.7344 -9.8101 202.7422)" class="st0" cx="254.1" cy="113.9" rx="2.9" ry="2.7"/>
		
			<ellipse transform="matrix(0.6786 -0.7345 0.7345 0.6786 -54.2635 251.1284)" class="st0" cx="259.8" cy="187.6" rx="2.8" ry="3"/>
		
			<ellipse transform="matrix(0.7345 -0.6786 0.6786 0.7345 -5.0872 199.4033)" class="st0" cx="252.3" cy="106.2" rx="2.4" ry="2.2"/>
		<ellipse transform="matrix(0.7344 -0.6787 0.6787 0.7344 -4.614 205.1349)" class="st0" cx="259.8" cy="108.5" rx="3" ry="2.8"/>
		
			<ellipse transform="matrix(0.804 -0.5946 0.5946 0.804 -120.9475 387.8551)" class="st0" cx="527.9" cy="377.4" rx="2.6" ry="2.4"/>
		
			<ellipse transform="matrix(0.804 -0.5947 0.5947 0.804 -106.6947 390.1631)" class="st0" cx="538.4" cy="356.9" rx="3.2" ry="2.9"/>
		<ellipse transform="matrix(0.804 -0.5946 0.5946 0.804 -125.8431 387.161)" class="st0" cx="524.4" cy="384.5" rx="3.3" ry="3"/>
		<path class="st0" d="M555.3,374.6c-0.4-0.2-1.8-0.9-1.8-1.4s1-1.3,1.2-2s0.8-2.3,1-2.6c0.2-0.3,0-1.1-1-0.7
			c-0.6,0.1,0.6-0.6-0.2-2.9c0,0-0.3-1-0.8-1.6c0,0,0.3-1.6-0.5-1.9s-2.1,2.2-2.4,3.7c-0.3,1.5-1.2-0.3-1.3-0.7
			c-0.1-0.4-0.5-1.2-1.3-1.4c-0.8-0.3-0.1-1.1-1.7-1.4c-1.6-0.3,0.1,2.7-1.6,1.8c-1.8-0.9-3.4-0.8-3.4-0.2c0,0.6-0.9-0.1-1.3-0.2
			c-0.4-0.1-1.2,0.2-2.1-0.1c-0.9-0.4-2,0-2.2,0.3c-0.2,0.4,0.3,1.2,1.5,1.8c0,0-0.3,0.6,0.9,1.1c1,0.4-0.7,0.5,1.3,1.3
			s0.9,0.9,2.1,1.3c1.2,0.4,2.5,1.2,2.2,1.5c-0.2,0.3-0.6,0.6-1.5,0.2s-1.9-0.3-2.5-0.4c0,0-0.5-0.1-0.6,0.1c0,0-0.1,0.1-0.4,0.1
			c-0.3-0.1-0.8-0.2-1.4,0c-0.6,0.1-0.9,0.4-0.8,0.9c0.1,0.5,0.4,0.8,0.6,0.9c0.2,0.1-0.6,0.4-1.8,0.5c-1.3,0.1-1.5,0.6-1.4,0.8
			c0,0.3,0.9,0.4,0.1,0.8c-0.7,0.4-3.8,2.6-1.2,2.6c2.7,0,2.6,0.4,2.6,0.6c0,0-0.1,0.8,1.2,0.6c1.3-0.2,2.4-0.6,2.5-0.5
			s-0.5,0.8-0.3,1c0.3,0.2,0.1,0.2-0.1,0.5c-0.1,0.3,0.4,0.4,1.1,0.3c0.7-0.1,1.6-0.5,2.2-1.1c0.1-0.2,0.8-0.2,1.4-0.7
			c1.2-1.3,3.4-1.4,2-0.2c0,0-2.3,1.6-2.3,2.1c-0.1,0.5,0.5,0.6,0.5,0.6s0.1,0.1-0.2,0.3c-0.3,0.2-1.5,1.4-1.5,1.7
			c0,0.3,0.7,0.5,0.5,0.6c-0.2,0.2-1,0.7-0.3,1c0.6,0.3,0.2,0.4-0.2,0.9c-0.5,0.9,0.1,1.6,1.8,0.5c0,0,0.2-0.1,0.5-0.1
			s0.7,0,0.9-0.3s0.3-0.6,0.9-0.6c0.6,0,0.9-0.4,1.4-0.9c0.2-0.3,0.3,0.2,0.5,0.3c0.1,0.2,0.8,0.8,1.4,0.2c0,0,1-1,1.1-1.8
			s0.4-1.3,0.6-1.7c0.2-0.4,0.4,0.1,0.5,0.4c0.2,0.3,0.7,0.5,0.5,1.5c-0.1,1,0.9,0.8,1.3,0.3c0,0,0.6-0.7,0.8-0.9
			c0.2-0.2,0.7-1,0.7-1.9s0.1-1.2,0-1.5s-0.3-0.8,0-0.8c0.2,0,0.8,0.4,1.1-0.2s0-0.9-0.2-1.3C556.2,375.7,555.7,374.9,555.3,374.6z"
			/>
		<ellipse transform="matrix(0.804 -0.5946 0.5946 0.804 -105.0515 396.2643)" class="st0" cx="548.6" cy="357.5" rx="3.3" ry="3"/>
		<ellipse transform="matrix(0.804 -0.5946 0.5946 0.804 -123.2034 392.3691)" class="st0" cx="533.6" cy="383.1" rx="3.3" ry="3"/>
		
			<ellipse transform="matrix(0.804 -0.5947 0.5947 0.804 -100.6654 400.0412)" class="st0" cx="556.4" cy="352.7" rx="3.2" ry="2.9"/>
		
			<ellipse transform="matrix(0.8041 -0.5945 0.5945 0.8041 -105.5913 402.1719)" class="st0" cx="557.4" cy="361.3" rx="2.6" ry="2.4"/>
		<ellipse transform="matrix(0.804 -0.5946 0.5946 0.804 -111.7782 386.6848)" class="st0" cx="530.7" cy="362.9" rx="3.2" ry="3"/>
		
			<ellipse transform="matrix(0.8041 -0.5945 0.5945 0.8041 -108.909 380.7585)" class="st0" cx="523.3" cy="355.6" rx="2.6" ry="2.4"/>
		
			<ellipse transform="matrix(0.804 -0.5946 0.5946 0.804 -107.3839 385.5592)" class="st0" cx="531.2" cy="355.7" rx="1.7" ry="1.6"/>
		
			<ellipse transform="matrix(0.8041 -0.5945 0.5945 0.8041 -102.4548 392.4848)" class="st0" cx="544.3" cy="351.7" rx="1.8" ry="1.7"/>
		<path class="st0" d="M576.4,349.4c-0.6,3.4-6.8,9.7-13.3,1.5c-0.7,3-0.9,6.5-0.4,10.2c1.4,9.9-8.8,12.2-8.8,12.2s8.2-3.3,7.7-9.6
			c-0.3-3.9-0.8-9.6,0.5-14.3c-0.2-0.3-0.4-0.6-0.6-0.9c-1.4-2.4-2-4.9-2.1-7.3l1.4-0.3c0.1,2.1,0.7,4.4,1.8,6.7
			c0.8-2,2-3.8,3.9-4.9C572.6,338.8,577.2,344.8,576.4,349.4z M571.1,343.4c-3.4-0.9-6,1.6-7.4,5.8c0.1,0.2,0.3,0.4,0.4,0.6
			C571.7,359.8,580.2,345.9,571.1,343.4z"/>
		<ellipse transform="matrix(0.9629 -0.2697 0.2697 0.9629 -64.704 152.8553)" class="st0" cx="523.9" cy="311.9" rx="2" ry="1.9"/>
		
			<ellipse transform="matrix(0.9629 -0.2697 0.2697 0.9629 -64.9181 154.5063)" class="st0" cx="529.8" cy="313.5" rx="1.4" ry="1.3"/>
		
			<ellipse transform="matrix(0.963 -0.2696 0.2696 0.963 -66.1532 153.7346)" class="st0" cx="526.6" cy="317.7" rx="1.4" ry="1.3"/>
		<ellipse transform="matrix(0.963 -0.2696 0.2696 0.963 -66.0095 155.3894)" class="st0" cx="532.7" cy="318" rx="1.4" ry="1.3"/>
		
			<ellipse transform="matrix(0.963 -0.2696 0.2696 0.963 -63.3913 153.8488)" class="st0" cx="528.4" cy="307.7" rx="2.6" ry="2.4"/>
		
			<ellipse transform="matrix(0.963 -0.2696 0.2696 0.963 -66.0343 151.6021)" class="st0" cx="518.9" cy="316.2" rx="2.6" ry="2.4"/>
		<ellipse transform="matrix(0.963 -0.2696 0.2696 0.963 -67.7209 147.331)" class="st0" cx="502.5" cy="320.2" rx="2.6" ry="2.4"/>
		
			<ellipse transform="matrix(0.9629 -0.2697 0.2697 0.9629 -63.2678 151.9151)" class="st0" cx="521.2" cy="306.2" rx="2.6" ry="2.4"/>
		<ellipse transform="matrix(0.963 -0.2695 0.2695 0.963 -68.4197 145.6402)" class="st0" cx="496.2" cy="322" rx="2.5" ry="2.3"/>
		<ellipse transform="matrix(0.963 -0.2695 0.2695 0.963 -66.6082 145.8298)" class="st0" cx="497.8" cy="315.5" rx="2" ry="1.9"/>
		<path class="st0" d="M490.2,324c-1.2,1.3-2.5,2.2-4.2,2.5c-5.5,1.1-7.2-4.5-5.3-7.6c1.4-2.3,7.7-5.2,10.1,2.6
			c1.4-2,2.5-4.5,3.1-7.3c1.7-7.6,9.8-6.5,9.8-6.5c0.2-0.1,0.4-0.2,0.4-0.4c0.1-0.3-0.7-1.2-0.9-1.5c-0.2-0.3-0.3-1-0.3-1.2
			c0-0.3-0.2-0.6,0.2-0.9c0.4-0.4,0.7,0.1,0.8,0.2c0.2,0.1,0.1-0.3,0.2-0.6c0-0.2,0.2-0.4,0.4-1c0.2-0.6,0.8-1.1,1-1.1
			c0.2-0.1,0.8-0.4,0.8-0.4c0.4-0.2,1.2-0.1,0.8,0.6c-0.4,0.6,0,0.9,0,1.1c0,0.3,0,0.6,0.3,0.4c0.2-0.2,0.6-0.5,0.9-1
			s1.2-0.9,1.2-0.9c0.6-0.3,0.9,0.4,0.9,0.5s0,0.5,0.2,0.3c0.4-0.2,0.8-0.4,1.2-0.2c0.4,0.1,0.6,0,0.8-0.2c0.2-0.1,0.5-0.1,0.7,0
			s0.4,0.1,0.4,0.1c1.4-0.3,1.6,0.4,1.1,0.8c-0.4,0.3-0.7,0.3-0.4,0.6c0.4,0.4-0.3,0.6-0.5,0.6c-0.2,0.1,0.2,0.4,0.2,0.6
			c-0.1,0.2-1.2,0.7-1.5,0.7c-0.2,0.1-0.2,0.1-0.2,0.1s0.4,0.2,0.2,0.5s-2.1,0.8-2.1,0.8c-1.3,0.5,0.3,1,1.4,0.4
			c0.5-0.2,1,0,1.1-0.1c0.5-0.3,1.3-0.3,1.8-0.2c0.5,0.1,0.9,0.3,0.7,0.5s-0.3,0.1-0.2,0.3c0.1,0.2-0.5,0.5-0.5,0.6
			c0.1,0.1,0.9,0.1,1.8,0.3c1,0.2,0.7,0.8,0.7,0.8c0,0.1-0.2,0.4,1.7,1.1c1.8,0.7-0.9,1.4-1.5,1.5s-0.1,0.4-0.1,0.6
			s-0.3,0.5-1.2,0.2s-1.5-0.3-1.4-0.1c0.1,0.1,0.2,0.4,0.2,0.7c0,0.3-0.3,0.5-0.8,0.4s-0.8-0.3-1-0.4s-0.3-0.1-0.3-0.1
			c-0.1,0.1-0.4-0.1-0.4-0.1c-0.4-0.2-1.1-0.4-1.6-0.9s-0.8-0.5-1.1-0.3c-0.2,0.2,0.4,1.1,1.1,1.6c0.7,0.6-0.1,0.3,1.1,1.4
			s0,0.7,0.6,1.3c0.7,0.7,0.4,1,0.4,1c0.6,0.8,0.8,1.4,0.6,1.7c-0.2,0.2-1.1,0.1-1.6-0.3c-0.5-0.5-1.2-0.5-1.4-0.6
			c-0.3-0.2-0.7-0.9-0.9-0.5c-0.1,0.4-1.3,0.1-2.3-1s-0.6,1.5-1.6,0.8c-1-0.6-0.3-1-0.8-1.4s-0.6-1-0.5-1.3c0-0.3-0.1-1.8-0.7-0.8
			s-2.1,2.4-2.6,2s0.1-1.4,0.1-1.4c-0.2-0.5-0.1-1.3-0.1-1.3c0.1-1.8,1.1-1.9,0.7-2c-0.8,0-0.7-0.6-0.5-0.7c0.2-0.2,1.1-1.1,1.4-1.5
			c0.2-0.3,0.6-0.5,0.9-0.7c-0.1,0-6.9,0.1-8.3,4.8c-0.9,3-2.1,7.2-4.3,10.3c0.1,0.3,0.1,0.6,0.2,0.8c0.4,2.1,0.1,4.1-0.5,5.9
			l-1.1-0.2C490.2,327.8,490.5,326,490.2,324z M490,322.6c0-0.2-0.1-0.4-0.1-0.5c-2.8-9.5-12.9-1.7-6.9,2.7
			C485.1,326.4,487.8,325.2,490,322.6z"/>
		<path class="st0" d="M534.9,309.7c12.4,4,21.5,14.5,23.6,27.4c0.1,0.7,0.7,1.2,1.4,1.2c0.1,0,0.2,0,0.2,0c0.8-0.1,1.3-0.9,1.2-1.6
			c-2.3-13.9-12.1-25.3-25.6-29.6c-0.8-0.2-1.5,0.2-1.8,0.9C533.7,308.7,534.1,309.5,534.9,309.7z"/>
		<path class="st0" d="M517.4,377.1c-16.3-3.2-28.2-17.6-28.2-34.2c0-2.8,0.3-5.6,1-8.4c0.2-0.8-0.3-1.5-1-1.7
			c-0.8-0.2-1.5,0.3-1.7,1c-0.7,2.9-1.1,6-1.1,9c0,18,12.8,33.6,30.5,37c0.1,0,0.2,0,0.3,0c0.7,0,1.3-0.5,1.4-1.2
			C518.6,378,518.1,377.3,517.4,377.1z"/>
		<path class="st0" d="M516,330.5c0-1.6,0.5-2.9,1.5-3.9c1-0.9,2.2-1.4,3.6-1.4c1.4,0,2.7,0.5,3.6,1.5c0.9,1,1.4,2.3,1.4,3.8v5
			c0,0.2,0,0.3-0.1,0.5c-0.1,0.4-0.6,0.4-1,0.4h-5.6c0,0,0,0-0.1,0.1s-0.1,0.2-0.1,0.4v3.1c0,0.7,0.2,1.3,0.5,1.7
			c0.3,0.4,0.8,0.5,1.3,0.5c0.6,0,1-0.2,1.3-0.5c0.3-0.4,0.5-0.9,0.5-1.7c0-0.1,0.1-0.4,0.5-0.5c0.1,0,0.4-0.1,1.2-0.1s1,0,1.1,0.1
			c0.3,0.1,0.4,0.3,0.4,0.6c0,1.9-0.5,3.3-1.4,4.1c-0.9,0.8-2.2,1.3-3.6,1.3c-1.4,0-2.6-0.5-3.6-1.4s-1.4-2.3-1.4-4L516,330.5
			L516,330.5z M519.2,333.2c0,0.2,0.1,0.2,0.1,0.2c0.2,0,0.8,0.1,1.6,0.1c0.9,0,1.4,0,1.7-0.1c0.1,0,0.2-0.1,0.2-0.2v-2.6
			c0-0.6-0.2-1.1-0.5-1.5s-0.7-0.6-1.3-0.6c-0.5,0-1,0.2-1.3,0.7c-0.4,0.5-0.5,1-0.5,1.5V333.2z"/>
		<path class="st0" d="M536.3,350.5c0.1-0.1,0.2-0.3,0.1-0.4c-0.1-0.2-0.2-0.4-0.2-0.6s0-0.4,0-0.6s-0.3-0.4-0.9-0.5
			c-0.6-0.1-1.4-0.2-2.3-0.1c-1.2,0-2.2,0-3,0s-1.8,0-3.1,0c-0.8,0-1.4,0-1.7,0.1c-0.4,0.1-0.5,0.2-0.5,0.5c0,0.2,0.1,0.4,0.1,0.6
			s0,0.3-0.1,0.6c-0.1,0.3,0.1,0.5,0.6,0.6s0.8,0.2,1,0.2c1,0,1.8,0,2.4,0c0.6,0,1.1,0,1.7,0c0.5,0,1.1,0,1.8,0s1.6,0,2.8,0
			C535.7,350.7,536.2,350.6,536.3,350.5z"/>
		<path class="st0" d="M504,364.9h12.4c0.5,0,0.7-0.7,0.7-2.1c0-0.8,0-1.4-0.1-1.7c0-0.3-0.2-0.5-0.5-0.5h-2.9c-0.1,0-0.3,0-0.5,0
			s-0.4-0.1-0.5-0.3c-0.1-0.1-0.1-0.4-0.2-0.7c0-0.3,0-0.7,0-1v-35.4c0-0.3,0-0.7,0-1.2s-0.2-0.7-0.7-0.7c-0.6,0-1.2,0-1.6,0.1
			c-0.4,0-1.1,0.2-1.9,0.4c-0.1,0-0.2,0.2-0.4,0.4c-0.1,0.2-0.3,0.6-0.4,0.9c-0.1,0.4-0.3,0.7-0.5,1s-0.4,0.6-0.7,0.8
			c-0.5,0.5-1.1,0.9-1.6,1.4s-0.8,0.9-0.9,1.2c-0.1,0.7-0.2,1.2-0.1,1.6s0.1,0.9,0.2,1.5c0,0.2,0.1,0.4,0.3,0.4c0.1,0,0.3,0,0.5-0.1
			s0.3-0.2,0.5-0.4c0.2-0.2,0.3-0.3,0.4-0.4c0.3-0.2,0.7-0.5,1.2-0.9s0.9-0.6,1.2-0.6c0.2,0,0.2,0.2,0.2,0.6s0,0.7,0,0.9v28.7
			c0,0.4,0,0.8,0,1.2c0,0.4-0.1,0.6-0.3,0.7c-0.2,0.1-0.3,0.1-0.5,0.1s-0.4,0-0.6,0H504c-0.5,0-0.7,0.2-0.8,0.5
			c-0.1,0.3-0.2,0.9-0.2,1.7c0,0.7,0,1.3,0.1,1.6C503.3,364.7,503.6,364.9,504,364.9z"/>
		<path class="st0" d="M533.2,325.3c-0.5,0-1.1,0.2-1.8,0.5c-0.5,0.2-0.9,0.5-1.1,0.9c0-0.1,0-0.1,0-0.2c0-0.2,0-0.4,0-0.6
			c0-0.3-0.2-0.5-0.5-0.6c-0.2,0-0.5,0-1,0c-0.6,0-0.9,0-1.1,0c-0.4,0.1-0.5,0.3-0.5,0.5v18.9c0,0.3,0.2,0.6,0.5,0.6
			c0.2,0,0.5,0.1,1,0.1c0.6,0,0.9,0,1.2,0c0.4,0,0.6-0.3,0.6-0.7v-14c0-0.3,0.1-0.6,0.3-0.9s0.4-0.5,0.7-0.7s0.6-0.4,0.9-0.5
			c0.3-0.1,0.6-0.2,0.9-0.2c0.4,0,0.5-0.6,0.5-1.6c0-0.5,0-0.9,0-1.1C533.6,325.3,533.3,325.3,533.2,325.3z"/>
		<path class="st0" d="M541.5,345.5c-0.3,0-0.5-0.3-0.5-0.6c0-0.1,0-0.2,0-0.3c-0.1,0.1-0.1,0.2-0.2,0.3c-0.1,0.2-0.4,0.3-0.6,0.5
			c-0.3,0.1-0.6,0.2-1.1,0.2c-1.4,0-2.7-0.5-3.6-1.4c-1-0.9-1.4-2.3-1.4-4v-9.6c0-1.6,0.5-2.9,1.5-3.9c1-0.9,2.2-1.4,3.6-1.4
			c0.2,0,0.5,0,0.8,0.1s0.7,0.3,1,0.6c0,0,0-0.1,0-0.2c0-0.2,0.1-0.5,0.5-0.5c0.2,0,0.5,0,1,0c0.9,0,1.1,0.1,1.3,0.1
			c0.2,0.1,0.4,0.2,0.4,0.7v18.8c0,0.5-0.3,0.6-0.4,0.7c-0.1,0-0.4,0.1-1.2,0.1C542,345.6,541.7,345.6,541.5,345.5z M540.9,330.6
			c0-0.5-0.2-1-0.5-1.5s-0.7-0.7-1.3-0.7c-0.5,0-1,0.2-1.3,0.7c-0.4,0.5-0.5,1-0.5,1.5v9.5c0,0.8,0.2,1.4,0.5,1.7
			c0.3,0.3,0.8,0.5,1.3,0.5c0.6,0,1-0.2,1.3-0.5c0.3-0.4,0.5-0.9,0.5-1.7V330.6z"/>
		<path class="st0" d="M500.9,326.9c-0.5-0.3-1.2-0.2-1.5,0.3c-3,4.8-4.7,10.3-4.7,15.9c0,5.4,1.5,10.7,4.2,15.2
			c0.2,0.3,0.6,0.5,0.9,0.5c0.2,0,0.4-0.1,0.6-0.2c0.5-0.3,0.7-1,0.4-1.5c-2.6-4.2-3.9-9.1-3.9-14.1c0-5.2,1.5-10.3,4.3-14.7
			C501.6,328,501.4,327.3,500.9,326.9z"/>
		<path class="st0" d="M513.4,370.7c3.5,1.4,7.2,2.1,11,2.1c3.6,0,7.2-0.7,10.6-1.9c0.6-0.2,0.9-0.9,0.6-1.4
			c-0.2-0.6-0.9-0.9-1.4-0.6c-3.1,1.2-6.4,1.8-9.8,1.8c-3.5,0-6.9-0.7-10.2-1.9c-0.6-0.2-1.2,0-1.4,0.6
			C512.5,369.8,512.8,370.5,513.4,370.7z"/>
		<path class="st0" d="M552.8,344.3c0.6,0,1.1-0.5,1.1-1.1c0-5.9-1.7-11.7-5.1-16.5c-0.3-0.5-1-0.6-1.5-0.3c-0.5,0.3-0.6,1-0.3,1.5
			c3.1,4.5,4.7,9.8,4.7,15.3C551.7,343.8,552.2,344.3,552.8,344.3z"/>
		<path class="st0" d="M412.1,53.7c0.3,0.3,0.6,0.4,0.9,0.4s0.7-0.1,0.9-0.4l38.5-38.5c0.5-0.5,0.5-1.3,0-1.8s-1.3-0.5-1.8,0
			l-38.5,38.5C411.6,52.3,411.6,53.2,412.1,53.7z"/>
		<path class="st0" d="M452.4,26.9c-0.5-0.5-1.3-0.5-1.8,0l-38.5,38.5c-0.5,0.5-0.5,1.3,0,1.8c0.3,0.3,0.6,0.4,0.9,0.4
			s0.7-0.1,0.9-0.4l38.5-38.5C452.9,28.2,452.9,27.4,452.4,26.9z"/>
		<path class="st0" d="M399.4,54c0.3,0,0.7-0.1,0.9-0.4l38.5-38.5c0.5-0.5,0.5-1.3,0-1.8s-1.3-0.5-1.8,0l-38.5,38.5
			c-0.5,0.5-0.5,1.3,0,1.8C398.7,53.9,399,54,399.4,54z"/>
		<path class="st0" d="M223.8,240.1l-38.5,38.5c-0.5,0.5-0.5,1.3,0,1.8c0.3,0.3,0.6,0.4,0.9,0.4s0.7-0.1,0.9-0.4l38.5-38.5
			c0.5-0.5,0.5-1.3,0-1.8C225.1,239.6,224.3,239.6,223.8,240.1z"/>
		<path class="st0" d="M237.4,240.1l-38.5,38.5c-0.5,0.5-0.5,1.3,0,1.8c0.3,0.3,0.6,0.4,0.9,0.4s0.7-0.1,0.9-0.4l38.5-38.5
			c0.5-0.5,0.5-1.3,0-1.8C238.7,239.6,237.9,239.6,237.4,240.1z"/>
		<path class="st0" d="M225.6,226.5c-0.5-0.5-1.3-0.5-1.8,0L185.3,265c-0.5,0.5-0.5,1.3,0,1.8c0.3,0.3,0.6,0.4,0.9,0.4
			s0.7-0.1,0.9-0.4l38.5-38.5C226.1,227.8,226.1,227,225.6,226.5z"/>
		<path class="st0" d="M413.9,240.1c-0.5-0.5-1.3-0.5-1.8,0s-0.5,1.3,0,1.8l38.5,38.5c0.3,0.3,0.6,0.4,0.9,0.4s0.7-0.1,0.9-0.4
			c0.5-0.5,0.5-1.3,0-1.8L413.9,240.1z"/>
		<path class="st0" d="M400.3,240.1c-0.5-0.5-1.3-0.5-1.8,0s-0.5,1.3,0,1.8l38.5,38.5c0.3,0.3,0.6,0.4,0.9,0.4s0.7-0.1,0.9-0.4
			c0.5-0.5,0.5-1.3,0-1.8L400.3,240.1z"/>
		<path class="st0" d="M413.9,226.5c-0.5-0.5-1.3-0.5-1.8,0s-0.5,1.3,0,1.8l38.5,38.5c0.3,0.3,0.6,0.4,0.9,0.4s0.7-0.1,0.9-0.4
			c0.5-0.5,0.5-1.3,0-1.8L413.9,226.5z"/>
		<path class="st0" d="M741.9,182.8c0.5,0.5,0.5,1.3,0,1.8c-0.3,0.2-0.6,0.4-0.9,0.4c-0.3,0-0.7-0.1-0.9-0.4l-18.3-18.4l-5,5
			l11.6,11.6c0.5,0.5,0.5,1.3,0,1.8c-0.3,0.3-0.6,0.4-0.9,0.4s-0.7-0.1-0.9-0.4L715,173.1l-11.6,11.6c-0.3,0.3-0.6,0.4-0.9,0.4
			s-0.7-0.1-0.9-0.4c-0.5-0.5-0.5-1.3,0-1.8l11.6-11.6l-5-5l-18.4,18.3c-0.3,0.2-0.6,0.4-0.9,0.4c-0.3,0-0.7-0.1-0.9-0.4
			c-0.5-0.5-0.5-1.3,0-1.8l18.4-18.3l-5-5L689.8,171c-0.3,0.3-0.6,0.4-0.9,0.4s-0.7-0.1-0.9-0.4c-0.5-0.5-0.5-1.3,0-1.8l11.6-11.6
			L688,146.1c-0.5-0.5-0.5-1.3,0-1.8s1.3-0.5,1.8,0l11.5,11.5l5-5L688,132.5c-0.5-0.5-0.5-1.3,0-1.8s1.3-0.5,1.8,0l18.3,18.3
			l4.9-4.9l-11.5-11.5c-0.5-0.5-0.5-1.3,0-1.8s1.3-0.5,1.8,0l11.5,11.5l11.6-11.6c0.5-0.5,1.3-0.5,1.8,0s0.5,1.3,0,1.8l-11.6,11.6
			l5,5l18.3-18.3c0.5-0.5,1.3-0.5,1.8,0s0.5,1.3,0,1.8l-18.3,18.3l4.9,4.9l11.6-11.6c0.5-0.5,1.3-0.5,1.8,0s0.5,1.3,0,1.8
			l-11.6,11.6l11.6,11.6c0.5,0.5,0.5,1.3,0,1.8c-0.3,0.3-0.6,0.4-0.9,0.4s-0.7-0.1-0.9-0.4l-11.6-11.6l-5,5L741.9,182.8z
			 M721.8,152.7l-5,4.9l4.9,5l5-5L721.8,152.7z M710,150.8l5,5l5-4.9l-5-5L710,150.8z M708.2,162.7l5-5l-5-5l-5,5L708.2,162.7z
			 M720,164.4l-4.9-5l-5,5l5,5L720,164.4z"/>
		<path class="st0" d="M223.8,53.7c0.3,0.3,0.6,0.4,0.9,0.4s0.7-0.1,0.9-0.4c0.5-0.5,0.5-1.3,0-1.8l-38.5-38.5
			c-0.5-0.5-1.3-0.5-1.8,0s-0.5,1.3,0,1.8L223.8,53.7z"/>
		<path class="st0" d="M223.8,67.2c0.3,0.3,0.6,0.4,0.9,0.4s0.7-0.1,0.9-0.4c0.5-0.5,0.5-1.3,0-1.8l-38.5-38.5
			c-0.5-0.5-1.3-0.5-1.8,0s-0.5,1.3,0,1.8L223.8,67.2z"/>
		<path class="st0" d="M237.4,53.7c0.3,0.3,0.6,0.4,0.9,0.4s0.7-0.1,0.9-0.4c0.5-0.5,0.5-1.3,0-1.8l-38.5-38.5
			c-0.5-0.5-1.3-0.5-1.8,0s-0.5,1.3,0,1.8L237.4,53.7z"/>
	</g>
</g>
</svg>
